<svg width="448" height="767" viewBox="0 0 448 767" fill="none" xmlns="http://www.w3.org/2000/svg">
<path d="M195.292 270.29L197.192 273.563C199.902 278.236 201.258 280.576 200.65 282.867C200.042 285.158 197.704 286.517 193.033 289.228L188.075 292.106C183.404 294.817 181.067 296.173 178.774 295.564C176.477 294.955 175.121 292.618 172.41 287.947L155.15 258.21C152.44 253.537 151.083 251.202 151.692 248.906C152.302 246.61 154.638 245.256 159.309 242.545L164.267 239.667C168.938 236.956 171.275 235.6 173.568 236.209C175.862 236.818 177.221 239.155 179.932 243.826L189.787 260.805M164.054 272.919L168.906 270.103M172.494 287.456L177.339 284.644M155.618 258.381L160.463 255.568M159.836 265.649L167.107 261.431M168.275 280.188L175.543 275.97" stroke="#395D7F" stroke-opacity="0.46" stroke-width="3" stroke-linecap="round"/>
<g clip-path="url(#clip0_523_1160)">
<path d="M452.39 434.324L457.156 428.111L485.872 408.687L488.647 412.789L459.931 432.213L452.39 434.324ZM439.208 437.058C442.466 439.449 443.939 441.631 444.949 445.546L460.632 443.052L466.144 436.982L490.758 420.334L488.766 430.649L464.152 447.298L427.776 450.976L444.729 418.582L469.343 401.933L479.658 403.924L455.045 420.573L447.36 423.43L439.208 437.058Z" fill="#395D7F" fill-opacity="0.46"/>
</g>
<path d="M449.575 164.28L436.02 190.258C433.585 187.369 430.608 184.987 427.255 183.245C423.908 181.491 420.25 180.41 416.486 180.066L430.042 154.087C431.099 152.061 431.629 151.046 432.27 150.116C433.028 149.018 433.903 148.006 434.878 147.097C435.706 146.329 436.634 145.658 438.486 144.318L448.255 137.249C448.702 136.925 449.23 136.731 449.781 136.691C450.332 136.65 450.884 136.764 451.373 137.019C451.863 137.275 452.272 137.662 452.554 138.137C452.835 138.612 452.979 139.156 452.969 139.709L452.758 151.765C452.719 154.053 452.699 155.196 452.543 156.314C452.356 157.639 452.028 158.928 451.558 160.18C451.162 161.238 450.632 162.253 449.575 164.28ZM432.259 197.466C430.907 200.056 428.582 202.004 425.795 202.879C423.007 203.755 419.986 203.488 417.396 202.137C414.806 200.785 412.858 198.46 411.983 195.673C411.107 192.885 411.374 189.864 412.725 187.274L414.351 184.158L414.68 184.167C418.39 184.284 422.024 185.242 425.31 186.969C428.704 188.728 431.641 191.255 433.884 194.35L432.259 197.466Z" fill="#395D7F" fill-opacity="0.46"/>
<path d="M260.807 197.089L237.919 178.792C241.222 176.958 244.133 174.494 246.486 171.539C248.852 168.592 250.615 165.209 251.677 161.582L274.565 179.879C276.35 181.307 277.245 182.022 278.034 182.83C278.965 183.785 279.79 184.837 280.495 185.97C281.09 186.929 281.569 187.97 282.528 190.045L287.587 200.99C287.82 201.491 287.908 202.047 287.842 202.595C287.776 203.144 287.558 203.663 287.213 204.094C286.868 204.526 286.41 204.853 285.89 205.038C285.369 205.223 284.807 205.26 284.267 205.143L272.476 202.618C270.239 202.14 269.121 201.901 268.054 201.533C266.789 201.095 265.588 200.525 264.45 199.823C263.487 199.231 262.593 198.516 260.807 197.089ZM231.569 173.715C229.287 171.891 227.823 169.235 227.499 166.331C227.176 163.428 228.019 160.514 229.843 158.232C231.667 155.95 234.324 154.486 237.227 154.162C240.131 153.839 243.044 154.682 245.326 156.506L248.071 158.7L248 159.021C247.171 162.639 245.532 166.022 243.206 168.914C240.828 171.908 237.783 174.303 234.314 175.91L231.569 173.715Z" fill="#395D7F" fill-opacity="0.46"/>
<g clip-path="url(#clip1_523_1160)">
<path d="M367.045 629.246L363.33 643.551L377.739 640.263L410.433 608.527L399.74 597.511L367.045 629.246ZM368.635 640.128L367.26 638.356L368.765 631.374L375.664 638.481L368.635 640.128ZM402.102 603.5L373.322 631.091L371.253 628.959L400.033 601.368L402.102 603.5ZM417.702 590.773C413.908 586.864 408.624 588.887 408.624 588.887L403.293 594.061L413.987 605.077L419.318 599.903C419.323 599.553 421.497 594.682 417.702 590.773ZM411.002 593.825L409.277 592.048C411.41 589.979 413.134 591.756 413.134 591.756L411.002 593.825Z" fill="#395D7F" fill-opacity="0.46"/>
</g>
<g clip-path="url(#clip2_523_1160)">
<path d="M198.964 542.378L195.249 556.682L209.658 553.394L242.352 521.658L231.658 510.642L198.964 542.378ZM200.554 553.259L199.179 551.487L200.684 544.505L207.583 551.612L200.554 553.259ZM234.021 516.631L205.241 544.222L203.171 542.09L231.951 514.499L234.021 516.631ZM249.621 503.904C245.826 499.995 240.543 502.018 240.543 502.018L235.212 507.192L245.906 518.209L251.236 513.034C251.242 512.684 253.415 507.813 249.621 503.904ZM242.921 506.957L241.196 505.18C243.328 503.11 245.053 504.887 245.053 504.887L242.921 506.957Z" fill="#395D7F" fill-opacity="0.46"/>
</g>
<g clip-path="url(#clip3_523_1160)">
<path d="M305.623 360.465L325.048 347.515C326.078 346.828 327.34 346.578 328.554 346.821C329.768 347.064 330.836 347.779 331.523 348.809L352.245 379.89C352.932 380.921 353.181 382.182 352.939 383.396C352.696 384.61 351.98 385.678 350.95 386.365L331.525 399.316C330.494 400.003 329.233 400.253 328.019 400.01C326.804 399.767 325.736 399.052 325.049 398.021L304.328 366.941C303.641 365.91 303.391 364.649 303.634 363.435C303.877 362.221 304.592 361.152 305.623 360.465ZM308.213 364.351L313.393 372.121L332.819 359.17L327.638 351.4L308.213 364.351ZM315.983 376.006L318.574 379.891L322.459 377.301L319.868 373.416L315.983 376.006ZM323.754 370.825L326.344 374.711L330.229 372.12L327.639 368.235L323.754 370.825ZM331.524 365.645L334.114 369.53L337.999 366.94L335.409 363.055L331.524 365.645ZM321.164 383.776L323.754 387.661L327.639 385.071L325.049 381.186L321.164 383.776ZM328.934 378.596L331.524 382.481L335.409 379.891L332.819 376.005L328.934 378.596ZM336.704 373.415L339.294 377.3L343.179 374.71L340.589 370.825L336.704 373.415ZM326.344 391.546L328.934 395.431L332.819 392.841L330.229 388.956L326.344 391.546ZM334.114 386.366L336.705 390.251L340.59 387.661L337.999 383.776L334.114 386.366ZM341.885 381.185L344.475 385.071L348.36 382.48L345.77 378.595L341.885 381.185Z" fill="#395D7F" fill-opacity="0.46"/>
</g>
<g clip-path="url(#clip4_523_1160)">
<path d="M74.7639 408.16C73.3752 409.393 72.5335 411.128 72.4239 412.983C72.3143 414.837 72.9458 416.659 74.1796 418.048C75.4133 419.436 77.1482 420.278 79.0025 420.388C80.8569 420.497 82.6788 419.866 84.0676 418.632C85.4563 417.398 86.298 415.663 86.4076 413.809C86.5172 411.955 85.8857 410.133 84.6519 408.744C83.4182 407.355 81.6833 406.514 79.829 406.404C77.9746 406.294 76.1527 406.926 74.7639 408.16ZM70.6888 421.149C69.217 419.492 68.2473 417.45 67.8931 415.262C67.539 413.074 67.815 410.831 68.6888 408.794C69.5627 406.757 70.9983 405.011 72.8279 403.76C74.6574 402.51 76.8053 401.805 79.0203 401.73C79.1821 399.282 80.301 396.995 82.1351 395.365C84.0463 393.667 86.4582 392.899 88.8224 393.022C89.2618 390.165 90.7455 387.572 92.9864 385.746C95.2273 383.921 98.0659 382.991 100.953 383.138C103.84 383.284 106.569 384.497 108.614 386.541C110.658 388.585 111.871 391.314 112.018 394.201C112.166 397.088 111.237 399.927 109.411 402.168C107.586 404.409 104.994 405.893 102.137 406.333C99.2801 406.773 96.3615 406.138 93.9463 404.55C91.5311 402.961 89.7911 400.533 89.0631 397.736C88.3821 397.629 87.6858 397.673 87.0241 397.867C86.3625 398.061 85.7519 398.398 85.2363 398.856C84.1541 399.817 83.6208 401.175 83.6733 402.524C85.316 403.168 86.7913 404.176 87.9883 405.472C89.1854 406.768 90.0731 408.319 90.5847 410.008C91.0963 411.696 91.2184 413.479 90.942 415.221C90.6655 416.964 89.9977 418.621 88.9887 420.069C87.9796 421.516 86.6556 422.716 85.1162 423.578C83.5768 424.44 81.8619 424.942 80.1007 425.046C78.3394 425.15 76.5774 424.853 74.9473 424.178C73.3171 423.503 71.8611 422.467 70.6888 421.149ZM95.7086 389.552C95.0199 390.163 94.4584 390.903 94.0562 391.73C93.654 392.558 93.419 393.457 93.3647 394.375C93.3104 395.294 93.4379 396.214 93.7398 397.083C94.0418 397.952 94.5122 398.753 95.1243 399.44C96.0443 400.476 97.2508 401.216 98.5911 401.565C99.9315 401.915 101.345 401.86 102.654 401.406C103.963 400.953 105.108 400.121 105.944 399.017C106.781 397.912 107.271 396.585 107.352 395.202C107.434 393.819 107.104 392.443 106.404 391.248C105.703 390.053 104.664 389.092 103.418 388.487C102.172 387.882 100.774 387.661 99.4017 387.85C98.0294 388.04 96.7442 388.632 95.7086 389.552Z" fill="#395D7F" fill-opacity="0.46"/>
</g>
<g clip-path="url(#clip5_523_1160)">
<path d="M370.364 15.5908L392.011 24.3348C393.16 24.7986 394.077 25.6995 394.561 26.8394C395.044 27.9794 395.056 29.2648 394.592 30.4131L380.602 65.0492C380.138 66.1975 379.237 67.1145 378.097 67.5985C376.957 68.0824 375.672 68.0938 374.523 67.63L352.876 58.886C351.728 58.4222 350.811 57.5213 350.327 56.3813C349.843 55.2414 349.831 53.956 350.295 52.8077L364.285 18.1716C364.749 17.0233 365.65 16.1063 366.79 15.6223C367.93 15.1384 369.215 15.127 370.364 15.5908ZM368.615 19.9203L365.117 28.5794L386.765 37.3233L390.263 28.6643L368.615 19.9203ZM363.369 32.9089L361.62 37.2384L365.949 38.9872L367.698 34.6577L363.369 32.9089ZM372.028 36.4065L370.279 40.736L374.608 42.4848L376.357 38.1553L372.028 36.4065ZM380.687 39.9041L378.938 44.2336L383.267 45.9824L385.016 41.6529L380.687 39.9041ZM359.871 41.5679L358.122 45.8975L362.452 47.6463L364.2 43.3167L359.871 41.5679ZM368.53 45.0655L366.781 49.395L371.111 51.1438L372.86 46.8143L368.53 45.0655ZM377.189 48.5631L375.44 52.8926L379.77 54.6414L381.519 50.3119L377.189 48.5631ZM356.373 50.227L354.625 54.5565L358.954 56.3053L360.703 51.9758L356.373 50.227ZM365.032 53.7246L363.284 58.0541L367.613 59.8029L369.362 55.4733L365.032 53.7246ZM373.691 57.2221L371.943 61.5517L376.272 63.3004L378.021 58.9709L373.691 57.2221Z" fill="#395D7F" fill-opacity="0.46"/>
</g>
<path d="M12.3954 553.332C11.1572 553.313 9.9623 553.787 9.0737 554.65C8.1851 555.513 7.67554 556.693 7.65713 557.931L7.44883 571.938C7.43041 573.176 7.90465 574.371 8.7672 575.259C9.62976 576.148 10.81 576.657 12.0482 576.676L16.7171 576.745C17.9554 576.764 19.1502 576.29 20.0388 575.427C20.9274 574.564 21.437 573.384 21.4554 572.146L21.4901 569.811L16.8212 569.742L16.7865 572.076L12.1177 572.007L12.326 558L16.9948 558.07L16.9601 560.404L21.629 560.474L21.6637 558.139C21.6821 556.901 21.2079 555.706 20.3453 554.818C19.4827 553.929 18.3025 553.419 17.0643 553.401L12.3954 553.332ZM28.7364 553.575C27.4981 553.556 26.3033 554.03 25.4147 554.893C24.5261 555.756 24.0165 556.936 23.9981 558.174L23.7898 572.181C23.7714 573.419 24.2456 574.614 25.1082 575.502C25.9707 576.391 27.151 576.901 28.3892 576.919L33.0581 576.988C34.2963 577.007 35.4912 576.533 36.3798 575.67C37.2684 574.807 37.778 573.627 37.7964 572.389L38.0047 558.382C38.0231 557.144 37.5488 555.949 36.6863 555.061C35.8237 554.172 34.6435 553.663 33.4053 553.644L28.7364 553.575ZM28.667 558.244L33.3358 558.313L33.1275 572.32L28.4587 572.25L28.667 558.244ZM45.0774 553.818C43.8391 553.799 42.6443 554.273 41.7557 555.136C40.8671 555.999 40.3575 557.179 40.3391 558.417L40.2697 563.086C40.2512 564.324 40.7255 565.519 41.588 566.408C42.4506 567.296 43.6308 567.806 44.8691 567.824L49.5379 567.894L49.4685 572.563L40.1308 572.424L40.0614 577.093L49.3991 577.231C50.6373 577.25 51.8322 576.776 52.7208 575.913C53.6094 575.05 54.1189 573.87 54.1374 572.632L54.2068 567.963C54.2252 566.725 53.751 565.53 52.8884 564.641C52.0258 563.753 50.8456 563.243 49.6074 563.225L44.9385 563.155L45.0079 558.487L54.3457 558.625L54.4151 553.957L45.0774 553.818Z" fill="#395D7F" fill-opacity="0.46"/>
<path d="M82.2584 682.307C83.0947 682.68 83.9156 683.048 84.7897 683.365M86.4416 709.565C83.4868 705.866 84.0743 700.344 80.4275 697.065C78.8114 695.182 79.0967 692.513 79.5774 690.263C79.8826 686.542 76.608 683.535 76.5336 679.757M96.1415 661.053C95.8026 665.897 89.503 662.857 88.475 667.156C89.6599 668.435 91.2936 667.222 92.3209 666.691C97.4735 666.952 94.931 671.617 91.2135 671.941C88.7143 673.217 85.6072 674.505 84.2451 677.211C83.3701 677.909 83.4879 679.535 81.8841 679.408C81.2769 678.518 81.5085 675.262 79.9189 676.851C76.4071 679.193 80.4685 682.854 80.5117 686.056C86.4899 685.605 89.3531 691.069 93.5996 694.22C95.8632 696.093 100.524 697.925 96.8847 701.007C94.9362 704.867 89.3702 707.968 91.5078 712.676C91.482 712.888 91.7807 712.851 91.6763 713.093M129.29 696.632C126.423 696.376 125.769 701.016 126.32 703.096M105.32 670.391C105.557 670.338 105.809 670.288 106.007 670.14C106.371 669.928 106.323 669.321 106.29 668.938C106.124 668.643 105.99 668.127 105.654 667.914M129.089 677.118C127.87 677.439 124.773 675.705 126.009 677.666C126.192 678.985 127.319 679.309 127.945 679.766C128.404 680.723 128.684 683.129 127.38 683.595C126.555 683.613 122.294 679.142 123.456 681.748C123.664 683.431 124.912 684.788 125.919 685.859C126.434 687.358 128.8 686.611 128.873 687.755C127.947 690.62 126.04 692.621 124.827 695.322C124.989 698.378 124.836 701.441 122.986 704.012C114.603 712.959 112.747 703.212 115.735 695.553C116.919 686.389 107.245 693.997 104.072 689.341C101.194 686.214 103.835 680.624 106.857 678.476C107.982 677.281 109.901 677.259 111.396 677.784C114.415 678.32 118.725 678.148 121.394 676.642C121.232 675.706 119.691 674.694 118.633 674.582C118.473 673.601 120.957 673.296 119.34 672.447C117.492 672.259 117.442 675.82 115.744 673.923C115.358 672.683 112.665 672.647 114.23 673.989C114.279 675.418 114.389 676.366 113.5 674.816C111.1 673.489 108.782 676.279 106.569 676.584C104.473 674.083 109.861 669.028 112.175 668.271C113.69 667.026 110.111 664.999 110.94 667.33C110.317 668.827 107.126 667.725 108.61 666.273C109.026 664.855 110.15 663.892 111.355 663.479C112.846 663.653 113.48 663.588 113.52 661.938M99.3968 660.782C99.2602 661.753 99.7589 662.684 99.638 663.655C99.6251 664.518 97.4503 666.029 98.7134 666.447C100.031 666.914 101.014 666.413 101.824 665.376C103.284 664.286 104.597 663.162 104.396 661.112C104.211 661.043 103.941 660.987 103.991 660.868C102.63 659.774 100.923 660.217 99.3968 660.782ZM131.21 687.907C130.98 703.379 118.253 715.734 102.781 715.504C87.3094 715.274 74.9552 702.546 75.1853 687.074C75.4154 671.602 88.1426 659.248 103.614 659.478C119.086 659.708 131.44 672.435 131.21 687.907Z" stroke="#395D7F" stroke-opacity="0.46" stroke-width="2.5" stroke-linecap="round" stroke-linejoin="round"/>
<path d="M240.803 721.631C239.031 721.338 237.214 721.76 235.754 722.806C234.293 723.852 233.307 725.436 233.014 727.208C232.721 728.981 233.144 730.797 234.19 732.258C235.235 733.719 236.819 734.704 238.591 734.997C240.364 735.291 242.18 734.868 243.641 733.822C245.102 732.776 246.087 731.193 246.381 729.42C246.674 727.648 246.251 725.831 245.205 724.37C244.159 722.91 242.576 721.924 240.803 721.631ZM228.559 726.471C228.909 724.356 229.854 722.385 231.283 720.787C232.712 719.19 234.567 718.032 236.63 717.45C238.693 716.867 240.879 716.884 242.933 717.498C244.986 718.113 246.823 719.299 248.227 720.918C250.166 719.55 252.566 719 254.907 719.387C257.347 719.791 259.392 721.136 260.738 722.989C263.153 721.581 266.005 721.119 268.741 721.692C271.478 722.266 273.904 723.834 275.55 726.094C277.196 728.354 277.946 731.144 277.653 733.924C277.36 736.704 276.047 739.277 273.966 741.145C271.885 743.012 269.186 744.041 266.39 744.033C263.594 744.024 260.901 742.978 258.832 741.098C256.763 739.218 255.465 736.637 255.189 733.855C254.914 731.073 255.68 728.288 257.34 726.038C257.007 725.461 256.549 724.965 256.001 724.585C255.453 724.205 254.828 723.952 254.17 723.843C252.789 723.614 251.443 724.039 250.461 724.9C250.977 726.527 251.116 728.249 250.87 729.938C250.624 731.626 249.999 733.237 249.041 734.649C248.082 736.061 246.817 737.238 245.338 738.09C243.86 738.943 242.208 739.449 240.506 739.571C238.804 739.693 237.096 739.428 235.511 738.795C233.927 738.162 232.506 737.178 231.356 735.918C230.206 734.657 229.357 733.152 228.872 731.515C228.388 729.879 228.281 728.154 228.559 726.471ZM267.536 726.055C266.659 725.908 265.761 725.936 264.894 726.138C264.027 726.339 263.208 726.709 262.485 727.227C261.761 727.745 261.147 728.401 260.677 729.157C260.207 729.913 259.891 730.754 259.747 731.632C259.528 732.954 259.707 734.311 260.259 735.531C260.812 736.752 261.714 737.781 262.851 738.489C263.989 739.197 265.311 739.552 266.65 739.509C267.989 739.465 269.285 739.026 270.374 738.246C271.464 737.466 272.297 736.38 272.77 735.127C273.242 733.873 273.332 732.507 273.028 731.202C272.725 729.897 272.041 728.712 271.063 727.795C270.086 726.879 268.858 726.273 267.536 726.055Z" fill="#395D7F" fill-opacity="0.46"/>
<defs>
<clipPath id="clip0_523_1160">
<rect width="56.0324" height="56.0324" fill="white" transform="matrix(0.189536 -0.981874 -0.981874 -0.189536 467.802 463.051)"/>
</clipPath>
<clipPath id="clip1_523_1160">
<rect width="56.0324" height="56.0324" fill="white" transform="translate(364.164 587.525) rotate(0.852025)"/>
</clipPath>
<clipPath id="clip2_523_1160">
<rect width="56.0324" height="56.0324" fill="white" transform="translate(196.082 500.656) rotate(0.852025)"/>
</clipPath>
<clipPath id="clip3_523_1160">
<rect width="56.0324" height="56.0324" fill="white" transform="translate(289.435 365.646) rotate(-33.6914)"/>
</clipPath>
<clipPath id="clip4_523_1160">
<rect width="56.0324" height="56.0324" fill="white" transform="translate(47.9095 403.489) rotate(-41.6178)"/>
</clipPath>
<clipPath id="clip5_523_1160">
<rect width="56.0324" height="56.0324" fill="white" transform="translate(356.959 5.14062) rotate(21.9949)"/>
</clipPath>
</defs>
</svg>
