<svg width="1462" height="1021" viewBox="0 0 1462 1021" fill="none" xmlns="http://www.w3.org/2000/svg">
<path d="M77.9836 704.143L80.8415 708.902C84.9193 715.699 86.9593 719.102 86.117 722.475C85.2748 725.849 81.875 727.894 75.0824 731.973L67.8711 736.303C61.0784 740.382 57.6796 742.423 54.3017 741.58C50.9198 740.736 48.8789 737.337 44.8 730.544L18.8306 687.297C14.7528 680.5 12.7109 677.105 13.5551 673.723C14.3993 670.341 17.7971 668.304 24.5897 664.226L31.801 659.895C38.5937 655.816 41.9925 653.776 45.3704 654.619C48.7483 655.462 50.7932 658.862 54.8721 665.654L69.7002 690.348M32.214 708.681L39.2708 704.444M44.9124 729.822L51.9593 725.591M19.5206 687.537L26.5674 683.305M25.8678 698.107L36.442 691.761M38.5652 719.252L49.1354 712.905" stroke="#395D7F" stroke-opacity="0.8" stroke-width="6" stroke-linecap="round"/>
<g clip-path="url(#clip0_645_1830)">
<path d="M1402.38 402.713L1409.24 393.494L1450.94 364.373L1455.1 370.331L1413.4 399.452L1402.38 402.713ZM1383.11 407.012C1387.94 410.448 1390.15 413.617 1391.71 419.338L1414.67 415.337L1422.62 406.313L1458.36 381.352L1455.67 396.529L1419.92 421.49L1366.64 427.679L1390.8 379.787L1426.55 354.826L1441.72 357.522L1405.98 382.483L1394.77 386.842L1383.11 407.012Z" fill="#395D7F" fill-opacity="0.8"/>
</g>
<path d="M1405.66 824.864L1386.34 863.27C1382.71 859.086 1378.29 855.655 1373.33 853.174C1368.38 850.672 1362.99 849.168 1357.47 848.745L1376.78 810.338C1378.29 807.342 1379.05 805.841 1379.97 804.463C1381.06 802.836 1382.32 801.332 1383.73 799.977C1384.92 798.832 1386.27 797.828 1388.96 795.822L1403.14 785.239C1403.78 784.753 1404.56 784.457 1405.36 784.386C1406.17 784.314 1406.98 784.469 1407.71 784.833C1408.43 785.198 1409.04 785.757 1409.46 786.447C1409.89 787.138 1410.11 787.934 1410.1 788.744L1410.06 806.435C1410.05 809.793 1410.05 811.469 1409.84 813.113C1409.6 815.061 1409.14 816.959 1408.48 818.806C1407.92 820.367 1407.17 821.867 1405.66 824.864ZM1380.98 873.926C1379.06 877.756 1375.69 880.663 1371.62 882.009C1367.55 883.355 1363.11 883.029 1359.28 881.102C1355.45 879.176 1352.54 875.807 1351.2 871.738C1349.85 867.668 1350.18 863.23 1352.11 859.4L1354.42 854.794L1354.9 854.799C1360.35 854.891 1365.7 856.217 1370.56 858.679C1375.58 861.184 1379.94 864.828 1383.3 869.32L1380.98 873.926Z" fill="#395D7F" fill-opacity="0.8"/>
<path d="M496.563 245.568L462.587 219.225C467.393 216.464 471.609 212.786 474.997 208.399C478.403 204.024 480.916 199.023 482.394 193.679L516.37 220.021C519.021 222.077 520.348 223.106 521.524 224.275C522.911 225.655 524.144 227.181 525.203 228.826C526.096 230.221 526.823 231.737 528.274 234.76L535.935 250.707C536.287 251.437 536.429 252.25 536.344 253.056C536.259 253.862 535.951 254.629 535.454 255.269C534.958 255.91 534.292 256.399 533.533 256.682C532.773 256.965 531.95 257.031 531.155 256.872L513.803 253.425C510.509 252.773 508.865 252.446 507.291 251.929C505.426 251.314 503.651 250.504 501.966 249.5C500.542 248.652 499.214 247.623 496.563 245.568ZM453.161 211.917C449.773 209.29 447.568 205.426 447.029 201.173C446.491 196.92 447.664 192.628 450.291 189.24C452.917 185.853 456.782 183.647 461.035 183.109C465.287 182.571 469.58 183.744 472.967 186.37L477.042 189.53L476.944 190.002C475.808 195.328 473.477 200.326 470.127 204.62C466.704 209.063 462.289 212.644 457.235 215.076L453.161 211.917Z" fill="white" fill-opacity="0.3"/>
<g clip-path="url(#clip1_645_1830)">
<path d="M13.1791 242.335L8.04102 263.401L29.1071 258.263L76.3774 210.992L60.4493 195.064L13.1791 242.335ZM15.7481 258.263L13.6929 255.693L15.7481 245.417L26.0243 255.693L15.7481 258.263ZM64.046 203.799L22.4276 244.904L19.3448 241.821L60.9631 200.716L64.046 203.799ZM86.6535 184.788C81.0016 179.136 73.2945 182.219 73.2945 182.219L65.5874 189.926L81.5154 205.854L89.2225 198.147C89.2225 197.633 92.3054 190.44 86.6535 184.788ZM76.8912 189.412L74.3221 186.843C77.405 183.76 79.974 186.33 79.974 186.33L76.8912 189.412Z" fill="#395D7F" fill-opacity="0.8"/>
</g>
<g clip-path="url(#clip2_645_1830)">
<path d="M1102.56 601.354L1097.42 622.42L1118.49 617.282L1165.76 570.011L1149.83 554.083L1102.56 601.354ZM1105.13 617.282L1103.07 614.713L1105.13 604.436L1115.4 614.713L1105.13 617.282ZM1153.42 562.818L1111.81 603.923L1108.72 600.84L1150.34 559.735L1153.42 562.818ZM1176.03 543.807C1170.38 538.155 1162.67 541.238 1162.67 541.238L1154.97 548.945L1170.89 564.873L1178.6 557.166C1178.6 556.652 1181.68 549.459 1176.03 543.807ZM1166.27 548.431L1163.7 545.862C1166.78 542.78 1169.35 545.349 1169.35 545.349L1166.27 548.431Z" fill="#395D7F" fill-opacity="0.8"/>
</g>
<g clip-path="url(#clip3_645_1830)">
<path d="M1130.42 191.279L1158.63 171.857C1160.13 170.826 1161.98 170.433 1163.76 170.762C1165.55 171.092 1167.13 172.118 1168.16 173.615L1199.24 218.758C1200.27 220.255 1200.66 222.1 1200.33 223.886C1200 225.673 1198.98 227.256 1197.48 228.286L1169.27 247.709C1167.77 248.739 1165.92 249.133 1164.14 248.803C1162.35 248.473 1160.77 247.447 1159.74 245.951L1128.66 200.807C1127.63 199.31 1127.24 197.466 1127.57 195.679C1127.9 193.892 1128.92 192.31 1130.42 191.279ZM1134.3 196.922L1142.07 208.208L1170.29 188.785L1162.52 177.499L1134.3 196.922ZM1145.96 213.851L1149.84 219.494L1155.49 215.61L1151.6 209.967L1145.96 213.851ZM1157.24 206.082L1161.13 211.725L1166.77 207.84L1162.89 202.197L1157.24 206.082ZM1168.53 198.313L1172.41 203.956L1178.06 200.071L1174.17 194.428L1168.53 198.313ZM1153.73 225.137L1157.61 230.78L1163.25 226.896L1159.37 221.253L1153.73 225.137ZM1165.01 217.368L1168.9 223.011L1174.54 219.126L1170.66 213.483L1165.01 217.368ZM1176.3 209.599L1180.18 215.242L1185.83 211.357L1181.94 205.714L1176.3 209.599ZM1161.5 236.423L1165.38 242.066L1171.02 238.181L1167.14 232.538L1161.5 236.423ZM1172.78 228.654L1176.67 234.297L1182.31 230.412L1178.42 224.769L1172.78 228.654ZM1184.07 220.885L1187.95 226.528L1193.6 222.643L1189.71 217L1184.07 220.885Z" fill="#395D7F" fill-opacity="0.8"/>
</g>
<g clip-path="url(#clip4_645_1830)">
<path d="M360.777 61.7744C358.766 63.6146 357.569 66.178 357.449 68.9008C357.329 71.6235 358.295 74.2825 360.135 76.2929C361.975 78.3032 364.539 79.5002 367.261 79.6205C369.984 79.7408 372.643 78.7746 374.654 76.9344C376.664 75.0942 377.861 72.5308 377.981 69.808C378.102 67.0853 377.135 64.4263 375.295 62.4159C373.455 60.4056 370.891 59.2086 368.169 59.0883C365.446 58.968 362.787 59.9342 360.777 61.7744ZM355.082 80.9185C352.886 78.5197 351.419 75.5455 350.852 72.3437C350.285 69.1418 350.641 65.8446 351.878 62.8376C353.116 59.8306 355.184 57.238 357.84 55.363C360.497 53.4879 363.633 52.4079 366.88 52.2492C367.064 48.6539 368.656 45.2753 371.311 42.8441C374.078 40.3115 377.599 39.1313 381.07 39.2604C381.652 35.0595 383.773 31.2241 387.02 28.4965C390.268 25.7689 394.412 24.3433 398.65 24.4956C402.888 24.6479 406.919 26.3672 409.963 29.3208C413.006 32.2744 414.846 36.2521 415.125 40.4839C415.404 44.7158 414.103 48.9007 411.474 52.2285C408.845 55.5563 405.075 57.7904 400.893 58.4982C396.712 59.2059 392.416 58.3371 388.839 56.0598C385.261 53.7826 382.655 50.2589 381.526 46.1709C380.525 46.0282 379.504 46.109 378.538 46.4075C377.571 46.7061 376.683 47.2149 375.937 47.8974C374.37 49.3314 373.617 51.3347 373.724 53.3129C376.148 54.2218 378.334 55.6682 380.118 57.5436C381.903 59.4189 383.239 61.6743 384.026 64.1403C384.813 66.6063 385.031 69.2187 384.664 71.781C384.296 74.3434 383.353 76.7892 381.904 78.9345C380.455 81.0797 378.539 82.8687 376.3 84.1669C374.06 85.4651 371.556 86.2388 368.974 86.4297C366.392 86.6207 363.801 86.224 361.395 85.2694C358.989 84.3149 356.83 82.8273 355.082 80.9185ZM391.097 34.0205C390.1 34.9307 389.292 36.0286 388.72 37.2515C388.148 38.4743 387.823 39.7979 387.763 41.1466C387.704 42.4953 387.911 43.8425 388.373 45.111C388.835 46.3795 389.542 47.5444 390.455 48.539C391.827 50.0382 393.613 51.0968 395.587 51.5809C397.561 52.065 399.634 51.9529 401.545 51.2588C403.455 50.5646 405.116 49.3197 406.319 47.6812C407.522 46.0428 408.212 44.0846 408.301 42.0542C408.391 40.0237 407.877 38.0122 406.823 36.2741C405.77 34.536 404.224 33.1494 402.383 32.2894C400.541 31.4295 398.486 31.135 396.477 31.4431C394.468 31.7513 392.596 32.6482 391.097 34.0205Z" fill="#395D7F" fill-opacity="0.8"/>
</g>
<g clip-path="url(#clip5_645_1830)">
<path d="M888.366 810.432C886.78 809.545 884.907 809.325 883.159 809.82C881.41 810.315 879.93 811.484 879.044 813.07L869.018 831.011C868.132 832.597 867.912 834.471 868.407 836.219C868.902 837.967 870.071 839.447 871.657 840.334L877.637 843.675C879.223 844.562 881.097 844.782 882.845 844.287C884.593 843.792 886.073 842.623 886.96 841.037L888.63 838.047L882.65 834.705L880.979 837.695L874.999 834.353L885.024 816.412L891.005 819.754L889.334 822.744L895.314 826.086L896.985 823.096C897.871 821.51 898.091 819.636 897.596 817.888C897.102 816.14 895.933 814.66 894.347 813.774L888.366 810.432ZM909.297 822.128C907.711 821.242 905.838 821.022 904.09 821.517C902.342 822.012 900.862 823.181 899.975 824.767L889.95 842.708C889.063 844.294 888.844 846.167 889.338 847.915C889.833 849.664 891.002 851.144 892.588 852.03L898.569 855.372C900.155 856.258 902.028 856.478 903.776 855.983C905.525 855.488 907.005 854.319 907.891 852.733L917.916 834.792C918.803 833.206 919.023 831.333 918.528 829.585C918.033 827.836 916.864 826.356 915.278 825.47L909.297 822.128ZM905.956 828.108L911.936 831.45L901.911 849.391L895.93 846.05L905.956 828.108ZM930.229 833.825C928.643 832.938 926.77 832.718 925.021 833.213C923.273 833.708 921.793 834.877 920.907 836.463L917.565 842.443C916.678 844.03 916.459 845.903 916.953 847.651C917.448 849.399 918.617 850.879 920.203 851.766L926.184 855.108L922.842 861.088L910.881 854.404L907.539 860.385L919.5 867.068C921.086 867.955 922.959 868.175 924.708 867.68C926.456 867.185 927.936 866.016 928.822 864.43L932.164 858.449C933.05 856.863 933.27 854.99 932.776 853.242C932.281 851.494 931.112 850.013 929.526 849.127L923.545 845.785L926.887 839.805L938.848 846.489L942.19 840.508L930.229 833.825Z" fill="white" fill-opacity="0.49"/>
</g>
<path d="M203.847 906.796C205.083 907.325 206.295 907.848 207.584 908.294M210.579 946.693C206.163 941.331 206.905 933.217 201.483 928.487C199.072 925.76 199.432 921.838 200.088 918.527C200.455 913.061 195.585 908.721 195.393 903.18M223.75 875.314C223.359 882.427 214.051 878.105 212.637 884.435C214.403 886.284 216.773 884.47 218.269 883.668C225.833 883.939 222.205 890.838 216.759 891.394C213.12 893.32 208.59 895.278 206.651 899.277C205.382 900.321 205.591 902.703 203.235 902.551C202.325 901.26 202.594 896.478 200.296 898.844C195.196 902.356 201.234 907.638 201.367 912.334C210.127 911.543 214.447 919.495 220.745 924.025C224.107 926.725 230.984 929.309 225.712 933.91C222.938 939.615 214.84 944.287 218.079 951.146C218.046 951.458 218.483 951.398 218.335 951.754M273.156 926.785C268.944 926.473 268.086 933.294 268.94 936.333M237.42 888.813C237.765 888.73 238.134 888.651 238.421 888.43C238.95 888.111 238.867 887.222 238.811 886.659C238.561 886.23 238.353 885.476 237.855 885.172M272.435 898.163C270.654 898.661 266.072 896.184 267.928 899.033C268.226 900.964 269.886 901.416 270.815 902.072C271.508 903.466 271.973 906.99 270.069 907.702C268.859 907.746 262.511 901.281 264.273 905.078C264.614 907.542 266.474 909.506 267.976 911.056C268.763 913.242 272.219 912.095 272.35 913.772C271.054 917.996 268.301 920.972 266.581 924.96C266.885 929.441 266.726 933.937 264.069 937.749C251.966 951.058 249.031 936.799 253.247 925.498C254.784 912.028 240.758 923.4 236.001 916.64C231.711 912.116 235.464 903.857 239.85 900.639C241.475 898.863 244.289 898.788 246.494 899.525C250.935 900.246 257.254 899.9 261.136 897.632C260.878 896.263 258.595 894.812 257.041 894.67C256.785 893.235 260.422 892.733 258.031 891.523C255.317 891.287 255.321 896.513 252.788 893.766C252.195 891.956 248.244 891.962 250.568 893.897C250.672 895.993 250.854 897.38 249.516 895.126C245.965 893.231 242.627 897.376 239.386 897.871C236.257 894.247 244.051 886.714 247.429 885.553C249.625 883.693 244.33 880.798 245.597 884.2C244.716 886.409 240.011 884.862 242.156 882.7C242.735 880.611 244.364 879.174 246.121 878.541C248.313 878.763 249.241 878.655 249.264 876.233M228.52 874.846C228.341 876.272 229.093 877.628 228.937 879.055C228.937 880.321 225.779 882.585 227.641 883.171C229.584 883.827 231.015 883.071 232.181 881.531C234.3 879.901 236.201 878.224 235.862 875.221C235.589 875.123 235.191 875.048 235.262 874.871C233.242 873.296 230.746 873.983 228.52 874.846ZM275.782 913.944C275.782 936.647 257.381 955.049 234.679 955.049C211.976 955.049 193.575 936.647 193.575 913.944C193.575 891.242 211.976 872.84 234.679 872.84C257.381 872.84 275.782 891.242 275.782 913.944Z" stroke="#395D7F" stroke-opacity="0.8" stroke-width="3.5" stroke-linecap="round" stroke-linejoin="round"/>
<path d="M235.449 509.094C232.843 508.702 230.187 509.362 228.067 510.928C225.947 512.494 224.536 514.839 224.144 517.445C223.752 520.052 224.412 522.708 225.979 524.828C227.545 526.948 229.889 528.359 232.496 528.751C235.103 529.142 237.758 528.482 239.878 526.916C241.998 525.35 243.409 523.005 243.801 520.399C244.193 517.792 243.533 515.137 241.967 513.016C240.4 510.896 238.056 509.485 235.449 509.094ZM217.592 516.461C218.059 513.351 219.403 510.438 221.464 508.064C223.526 505.689 226.222 503.95 229.235 503.051C232.249 502.151 235.456 502.129 238.483 502.985C241.509 503.841 244.229 505.541 246.324 507.886C249.139 505.837 252.647 504.978 256.091 505.494C259.678 506.033 262.708 507.963 264.723 510.651C268.236 508.532 272.409 507.792 276.436 508.574C280.462 509.356 284.056 511.604 286.52 514.883C288.985 518.162 290.145 522.239 289.776 526.324C289.408 530.409 287.536 534.212 284.525 536.997C281.513 539.782 277.576 541.35 273.474 541.399C269.373 541.447 265.399 539.972 262.322 537.259C259.246 534.546 257.285 530.788 256.82 526.713C256.356 522.638 257.419 518.535 259.805 515.198C259.303 514.359 258.622 513.641 257.809 513.096C256.997 512.551 256.074 512.193 255.106 512.047C253.075 511.742 251.111 512.395 249.689 513.678C250.48 516.054 250.723 518.577 250.399 521.06C250.075 523.543 249.192 525.919 247.817 528.012C246.443 530.104 244.611 531.858 242.461 533.141C240.311 534.424 237.898 535.202 235.404 535.419C232.91 535.635 230.399 535.283 228.06 534.389C225.722 533.495 223.616 532.083 221.902 530.259C220.187 528.434 218.909 526.244 218.162 523.855C217.416 521.465 217.221 518.937 217.592 516.461ZM274.763 515C273.472 514.804 272.156 514.865 270.888 515.179C269.621 515.493 268.428 516.054 267.378 516.83C266.328 517.606 265.441 518.582 264.768 519.701C264.096 520.82 263.65 522.061 263.458 523.352C263.166 525.296 263.457 527.283 264.294 529.061C265.131 530.84 266.477 532.33 268.161 533.344C269.845 534.358 271.792 534.849 273.756 534.756C275.719 534.664 277.611 533.991 279.192 532.823C280.774 531.655 281.973 530.044 282.638 528.194C283.304 526.345 283.406 524.339 282.932 522.432C282.458 520.524 281.429 518.8 279.975 517.477C278.521 516.154 276.707 515.292 274.763 515Z" fill="#395D7F" fill-opacity="0.8"/>
<path d="M1228.55 859.956L1203.53 871.266C1201.99 871.993 1200.38 871.922 1198.91 871.069L1167.33 855.034C1166.43 854.455 1166.16 853.607 1166.21 853.016C1166.27 852.426 1166.41 851.786 1167.99 851.326L1170.33 850.462L1202.01 867.727L1224.52 858.529L1228.55 859.956Z" fill="#395D7F"/>
<path d="M1203.23 869.456C1202.61 869.749 1201.92 869.889 1201.23 869.864C1200.54 869.84 1199.87 869.651 1199.26 869.313L1168.44 853.782C1168 853.542 1167.87 852.989 1168.13 852.563C1168.81 851.442 1170.05 847.898 1168 844.956L1202.81 861.717L1203.23 869.456Z" fill="#F5F5F5"/>
<path d="M1227.21 858.677L1203.23 869.456C1202.44 869.8 1200.86 870.413 1199.04 869.188C1200.48 869.291 1201.49 868.695 1202.01 867.727C1202.52 866.787 1202.36 865.245 1201.75 864.375C1201.37 863.85 1200.36 863.013 1199.91 862.543L1225.85 852.399C1228.15 851.452 1230.3 852.869 1230.65 854.591C1231.03 856.538 1228.55 858.13 1227.21 858.677Z" fill="#395D7F" fill-opacity="0.18"/>
<path d="M1228.41 851.556L1203.65 862.603C1202.1 863.221 1200.35 863.139 1198.86 862.385L1167.23 846.317C1166.92 846.164 1166.47 845.743 1166.29 845.169C1165.99 844.212 1166.36 843.009 1167.48 842.626L1201.76 860.099L1225.23 850.053L1228.41 851.556Z" fill="#395D7F"/>
<path d="M1230.28 853.159L1227.58 852.18L1222.02 852.502L1203.66 860.7C1202.1 861.318 1200.36 861.236 1198.86 860.481L1167.23 844.419C1166.41 844.004 1166.59 842.795 1167.48 842.626L1190.28 832.427C1190.93 832.306 1191.6 832.377 1192.21 832.634L1224.74 848.144C1224.74 848.144 1229.91 851.682 1230.28 853.159Z" fill="#395D7F"/>
<path d="M1221.71 852.661C1221.71 852.661 1225.13 851.321 1227.83 851.441C1230.52 851.562 1231.45 853.449 1231.45 853.449C1230.94 851.135 1228.55 849.954 1228.55 849.954L1193.01 832.055C1192.76 831.951 1191.85 831.738 1190.46 832.312C1189.33 832.777 1185.65 834.499 1185.65 834.499L1221.71 852.661Z" fill="#395D7F"/>
<path d="M1231.6 853.886C1231.35 852.863 1230.71 851.769 1229.54 851.239C1228 850.544 1225.8 850.725 1224.4 851.458L1221.71 852.65V854.542L1225.11 853.033C1228.41 851.562 1229.88 853.766 1230 854.285C1230.53 856.401 1229.51 857.626 1226.51 859.005L1221.63 861.203V863.106L1227.24 860.607C1229.72 859.612 1232.56 857.741 1231.6 853.886Z" fill="#395D7F"/>
<path d="M1182.05 853.388L1172.61 840.335L1174.09 839.673L1184.72 854.274L1182.05 853.388ZM1194.17 859.404L1192.48 858.07L1221.71 852.103V853.06L1217.62 854.613L1194.17 859.404Z" fill="#395D7F"/>
<path d="M1172.09 829.255L1209.01 823.086L1225.14 840.843C1225.96 841.702 1225.51 843.123 1224.35 843.359L1186.24 851.179L1172.09 829.255Z" fill="#395D7F"/>
<path d="M1224.35 841.827L1186.5 849.494L1186.38 851.299L1224.35 843.512C1225.42 843.287 1225.87 842.062 1225.29 841.198C1225.08 841.504 1224.76 841.745 1224.35 841.827ZM1226.39 850.101C1226.79 850.736 1226.43 851.572 1225.7 851.72L1190.85 858.786C1188.76 859.218 1186.7 857.845 1186.51 855.712C1186.36 853.908 1187.58 852.272 1189.35 851.901L1222.87 844.376L1226.39 850.101Z" fill="#395D7F"/>
<path d="M1194.4 847.805L1180.52 827.942L1172.6 830.037C1170.77 831.858 1171.45 834.849 1171.45 834.849C1171.45 834.849 1183.58 854.307 1185.49 856.796C1187.41 859.284 1190.2 858.896 1190.2 858.896L1194.92 857.944L1194.43 849.139L1194.4 847.805Z" fill="#395D7F"/>
<path d="M1194.4 847.936L1187.73 849.314C1185.91 849.724 1185.58 851.436 1185.58 851.436L1169.49 828.374C1169.49 828.374 1167.2 831.147 1168.72 833.504L1185.49 856.795C1187.32 859.404 1190.2 858.917 1190.2 858.917L1194.92 857.965L1194.43 849.336L1194.4 847.936Z" fill="#395D7F"/>
<path d="M1224.29 849.391C1224.46 849.762 1224.24 850.194 1223.84 850.276L1190.52 857.112C1188.43 857.544 1186.95 856.155 1187.02 854.263C1187.12 851.873 1188.46 850.862 1190.23 850.495L1223.72 843.654C1223.72 843.654 1222.58 844.933 1223.45 847.329C1223.75 848.155 1224.06 848.887 1224.29 849.391Z" fill="#D3DAE0"/>
<path d="M1188.72 849.773L1174.45 829.572" stroke="#395D7F" stroke-width="0.258875" stroke-miterlimit="10"/>
<path d="M1189.85 841.16L1171.48 831.907L1170.74 833.373L1191.96 844.185L1189.85 841.16Z" fill="#395D7F"/>
<path d="M1223.49 839.017L1222.15 837.54L1201.46 847.034L1189.85 841.286L1191.83 844.119L1199.52 848.051L1205.25 847.171L1223.49 839.017Z" fill="#395D7F"/>
<path d="M1228.54 835.363L1203.53 846.672C1201.99 847.4 1200.38 847.329 1198.91 846.476L1167.33 830.441C1166.43 829.862 1166.16 829.014 1166.21 828.423C1166.27 827.833 1166.41 827.193 1167.99 826.733L1169.47 826.187L1201.91 842.106L1228.26 831.207L1228.54 835.363Z" fill="#395D7F"/>
<path d="M1203.23 844.862C1202.6 845.156 1201.91 845.296 1201.22 845.271C1200.53 845.247 1199.86 845.058 1199.26 844.72L1168.43 829.189C1167.99 828.948 1167.86 828.396 1168.12 827.969C1168.8 826.848 1170.05 823.304 1167.99 820.362L1202.03 837.676L1203.23 844.862Z" fill="#F5F5F5"/>
<path d="M1227.21 834.083L1203.23 844.862C1202.43 845.207 1200.85 845.819 1199.03 844.594C1200.47 844.698 1201.48 844.102 1202 843.134C1202.51 842.194 1202.36 840.651 1201.74 839.782C1201.36 839.257 1200.35 838.42 1199.91 837.95L1225.85 827.805C1228.14 826.859 1230.3 828.276 1230.64 829.998C1231.03 831.945 1228.54 833.536 1227.21 834.083Z" fill="#D3DAE0"/>
<path d="M1228.41 826.963L1203.65 838.01C1202.1 838.628 1200.35 838.546 1198.86 837.792L1167.22 821.724C1166.89 821.56 1166.4 821.139 1166.24 820.543C1166.01 819.657 1166.31 818.492 1167.48 818.033L1196.47 811.892L1228.41 826.963Z" fill="#395D7F"/>
<path d="M1230.27 828.566L1227.57 827.587L1222.02 827.91L1203.65 836.107C1202.1 836.725 1200.35 836.643 1198.86 835.888L1167.22 819.821C1166.41 819.406 1166.7 818.306 1167.48 818.027L1190.28 807.834C1190.93 807.713 1191.6 807.785 1192.21 808.042L1224.74 823.551C1224.74 823.551 1229.9 827.084 1230.27 828.566Z" fill="#395D7F"/>
<path d="M1221.71 828.062C1221.71 828.062 1224.56 827.062 1227.25 827.182C1229.94 827.302 1231.46 828.85 1231.46 828.85C1230.9 826.378 1228.56 825.355 1228.56 825.355L1193.01 807.456C1192.77 807.352 1191.86 807.139 1190.46 807.713C1189.34 808.178 1185.66 809.901 1185.66 809.901L1221.71 828.062Z" fill="#395D7F"/>
<path d="M1224.97 826.892L1188.59 808.544L1189.8 808.003L1226.79 826.542L1224.97 826.892Z" fill="#395D7F"/>
<path d="M1231.6 829.293C1231.34 828.27 1230.91 827.281 1229.69 826.767C1228.13 826.11 1226.71 825.974 1224.39 826.865L1221.71 828.057V829.949L1225.1 828.44C1226.82 827.631 1229.36 827.806 1230 829.692C1230.69 831.76 1229.5 833.034 1226.5 834.412L1221.62 836.61V838.513L1227.23 836.014C1229.72 835.019 1232.56 833.149 1231.6 829.293Z" fill="#395D7F"/>
<path d="M198.548 55.9562L173.534 67.2655C171.991 67.9929 170.384 67.9218 168.907 67.0687L137.33 51.0343C136.428 50.4546 136.16 49.6069 136.215 49.0163C136.269 48.4257 136.406 47.7858 137.992 47.3265L140.333 46.4624L172.008 63.7272L194.517 54.5288L198.548 55.9562Z" fill="#395D7F"/>
<path d="M173.233 65.4556C172.607 65.749 171.921 65.8892 171.23 65.8645C170.54 65.8398 169.865 65.6508 169.262 65.3134L138.435 49.7821C137.998 49.5415 137.866 48.9892 138.129 48.5626C138.807 47.4415 140.054 43.8978 137.998 40.9556L172.812 57.7173L173.233 65.4556Z" fill="#F5F5F5"/>
<path d="M197.213 54.6766L173.233 65.4555C172.44 65.8001 170.859 66.4126 169.038 65.1876C170.476 65.2915 171.488 64.6954 172.008 63.7274C172.516 62.7868 172.363 61.2446 171.745 60.3751C171.368 59.8501 170.356 59.0134 169.913 58.543L195.851 48.3985C198.148 47.4524 200.303 48.8688 200.647 50.5915C201.03 52.5384 198.547 54.1298 197.213 54.6766Z" fill="#395D7F" fill-opacity="0.18"/>
<path d="M198.411 47.5564L173.654 58.6033C172.095 59.2213 170.35 59.1393 168.858 58.3846L137.226 42.3174C136.92 42.1643 136.466 41.7432 136.286 41.1689C135.99 40.2119 136.362 39.0088 137.483 38.626L171.761 56.0986L195.233 46.0525L198.411 47.5564Z" fill="#395D7F"/>
<path d="M200.276 49.1585L197.58 48.1796L192.024 48.5023L173.659 56.7C172.101 57.3179 170.356 57.2359 168.863 56.4812L137.227 40.4195C136.412 40.0039 136.587 38.7953 137.484 38.6257L160.283 28.4265C160.934 28.3062 161.601 28.3773 162.208 28.6343L194.742 44.1437C194.742 44.1437 199.909 47.682 200.276 49.1585Z" fill="#395D7F"/>
<path d="M191.711 48.661C191.711 48.661 195.135 47.3212 197.825 47.4415C200.516 47.5618 201.451 49.4485 201.451 49.4485C200.943 47.1352 198.553 45.954 198.553 45.954L163.006 28.0548C162.76 27.9509 161.852 27.7376 160.457 28.3118C159.331 28.7766 155.65 30.4993 155.65 30.4993L191.711 48.661Z" fill="#395D7F"/>
<path d="M201.605 49.8859C201.348 48.8632 200.713 47.7694 199.543 47.239C198.001 46.5444 195.803 46.7249 194.397 47.4577L191.712 48.6499V50.5421L195.108 49.0327C198.411 47.5616 199.877 49.7655 200.003 50.2851C200.528 52.4015 199.51 53.6265 196.508 55.0046L191.63 57.203V59.1062L197.241 56.6069C199.724 55.6116 202.556 53.7413 201.605 49.8859Z" fill="#395D7F"/>
<path d="M152.052 49.3885L142.607 36.3346L144.089 35.6729L154.715 50.2744L152.052 49.3885ZM164.165 55.4041L162.481 54.0697L191.711 48.1033V49.0603L187.615 50.6135L164.165 55.4041Z" fill="#395D7F"/>
<path d="M142.094 25.2547L179.013 19.0859L195.141 36.843C195.955 37.7016 195.512 39.1234 194.353 39.3586L156.236 47.1789L142.094 25.2547Z" fill="#395D7F"/>
<path d="M194.353 37.8271L156.498 45.4943L156.378 47.299L194.353 39.5115C195.425 39.2873 195.873 38.0623 195.288 37.1982C195.08 37.5045 194.763 37.7451 194.353 37.8271ZM196.393 46.1014C196.792 46.7357 196.431 47.5725 195.698 47.7201L160.851 54.7857C158.757 55.2178 156.701 53.8451 156.515 51.7123C156.356 49.9076 157.576 48.2725 159.353 47.9006L192.865 40.3756L196.393 46.1014Z" fill="#395D7F"/>
<path d="M164.401 43.8049L150.521 23.9424L142.602 26.0369C140.77 27.858 141.454 30.8494 141.454 30.8494C141.454 30.8494 153.578 50.3072 155.492 52.7955C157.406 55.2838 160.201 54.8955 160.201 54.8955L164.92 53.9439L164.428 45.1393L164.401 43.8049Z" fill="#395D7F"/>
<path d="M164.4 43.9357L157.734 45.3139C155.913 45.724 155.585 47.4357 155.585 47.4357L139.49 24.374C139.49 24.374 137.199 27.1467 138.719 29.5037L155.492 52.7951C157.324 55.4037 160.2 54.917 160.2 54.917L164.92 53.9654L164.433 45.3357L164.4 43.9357Z" fill="#395D7F"/>
<path d="M194.293 45.3905C194.462 45.7624 194.244 46.1944 193.844 46.2765L160.523 53.1124C158.429 53.5444 156.947 52.1554 157.023 50.2632C157.122 47.8733 158.462 46.8616 160.234 46.4952L193.719 39.6538C193.719 39.6538 192.581 40.9335 193.451 43.3288C193.746 44.1546 194.063 44.8874 194.293 45.3905Z" fill="#D3DAE0"/>
<path d="M158.724 45.7733L144.445 25.5718" stroke="#395D7F" stroke-width="0.258875" stroke-miterlimit="10"/>
<path d="M159.845 37.1604L141.481 27.9072L140.737 29.3729L161.956 40.1846L159.845 37.1604Z" fill="#395D7F"/>
<path d="M193.495 35.0166L192.15 33.54L171.461 43.0338L159.846 37.2861L161.825 40.1189L169.52 44.051L175.251 43.1705L193.495 35.0166Z" fill="#395D7F"/>
<path d="M198.542 31.3631L173.534 42.6725C171.991 43.3998 170.384 43.3287 168.907 42.4756L137.33 26.4412C136.428 25.8615 136.16 25.0139 136.215 24.4232C136.269 23.8326 136.406 23.1928 137.992 22.7334L139.474 22.1865L171.915 38.1061L198.258 27.2068L198.542 31.3631Z" fill="#395D7F"/>
<path d="M173.227 40.8623C172.601 41.1558 171.915 41.296 171.225 41.2712C170.534 41.2465 169.859 41.0576 169.257 40.7201L138.429 25.1889C137.992 24.9482 137.86 24.3959 138.123 23.9693C138.801 22.8482 140.048 19.3045 137.992 16.3623L172.029 33.6764L173.227 40.8623Z" fill="#F5F5F5"/>
<path d="M197.208 30.0834L173.228 40.8623C172.435 41.2068 170.854 41.8193 169.033 40.5943C170.471 40.6982 171.483 40.1021 172.003 39.1342C172.511 38.1935 172.358 36.6513 171.74 35.7818C171.363 35.2568 170.351 34.4201 169.908 33.9498L195.846 23.8052C198.143 22.8592 200.298 24.2756 200.643 25.9982C201.025 27.9451 198.543 29.5365 197.208 30.0834Z" fill="#D3DAE0"/>
<path d="M198.411 22.9635L173.654 34.0104C172.096 34.6283 170.351 34.5463 168.858 33.7916L137.221 17.7244C136.893 17.5604 136.401 17.1393 136.243 16.5432C136.007 15.6572 136.314 14.4924 137.479 14.033L166.468 7.8916L198.411 22.9635Z" fill="#395D7F"/>
<path d="M200.27 24.5658L197.574 23.5869L192.018 23.9095L173.654 32.1072C172.095 32.7252 170.351 32.6431 168.858 31.8884L137.221 15.8212C136.406 15.4056 136.696 14.3064 137.478 14.0275L160.283 3.83375C160.933 3.71343 161.601 3.78453 162.208 4.04156L194.741 19.5509C194.741 19.5509 199.904 23.0837 200.27 24.5658Z" fill="#395D7F"/>
<path d="M191.712 24.0624C191.712 24.0624 194.561 23.0616 197.252 23.1819C199.942 23.3022 201.457 24.8499 201.457 24.8499C200.905 22.378 198.559 21.3553 198.559 21.3553L163.012 3.45613C162.766 3.35222 161.858 3.13894 160.463 3.71316C159.337 4.178 155.656 5.90066 155.656 5.90066L191.712 24.0624Z" fill="#395D7F"/>
<path d="M194.965 22.892L158.593 4.54434L159.796 4.00293L196.787 22.542L194.965 22.892Z" fill="#395D7F"/>
<path d="M201.599 25.2932C201.342 24.2705 200.91 23.2807 199.69 22.7666C198.132 22.1103 196.71 21.9736 194.391 22.865L191.706 24.0572V25.9494L195.102 24.44C196.825 23.6307 199.362 23.8057 199.997 25.6924C200.691 27.7596 199.504 29.0338 196.502 30.4119L191.624 32.6103V34.5135L197.235 32.0142C199.723 31.0189 202.556 29.1486 201.599 25.2932Z" fill="#395D7F"/>
<path d="M1456.55 160.956L1431.53 172.266C1429.99 172.993 1428.38 172.922 1426.91 172.069L1395.33 156.034C1394.43 155.455 1394.16 154.607 1394.21 154.016C1394.27 153.426 1394.41 152.786 1395.99 152.326L1398.33 151.462L1430.01 168.727L1452.52 159.529L1456.55 160.956Z" fill="#395D7F"/>
<path d="M1431.23 170.456C1430.61 170.749 1429.92 170.889 1429.23 170.864C1428.54 170.84 1427.87 170.651 1427.26 170.313L1396.44 154.782C1396 154.542 1395.87 153.989 1396.13 153.563C1396.81 152.442 1398.05 148.898 1396 145.956L1430.81 162.717L1431.23 170.456Z" fill="#F5F5F5"/>
<path d="M1455.21 159.677L1431.23 170.456C1430.44 170.8 1428.86 171.413 1427.04 170.188C1428.48 170.291 1429.49 169.695 1430.01 168.727C1430.52 167.787 1430.36 166.245 1429.75 165.375C1429.37 164.85 1428.36 164.013 1427.91 163.543L1453.85 153.399C1456.15 152.452 1458.3 153.869 1458.65 155.591C1459.03 157.538 1456.55 159.13 1455.21 159.677Z" fill="#395D7F" fill-opacity="0.18"/>
<path d="M1456.41 152.556L1431.65 163.603C1430.1 164.221 1428.35 164.139 1426.86 163.385L1395.23 147.317C1394.92 147.164 1394.47 146.743 1394.29 146.169C1393.99 145.212 1394.36 144.009 1395.48 143.626L1429.76 161.099L1453.23 151.053L1456.41 152.556Z" fill="#395D7F"/>
<path d="M1458.28 154.159L1455.58 153.18L1450.02 153.502L1431.66 161.7C1430.1 162.318 1428.36 162.236 1426.86 161.481L1395.23 145.419C1394.41 145.004 1394.59 143.795 1395.48 143.626L1418.28 133.427C1418.93 133.306 1419.6 133.377 1420.21 133.634L1452.74 149.144C1452.74 149.144 1457.91 152.682 1458.28 154.159Z" fill="#395D7F"/>
<path d="M1449.71 153.661C1449.71 153.661 1453.13 152.321 1455.83 152.441C1458.52 152.562 1459.45 154.449 1459.45 154.449C1458.94 152.135 1456.55 150.954 1456.55 150.954L1421.01 133.055C1420.76 132.951 1419.85 132.738 1418.46 133.312C1417.33 133.777 1413.65 135.499 1413.65 135.499L1449.71 153.661Z" fill="#395D7F"/>
<path d="M1459.6 154.886C1459.35 153.863 1458.71 152.769 1457.54 152.239C1456 151.544 1453.8 151.725 1452.4 152.458L1449.71 153.65V155.542L1453.11 154.033C1456.41 152.562 1457.88 154.766 1458 155.285C1458.53 157.401 1457.51 158.626 1454.51 160.005L1449.63 162.203V164.106L1455.24 161.607C1457.72 160.612 1460.56 158.741 1459.6 154.886Z" fill="#395D7F"/>
<path d="M1410.05 154.388L1400.61 141.335L1402.09 140.673L1412.72 155.274L1410.05 154.388ZM1422.17 160.404L1420.48 159.07L1449.71 153.103V154.06L1445.62 155.613L1422.17 160.404Z" fill="#395D7F"/>
<path d="M1400.09 130.255L1437.01 124.086L1453.14 141.843C1453.96 142.702 1453.51 144.123 1452.35 144.359L1414.24 152.179L1400.09 130.255Z" fill="#395D7F"/>
<path d="M1452.35 142.827L1414.5 150.494L1414.38 152.299L1452.35 144.512C1453.42 144.287 1453.87 143.062 1453.29 142.198C1453.08 142.504 1452.76 142.745 1452.35 142.827ZM1454.39 151.101C1454.79 151.736 1454.43 152.572 1453.7 152.72L1418.85 159.786C1416.76 160.218 1414.7 158.845 1414.51 156.712C1414.36 154.908 1415.58 153.272 1417.35 152.901L1450.87 145.376L1454.39 151.101Z" fill="#395D7F"/>
<path d="M1422.4 148.805L1408.52 128.942L1400.6 131.037C1398.77 132.858 1399.45 135.849 1399.45 135.849C1399.45 135.849 1411.58 155.307 1413.49 157.796C1415.41 160.284 1418.2 159.896 1418.2 159.896L1422.92 158.944L1422.43 150.139L1422.4 148.805Z" fill="#395D7F"/>
<path d="M1422.4 148.936L1415.73 150.314C1413.91 150.724 1413.58 152.436 1413.58 152.436L1397.49 129.374C1397.49 129.374 1395.2 132.147 1396.72 134.504L1413.49 157.795C1415.32 160.404 1418.2 159.917 1418.2 159.917L1422.92 158.965L1422.43 150.336L1422.4 148.936Z" fill="#395D7F"/>
<path d="M1452.29 150.391C1452.46 150.762 1452.24 151.194 1451.84 151.276L1418.52 158.112C1416.43 158.544 1414.95 157.155 1415.02 155.263C1415.12 152.873 1416.46 151.862 1418.23 151.495L1451.72 144.654C1451.72 144.654 1450.58 145.933 1451.45 148.329C1451.75 149.155 1452.06 149.887 1452.29 150.391Z" fill="#D3DAE0"/>
<path d="M1416.72 150.773L1402.45 130.572" stroke="#395D7F" stroke-width="0.258875" stroke-miterlimit="10"/>
<path d="M1417.85 142.16L1399.48 132.907L1398.74 134.373L1419.96 145.185L1417.85 142.16Z" fill="#395D7F"/>
<path d="M1451.49 140.017L1450.15 138.54L1429.46 148.034L1417.85 142.286L1419.83 145.119L1427.52 149.051L1433.25 148.171L1451.49 140.017Z" fill="#395D7F"/>
<path d="M1456.54 136.363L1431.53 147.672C1429.99 148.4 1428.38 148.329 1426.91 147.476L1395.33 131.441C1394.43 130.862 1394.16 130.014 1394.21 129.423C1394.27 128.833 1394.41 128.193 1395.99 127.733L1397.47 127.187L1429.91 143.106L1456.26 132.207L1456.54 136.363Z" fill="#395D7F"/>
<path d="M1431.23 145.862C1430.6 146.156 1429.91 146.296 1429.22 146.271C1428.53 146.247 1427.86 146.058 1427.26 145.72L1396.43 130.189C1395.99 129.948 1395.86 129.396 1396.12 128.969C1396.8 127.848 1398.05 124.304 1395.99 121.362L1430.03 138.676L1431.23 145.862Z" fill="#F5F5F5"/>
<path d="M1455.21 135.083L1431.23 145.862C1430.43 146.207 1428.85 146.819 1427.03 145.594C1428.47 145.698 1429.48 145.102 1430 144.134C1430.51 143.194 1430.36 141.651 1429.74 140.782C1429.36 140.257 1428.35 139.42 1427.91 138.95L1453.85 128.805C1456.14 127.859 1458.3 129.276 1458.64 130.998C1459.03 132.945 1456.54 134.536 1455.21 135.083Z" fill="#D3DAE0"/>
<path d="M1456.41 127.963L1431.65 139.01C1430.1 139.628 1428.35 139.546 1426.86 138.792L1395.22 122.724C1394.89 122.56 1394.4 122.139 1394.24 121.543C1394.01 120.657 1394.31 119.492 1395.48 119.033L1424.47 112.892L1456.41 127.963Z" fill="#395D7F"/>
<path d="M1458.27 129.566L1455.57 128.587L1450.02 128.91L1431.65 137.107C1430.1 137.725 1428.35 137.643 1426.86 136.888L1395.22 120.821C1394.41 120.406 1394.7 119.306 1395.48 119.027L1418.28 108.834C1418.93 108.713 1419.6 108.785 1420.21 109.042L1452.74 124.551C1452.74 124.551 1457.9 128.084 1458.27 129.566Z" fill="#395D7F"/>
<path d="M1449.71 129.062C1449.71 129.062 1452.56 128.062 1455.25 128.182C1457.94 128.302 1459.46 129.85 1459.46 129.85C1458.9 127.378 1456.56 126.355 1456.56 126.355L1421.01 108.456C1420.77 108.352 1419.86 108.139 1418.46 108.713C1417.34 109.178 1413.66 110.901 1413.66 110.901L1449.71 129.062Z" fill="#395D7F"/>
<path d="M1452.97 127.892L1416.59 109.544L1417.8 109.003L1454.79 127.542L1452.97 127.892Z" fill="#395D7F"/>
<path d="M1459.6 130.293C1459.34 129.27 1458.91 128.281 1457.69 127.767C1456.13 127.11 1454.71 126.974 1452.39 127.865L1449.71 129.057V130.949L1453.1 129.44C1454.82 128.631 1457.36 128.806 1458 130.692C1458.69 132.76 1457.5 134.034 1454.5 135.412L1449.62 137.61V139.513L1455.23 137.014C1457.72 136.019 1460.56 134.149 1459.6 130.293Z" fill="#395D7F"/>
<defs>
<clipPath id="clip0_645_1830">
<rect width="82.2091" height="82.2091" fill="white" transform="matrix(0.174914 -0.984584 -0.984584 -0.174914 1425.62 444.521)"/>
</clipPath>
<clipPath id="clip1_645_1830">
<rect width="82.2091" height="82.2091" fill="white" transform="translate(8.04102 181.191)"/>
</clipPath>
<clipPath id="clip2_645_1830">
<rect width="82.2091" height="82.2091" fill="white" transform="translate(1097.42 540.21)"/>
</clipPath>
<clipPath id="clip3_645_1830">
<rect width="82.2091" height="82.2091" fill="white" transform="translate(1106.78 199.232) rotate(-34.5434)"/>
</clipPath>
<clipPath id="clip4_645_1830">
<rect width="82.2091" height="82.2091" fill="white" transform="translate(321.279 55.5078) rotate(-42.4698)"/>
</clipPath>
<clipPath id="clip5_645_1830">
<rect width="82.2091" height="82.2091" fill="white" transform="translate(888.102 782.816) rotate(29.1964)"/>
</clipPath>
</defs>
</svg>
