<svg width="93" height="39" viewBox="0 0 93 39" fill="none" xmlns="http://www.w3.org/2000/svg">
<path d="M82.8478 27.8567C82.0417 27.8567 81.4175 27.6486 80.9755 27.2325C80.5594 26.7904 80.3513 26.1663 80.3513 25.3601V10.615C80.3513 9.80886 80.5594 9.19773 80.9755 8.78164C81.3915 8.36556 81.9767 8.15751 82.7308 8.15751C83.485 8.15751 84.0701 8.36556 84.4862 8.78164C84.9023 9.19773 85.1103 9.80886 85.1103 10.615V13.0725H84.7202C85.0843 11.5122 85.7995 10.329 86.8657 9.5228C87.9319 8.71663 89.3492 8.23553 91.1176 8.07949C91.6637 8.02748 92.0928 8.17051 92.4049 8.50858C92.7429 8.82065 92.938 9.31476 92.99 9.9909C93.042 10.641 92.886 11.1741 92.5219 11.5902C92.1838 11.9803 91.6637 12.2144 90.9616 12.2924L90.1034 12.3704C88.517 12.5264 87.3208 13.0205 86.5146 13.8527C85.7084 14.6589 85.3054 15.8031 85.3054 17.2854V25.3601C85.3054 26.1663 85.0973 26.7904 84.6812 27.2325C84.2651 27.6486 83.654 27.8567 82.8478 27.8567Z" fill="white"/>
<path d="M51.2588 27.9345C49.5685 27.9345 48.1512 27.6485 47.0069 27.0764C45.8887 26.5042 45.0565 25.6721 44.5104 24.5798C43.9643 23.4616 43.6912 22.0833 43.6912 20.4449V12.1362H41.6628C41.0387 12.1362 40.5576 11.9802 40.2195 11.6681C39.8814 11.33 39.7124 10.8749 39.7124 10.3028C39.7124 9.70468 39.8814 9.24959 40.2195 8.93752C40.5576 8.62546 41.0387 8.46942 41.6628 8.46942H43.6912V4.91967C43.6912 4.11351 43.8993 3.50238 44.3154 3.08629C44.7575 2.6702 45.3686 2.46216 46.1488 2.46216C46.9289 2.46216 47.527 2.6702 47.9431 3.08629C48.3592 3.50238 48.5673 4.11351 48.5673 4.91967V8.46942H52.7021C53.3263 8.46942 53.8074 8.62546 54.1454 8.93752C54.4835 9.24959 54.6526 9.70468 54.6526 10.3028C54.6526 10.8749 54.4835 11.33 54.1454 11.6681C53.8074 11.9802 53.3263 12.1362 52.7021 12.1362H48.5673V20.1719C48.5673 21.4202 48.8403 22.3564 49.3864 22.9805C49.9326 23.6046 50.8167 23.9167 52.039 23.9167C52.4811 23.9167 52.8712 23.8777 53.2093 23.7997C53.5473 23.7216 53.8464 23.6696 54.1064 23.6436C54.4185 23.6176 54.6786 23.7216 54.8866 23.9557C55.0946 24.1637 55.1987 24.6058 55.1987 25.282C55.1987 25.8021 55.1076 26.2702 54.9256 26.6863C54.7696 27.0764 54.4705 27.3494 54.0284 27.5054C53.6903 27.6095 53.2483 27.7005 52.7021 27.7785C52.156 27.8825 51.6749 27.9345 51.2588 27.9345Z" fill="white"/>
<path d="M26.8359 27.9346C25.2496 27.9346 23.9363 27.6486 22.8961 27.0765C21.8559 26.4783 21.0757 25.5941 20.5556 24.4239C20.0615 23.2537 19.8145 21.7973 19.8145 20.055V10.615C19.8145 9.78281 20.0225 9.17168 20.4386 8.7816C20.8547 8.36551 21.4528 8.15747 22.233 8.15747C23.0131 8.15747 23.6113 8.36551 24.0273 8.7816C24.4694 9.17168 24.6905 9.78281 24.6905 10.615V20.133C24.6905 21.4853 24.9635 22.4865 25.5097 23.1366C26.0558 23.7868 26.927 24.1118 28.1232 24.1118C29.4235 24.1118 30.4897 23.6697 31.3219 22.7856C32.1541 21.8754 32.5701 20.6791 32.5701 19.1968V10.615C32.5701 9.78281 32.7782 9.17168 33.1943 8.7816C33.6104 8.36551 34.2085 8.15747 34.9887 8.15747C35.7688 8.15747 36.3669 8.36551 36.783 8.7816C37.2251 9.17168 37.4462 9.78281 37.4462 10.615V25.3601C37.4462 27.0245 36.653 27.8566 35.0667 27.8566C34.3125 27.8566 33.7274 27.6486 33.3113 27.2325C32.8952 26.7904 32.6872 26.1663 32.6872 25.3601V22.3955L33.2333 23.5657C32.6872 24.97 31.855 26.0492 30.7368 26.8034C29.6445 27.5576 28.3443 27.9346 26.8359 27.9346Z" fill="white"/>
<path d="M12.2486 27.8566C11.4424 27.8566 10.8183 27.6355 10.3762 27.1934C9.9601 26.7253 9.75206 26.0882 9.75206 25.282V4.21758H2.14545C1.46931 4.21758 0.936197 4.03554 0.546115 3.67147C0.182038 3.28138 0 2.76128 0 2.11114C0 1.435 0.182038 0.927888 0.546115 0.589816C0.936197 0.225739 1.46931 0.0437012 2.14545 0.0437012H22.3517C23.0279 0.0437012 23.548 0.225739 23.912 0.589816C24.3021 0.927888 24.4972 1.435 24.4972 2.11114C24.4972 2.76128 24.3021 3.28138 23.912 3.67147C23.548 4.03554 23.0279 4.21758 22.3517 4.21758H14.7451V25.282C14.7451 26.0882 14.5371 26.7253 14.121 27.1934C13.7049 27.6355 13.0808 27.8566 12.2486 27.8566Z" fill="white"/>
<path d="M66.0904 12.8236C64.8611 12.7912 63.7241 13.157 63.093 13.7119C63.0232 13.7731 62.9422 13.8199 62.8543 13.8498C62.7665 13.8796 62.6737 13.8919 62.5811 13.8859C62.4885 13.8798 62.3981 13.8556 62.3148 13.8146C62.2316 13.7736 62.1573 13.7166 62.0961 13.6469C62.035 13.5772 61.9881 13.4961 61.9583 13.4083C61.9284 13.3204 61.9162 13.2276 61.9222 13.135C61.9282 13.0424 61.9524 12.952 61.9934 12.8688C62.0345 12.7856 62.0914 12.7112 62.1612 12.6501C63.1345 11.7953 64.6566 11.3732 66.1268 11.4112C67.6069 11.4499 69.1925 11.9583 70.2482 13.1605C70.3718 13.3013 70.4344 13.4855 70.4222 13.6724C70.41 13.8593 70.324 14.0338 70.1832 14.1573C70.0424 14.2809 69.8583 14.3435 69.6713 14.3313C69.4844 14.3191 69.31 14.2331 69.1864 14.0923C68.4681 13.2736 67.3106 12.8546 66.0904 12.8229" fill="#FCC71B"/>
<path d="M66.6117 7.53261C71.9469 7.8787 75.991 12.4836 75.6455 17.8187L75.609 18.2449C75.4256 19.9432 74.795 21.5571 73.7886 22.925L74.1246 22.889L74.3818 22.8617L74.5532 23.0558L79.8351 29.0705L75.9737 32.4614L70.6918 26.4467L70.5215 26.2517L70.5818 26.0002L70.661 25.6697C69.0963 26.5345 67.2745 26.9776 65.3584 26.8533C60.0229 26.5071 55.9786 21.9018 56.3247 16.5663C56.6709 11.2309 61.2763 7.18659 66.6117 7.53261ZM66.4098 10.6452C62.7933 10.4107 59.672 13.1517 59.4373 16.7682C59.2027 20.3849 61.9436 23.507 65.5603 23.7417C69.177 23.9763 72.2992 21.2345 72.5338 17.6178C72.7683 14.0012 70.0265 10.8798 66.4098 10.6452Z" fill="#FCC71B" stroke="#FCC71B"/>
<path d="M80.4374 29.7563L81.3304 30.7743L81.4508 30.9249C81.9667 31.6489 81.902 32.6412 81.2963 33.292L81.1584 33.4259L80.1217 34.3363C79.3417 35.0212 78.1536 34.9447 77.4691 34.1642L77.4691 34.1632L76.576 33.1472L76.2461 32.7716L80.1075 29.3806L80.4374 29.7563Z" fill="#FCC71B" stroke="#FCC71B"/>
</svg>
