<svg width="328" height="328" viewBox="0 0 328 328" fill="none" xmlns="http://www.w3.org/2000/svg">
<path d="M59.5123 245.6C114.478 274.313 203.59 274.313 258.549 245.6C313.509 216.887 313.515 170.33 258.549 141.617C203.583 112.904 114.472 112.904 59.5123 141.617C4.55258 170.33 4.54602 216.887 59.5123 245.6Z" fill="#FAFAFA"/>
<path d="M191.44 206.725C178.511 214.184 178.511 226.287 191.44 233.753C204.37 241.218 225.323 241.218 238.253 233.753C251.182 226.287 251.176 214.184 238.253 206.725C225.329 199.267 204.364 199.26 191.44 206.725Z" fill="#EBEBEB"/>
<path d="M55.3074 99.7315L89.9442 88.96L63.2975 107.42L55.3074 99.7315Z" fill="#395D7F"/>
<path d="M89.944 88.9601L52.6373 95.1133L44.6472 87.4185L89.944 88.9601Z" fill="#395D7F"/>
<path d="M52.6375 95.1132V104.343L55.3074 99.7315L89.9442 88.96L52.6375 95.1132Z" fill="#FCC71B"/>
<path d="M52.6375 104.343L57.9707 102.296L55.3074 99.7314L52.6375 104.343Z" fill="#395D7F"/>
<path d="M55.3074 99.7314L57.9707 102.296L57.1179 102.618L55.3074 99.7314Z" fill="#455A64"/>
<path d="M46.8974 102.953C46.7871 102.955 46.6793 102.92 46.5914 102.853C46.5034 102.787 46.4404 102.692 46.4124 102.586C46.3844 102.479 46.393 102.366 46.437 102.265C46.4809 102.164 46.5576 102.08 46.6547 102.028C47.2451 101.7 47.8421 101.372 48.4325 101.116C48.491 101.084 48.5554 101.065 48.6217 101.059C48.688 101.053 48.7548 101.06 48.8181 101.081C48.8814 101.101 48.9399 101.134 48.9901 101.178C49.0402 101.222 49.081 101.275 49.1099 101.335C49.1387 101.395 49.1551 101.46 49.1581 101.527C49.161 101.593 49.1505 101.66 49.127 101.722C49.1035 101.784 49.0677 101.841 49.0216 101.889C48.9755 101.937 48.9201 101.975 48.8589 102.002C48.2882 102.277 47.7043 102.572 47.1336 102.894C47.0606 102.932 46.9797 102.952 46.8974 102.953Z" fill="#E0E0E0"/>
<path d="M40.8425 155.931C40.742 155.932 40.6435 155.902 40.5604 155.846C39.4936 155.094 38.4828 154.265 37.5363 153.366C37.4763 153.327 37.4255 153.276 37.3875 153.215C37.3495 153.155 37.3251 153.086 37.3161 153.015C37.3071 152.945 37.3136 152.872 37.3353 152.804C37.357 152.736 37.3933 152.674 37.4416 152.621C37.49 152.568 37.5492 152.527 37.6152 152.499C37.6813 152.472 37.7525 152.459 37.824 152.462C37.8954 152.465 37.9654 152.483 38.029 152.516C38.0926 152.549 38.1483 152.595 38.1923 152.651C39.1053 153.518 40.081 154.316 41.1115 155.039C41.1964 155.1 41.2598 155.186 41.2925 155.285C41.3252 155.384 41.3255 155.491 41.2934 155.591C41.2612 155.69 41.1983 155.776 41.1137 155.838C41.0291 155.899 40.9273 155.932 40.8228 155.931H40.8425ZM35.6995 151.155C35.6268 151.156 35.555 151.141 35.4891 151.11C35.4233 151.079 35.3651 151.034 35.319 150.978C34.4924 149.969 33.7404 148.902 33.0689 147.784C33.0011 147.671 32.9806 147.537 33.0119 147.409C33.0433 147.282 33.124 147.172 33.2362 147.105C33.3484 147.037 33.483 147.016 33.6103 147.048C33.7377 147.079 33.8473 147.16 33.9152 147.272C34.562 148.35 35.2854 149.381 36.08 150.355C36.1619 150.455 36.201 150.584 36.1887 150.713C36.1764 150.842 36.1138 150.961 36.0144 151.044C35.9265 151.118 35.8145 151.158 35.6995 151.155ZM32.0062 145.186C31.9109 145.187 31.8174 145.16 31.737 145.109C31.6567 145.057 31.5929 144.984 31.5536 144.897C31.0175 143.71 30.5574 142.489 30.176 141.243C30.148 141.122 30.1669 140.995 30.229 140.887C30.2911 140.779 30.3918 140.699 30.5107 140.662C30.6295 140.626 30.7579 140.636 30.8698 140.69C30.9818 140.744 31.069 140.839 31.114 140.955C31.4767 142.16 31.9149 143.341 32.426 144.49C32.4535 144.549 32.4691 144.613 32.4717 144.678C32.4744 144.743 32.4641 144.808 32.4416 144.869C32.419 144.93 32.3845 144.986 32.3402 145.034C32.2959 145.081 32.2426 145.12 32.1833 145.146C32.1275 145.171 32.0673 145.185 32.0062 145.186ZM29.8742 138.488C29.7604 138.487 29.6505 138.447 29.5632 138.374C29.4759 138.301 29.4166 138.2 29.3953 138.088C29.1449 136.813 28.9675 135.525 28.864 134.231C28.8535 134.1 28.8953 133.971 28.9802 133.871C29.0651 133.772 29.1861 133.71 29.3166 133.699C29.4471 133.689 29.5764 133.731 29.676 133.816C29.7757 133.9 29.8375 134.021 29.848 134.152C29.9445 135.409 30.1153 136.66 30.3596 137.898C30.373 137.961 30.3735 138.026 30.3611 138.09C30.3488 138.154 30.3239 138.214 30.2878 138.268C30.2517 138.322 30.2053 138.368 30.1511 138.403C30.097 138.439 30.0363 138.463 29.9726 138.475L29.8742 138.488ZM29.251 131.482C29.1861 131.482 29.1219 131.469 29.0621 131.444C29.0024 131.419 28.9483 131.382 28.903 131.335C28.8578 131.289 28.8223 131.234 28.7987 131.173C28.7751 131.113 28.7638 131.048 28.7656 130.983C28.7809 129.685 28.8685 128.389 29.028 127.1C29.0287 127.031 29.044 126.962 29.0729 126.9C29.1019 126.837 29.1437 126.781 29.1957 126.735C29.2477 126.69 29.3088 126.655 29.3749 126.635C29.441 126.615 29.5107 126.608 29.5793 126.617C29.648 126.625 29.7141 126.648 29.7734 126.684C29.8327 126.719 29.8838 126.767 29.9234 126.824C29.963 126.88 29.9902 126.945 30.0032 127.013C30.0162 127.081 30.0147 127.151 29.9988 127.218C29.8472 128.472 29.7639 129.733 29.7496 130.997C29.7487 131.061 29.7351 131.125 29.7096 131.184C29.6841 131.244 29.6471 131.297 29.6008 131.343C29.5545 131.388 29.4998 131.423 29.4398 131.447C29.3798 131.471 29.3156 131.483 29.251 131.482ZM30.0513 124.496C30.0144 124.502 29.9767 124.502 29.9398 124.496C29.813 124.467 29.7026 124.39 29.6325 124.281C29.5625 124.171 29.5385 124.039 29.5659 123.912C29.8533 122.641 30.2214 121.39 30.668 120.166C30.6897 120.102 30.7243 120.043 30.7697 119.993C30.8151 119.944 30.8703 119.904 30.9318 119.876C30.9933 119.848 31.0599 119.833 31.1274 119.833C31.1948 119.832 31.2617 119.845 31.324 119.871C31.3873 119.893 31.4453 119.928 31.4947 119.974C31.5441 120.02 31.5838 120.075 31.6114 120.136C31.6389 120.197 31.6538 120.263 31.6552 120.331C31.6565 120.398 31.6443 120.464 31.6192 120.527C31.1887 121.71 30.8338 122.92 30.5564 124.148C30.524 124.254 30.4564 124.347 30.3647 124.41C30.2729 124.473 30.1624 124.503 30.0513 124.496ZM32.3867 117.87C32.311 117.873 32.2361 117.855 32.1702 117.818C32.1115 117.79 32.0589 117.751 32.0154 117.703C31.9719 117.655 31.9385 117.599 31.9171 117.538C31.8957 117.477 31.8868 117.412 31.8908 117.347C31.8949 117.283 31.9118 117.22 31.9406 117.162C32.5132 115.992 33.1573 114.86 33.8692 113.77C33.9409 113.668 34.0484 113.598 34.1701 113.572C34.2919 113.547 34.4187 113.568 34.5252 113.632C34.6292 113.702 34.7023 113.809 34.7292 113.931C34.7561 114.053 34.7347 114.181 34.6696 114.288C33.9775 115.341 33.3531 116.436 32.8 117.568C32.766 117.652 32.7093 117.725 32.6363 117.778C32.5633 117.831 32.4768 117.863 32.3867 117.87ZM36.1587 111.966C36.049 111.967 35.9423 111.93 35.8569 111.861C35.8058 111.821 35.7631 111.771 35.7314 111.714C35.6998 111.657 35.6797 111.594 35.6724 111.53C35.665 111.465 35.6706 111.4 35.6888 111.337C35.707 111.275 35.7374 111.216 35.7782 111.166C36.598 110.153 37.474 109.187 38.4022 108.273C38.4944 108.181 38.6195 108.129 38.7499 108.129C38.8803 108.129 39.0053 108.181 39.0976 108.273C39.1897 108.365 39.2414 108.49 39.2414 108.62C39.2414 108.751 39.1897 108.876 39.0976 108.968C38.2036 109.86 37.3583 110.799 36.5654 111.782C36.5146 111.838 36.4513 111.882 36.3807 111.909C36.3101 111.937 36.2341 111.947 36.1587 111.94V111.966ZM41.0918 106.928C41.0203 106.928 40.9497 106.912 40.885 106.881C40.8204 106.851 40.7633 106.806 40.7179 106.751C40.6348 106.65 40.5944 106.521 40.6055 106.391C40.6165 106.261 40.6781 106.141 40.7769 106.055C41.7756 105.225 42.8156 104.446 43.8929 103.72C43.9987 103.655 44.125 103.633 44.2467 103.657C44.3683 103.681 44.4763 103.751 44.5489 103.851C44.6221 103.96 44.6494 104.094 44.6249 104.223C44.6003 104.352 44.5259 104.466 44.4177 104.54C43.3666 105.246 42.3528 106.006 41.3804 106.816C41.298 106.882 41.1972 106.921 41.0918 106.928Z" fill="#E0E0E0"/>
<path d="M45.3557 158.496C45.2853 158.497 45.2157 158.481 45.1523 158.45C44.5422 158.175 43.9387 157.879 43.3614 157.565C43.305 157.535 43.255 157.494 43.2142 157.445C43.1734 157.396 43.1427 157.34 43.1238 157.279C43.1049 157.218 43.0982 157.154 43.1041 157.09C43.11 157.027 43.1283 156.965 43.1581 156.909C43.2193 156.796 43.3222 156.711 43.4447 156.673C43.5673 156.635 43.6998 156.647 43.8141 156.705C44.3782 157.007 44.9621 157.296 45.5525 157.565C45.6537 157.612 45.7359 157.692 45.7856 157.792C45.8353 157.892 45.8495 158.006 45.8258 158.115C45.8021 158.224 45.7421 158.322 45.6554 158.392C45.5688 158.463 45.4608 158.502 45.3491 158.503L45.3557 158.496Z" fill="#E0E0E0"/>
<path d="M269.741 134.69L297.49 116.925L309.711 120.848L269.741 134.69Z" fill="#395D7F"/>
<path d="M269.741 134.69L293.724 114.695L288.391 108.542L269.741 134.69Z" fill="#395D7F"/>
<path d="M293.724 114.695V119.333L269.741 134.69L293.724 114.695Z" fill="#FCC71B"/>
<path d="M299.136 112.76C299.017 112.76 298.902 112.716 298.815 112.635C298.718 112.548 298.659 112.427 298.65 112.297C298.641 112.167 298.684 112.039 298.769 111.94C299.623 110.987 300.381 109.952 301.032 108.85C301.098 108.737 301.206 108.655 301.333 108.622C301.46 108.588 301.595 108.607 301.708 108.673C301.821 108.739 301.903 108.847 301.936 108.974C301.969 109.101 301.951 109.236 301.885 109.349C301.198 110.504 300.403 111.591 299.51 112.596C299.463 112.648 299.405 112.69 299.341 112.718C299.276 112.747 299.207 112.761 299.136 112.76ZM302.888 106.646C302.83 106.655 302.77 106.655 302.711 106.646C302.649 106.622 302.592 106.586 302.545 106.54C302.497 106.494 302.459 106.438 302.433 106.377C302.407 106.316 302.394 106.25 302.395 106.183C302.395 106.117 302.409 106.051 302.436 105.99C302.899 104.795 303.246 103.558 303.472 102.297C303.496 102.168 303.569 102.054 303.677 101.979C303.785 101.905 303.917 101.876 304.046 101.9C304.175 101.923 304.289 101.997 304.364 102.105C304.438 102.212 304.467 102.345 304.443 102.474C304.201 103.796 303.835 105.092 303.348 106.344C303.311 106.435 303.247 106.512 303.165 106.566C303.083 106.62 302.986 106.648 302.888 106.646ZM304.292 99.607C304.228 99.6062 304.164 99.5926 304.105 99.567C304.046 99.5414 303.993 99.5043 303.949 99.4579C303.904 99.4115 303.869 99.3567 303.846 99.2968C303.823 99.2368 303.812 99.1728 303.813 99.1085C303.813 98.9379 303.813 98.7674 303.813 98.5968C303.811 97.4831 303.723 96.3712 303.551 95.2709C303.532 95.1414 303.565 95.0097 303.642 94.9042C303.719 94.7986 303.835 94.7277 303.964 94.7067C304.093 94.6895 304.224 94.7229 304.329 94.7999C304.435 94.877 304.506 94.9916 304.528 95.12C304.706 96.2705 304.796 97.4327 304.797 98.5968C304.797 98.7739 304.797 98.951 304.797 99.1282C304.792 99.2581 304.737 99.3809 304.642 99.4703C304.548 99.5598 304.422 99.6088 304.292 99.607ZM303.302 92.496C303.196 92.4956 303.093 92.4609 303.009 92.3969C302.925 92.333 302.864 92.2434 302.836 92.1418C302.46 90.9109 301.988 89.7112 301.425 88.5534C301.397 88.4954 301.38 88.4322 301.376 88.3676C301.372 88.303 301.381 88.2382 301.402 88.177C301.423 88.1159 301.457 88.0597 301.5 88.0117C301.544 87.9636 301.596 87.9248 301.655 87.8974C301.773 87.841 301.908 87.8335 302.031 87.8766C302.154 87.9196 302.254 88.0097 302.311 88.127C302.898 89.3301 303.387 90.5783 303.774 91.8597C303.793 91.9213 303.8 91.986 303.794 92.0502C303.787 92.1144 303.768 92.1767 303.738 92.2335C303.707 92.2903 303.666 92.3405 303.616 92.381C303.566 92.4216 303.508 92.4517 303.446 92.4698C303.4 92.4879 303.351 92.4969 303.302 92.496ZM300.258 85.9819C300.175 85.9827 300.093 85.9619 300.021 85.9217C299.948 85.8814 299.888 85.8231 299.845 85.7523C299.141 84.6727 298.368 83.6406 297.529 82.6626C297.487 82.6135 297.454 82.5566 297.434 82.4951C297.414 82.4335 297.406 82.3686 297.411 82.304C297.416 82.2394 297.433 82.1763 297.462 82.1186C297.492 82.0608 297.532 82.0093 297.581 81.9672C297.63 81.925 297.686 81.8929 297.747 81.8727C297.808 81.8525 297.873 81.8446 297.937 81.8495C298.001 81.8544 298.063 81.872 298.12 81.9012C298.178 81.9304 298.229 81.9707 298.27 82.0197C299.141 83.032 299.943 84.1015 300.671 85.221C300.732 85.329 300.75 85.4555 300.724 85.5764C300.697 85.6974 300.627 85.8043 300.527 85.877C300.448 85.9347 300.355 85.9688 300.258 85.9754V85.9819ZM295.666 80.465C295.541 80.4646 295.42 80.4151 295.331 80.3272C294.387 79.4431 293.395 78.6109 292.36 77.8344C292.308 77.7956 292.264 77.7471 292.231 77.6915C292.199 77.6359 292.177 77.5743 292.168 77.5104C292.159 77.4464 292.162 77.3813 292.178 77.3187C292.194 77.2561 292.222 77.1973 292.261 77.1456C292.3 77.0939 292.349 77.0504 292.404 77.0174C292.46 76.9845 292.521 76.9629 292.585 76.9537C292.649 76.9446 292.714 76.9482 292.777 76.9642C292.839 76.9802 292.898 77.0084 292.95 77.0472C294.016 77.8442 295.037 78.7005 296.007 79.6122C296.08 79.6798 296.131 79.7679 296.152 79.8649C296.174 79.962 296.166 80.0634 296.129 80.1557C296.092 80.2481 296.028 80.3271 295.946 80.3823C295.863 80.4375 295.765 80.4663 295.666 80.465ZM289.913 76.096C289.82 76.0951 289.729 76.0678 289.65 76.0173C289.204 75.7418 288.738 75.4662 288.266 75.1973C287.61 74.8299 286.954 74.4626 286.259 74.1149C286.195 74.0894 286.138 74.051 286.09 74.0021C286.042 73.9532 286.005 73.8948 285.981 73.8308C285.957 73.7668 285.947 73.6984 285.951 73.6301C285.955 73.5619 285.973 73.4951 286.004 73.4342C286.035 73.3733 286.078 73.3196 286.132 73.2765C286.185 73.2333 286.246 73.2017 286.312 73.1837C286.378 73.1656 286.447 73.1615 286.515 73.1716C286.582 73.1817 286.647 73.2058 286.705 73.2424C287.394 73.5966 288.082 73.964 288.752 74.3445C289.237 74.6134 289.709 74.8955 290.169 75.1842C290.275 75.2518 290.351 75.3575 290.381 75.4795C290.412 75.6015 290.394 75.7306 290.333 75.8402C290.29 75.915 290.229 75.9778 290.156 76.0226C290.082 76.0674 289.999 76.0926 289.913 76.096ZM231.102 75.7614C231.016 75.7605 230.931 75.737 230.856 75.6933C230.781 75.6496 230.719 75.5872 230.676 75.5122C230.614 75.4014 230.597 75.2706 230.631 75.148C230.664 75.0254 230.744 74.9206 230.853 74.8562C231.994 74.2002 233.169 73.5442 234.356 72.9931C234.473 72.9363 234.607 72.9278 234.73 72.9696C234.853 73.0113 234.954 73.1 235.012 73.2162C235.067 73.3339 235.073 73.4683 235.03 73.5908C234.988 73.7133 234.899 73.8142 234.782 73.8722C233.615 74.4429 232.46 75.053 231.338 75.7024C231.265 75.7381 231.184 75.754 231.102 75.7483V75.7614ZM283.517 72.7635C283.448 72.7639 283.381 72.7482 283.32 72.7176C282.139 72.1994 280.919 71.7139 279.699 71.281C279.575 71.2366 279.474 71.145 279.418 71.0263C279.362 70.9075 279.356 70.7714 279.4 70.6479C279.445 70.5244 279.536 70.4235 279.655 70.3676C279.774 70.3116 279.91 70.3051 280.033 70.3494C281.273 70.7955 282.513 71.2875 283.72 71.8189C283.825 71.8636 283.912 71.9436 283.964 72.0452C284.017 72.1467 284.033 72.2634 284.009 72.3752C283.984 72.487 283.922 72.5869 283.832 72.6578C283.743 72.7286 283.631 72.766 283.517 72.7635ZM237.564 72.5602C237.467 72.5608 237.372 72.5324 237.291 72.4786C237.211 72.4249 237.148 72.3481 237.111 72.2584C237.084 72.1982 237.07 72.1333 237.069 72.0674C237.067 72.0015 237.079 71.936 237.104 71.8749C237.128 71.8137 237.165 71.758 237.211 71.7112C237.257 71.6644 237.313 71.6274 237.374 71.6024C238.587 71.0907 239.834 70.6184 241.08 70.192C241.143 70.166 241.21 70.1533 241.278 70.1546C241.346 70.1559 241.412 70.1712 241.474 70.1996C241.536 70.2279 241.591 70.2686 241.636 70.3193C241.681 70.3699 241.715 70.4293 241.736 70.4938C241.76 70.557 241.771 70.6244 241.768 70.6919C241.766 70.7595 241.749 70.8258 241.721 70.887C241.692 70.9481 241.651 71.0029 241.601 71.048C241.551 71.0932 241.492 71.1278 241.428 71.1498C240.201 71.5696 238.968 72.0354 237.78 72.5339C237.71 72.5535 237.636 72.558 237.564 72.547V72.5602ZM276.747 70.2904C276.701 70.2968 276.655 70.2968 276.609 70.2904C275.369 69.9296 274.097 69.6344 272.83 69.3261C272.767 69.3123 272.707 69.2862 272.654 69.2492C272.601 69.2122 272.555 69.1652 272.52 69.1106C272.485 69.0561 272.461 68.9952 272.45 68.9315C272.438 68.8677 272.439 68.8023 272.453 68.739C272.467 68.6756 272.493 68.6157 272.53 68.5624C272.567 68.5092 272.614 68.4638 272.669 68.4288C272.723 68.3937 272.784 68.3698 272.848 68.3583C272.912 68.3468 272.977 68.348 273.04 68.3618C274.352 68.6438 275.625 68.9784 276.885 69.3458C276.998 69.3789 277.096 69.452 277.16 69.5515C277.224 69.6511 277.251 69.7704 277.234 69.8877C277.217 70.0049 277.159 70.1122 277.069 70.1898C276.98 70.2674 276.865 70.3101 276.747 70.3101V70.2904ZM244.373 70.192C244.266 70.1916 244.162 70.1561 244.076 70.091C243.991 70.0258 243.929 69.9346 243.901 69.8312C243.883 69.7696 243.877 69.705 243.884 69.6413C243.891 69.5775 243.911 69.5158 243.942 69.4596C243.973 69.4035 244.015 69.3541 244.066 69.3143C244.116 69.2745 244.174 69.245 244.235 69.2277C245.502 68.8734 246.8 68.5717 248.093 68.283C248.158 68.2621 248.227 68.2552 248.296 68.2626C248.364 68.2701 248.43 68.2918 248.489 68.3263C248.549 68.3609 248.6 68.4075 248.641 68.4631C248.681 68.5188 248.709 68.5823 248.724 68.6496C248.738 68.7168 248.738 68.7863 248.724 68.8535C248.709 68.9208 248.681 68.9843 248.641 69.04C248.601 69.0957 248.549 69.1424 248.49 69.177C248.43 69.2115 248.364 69.2333 248.296 69.2408C247.023 69.5098 245.751 69.8246 244.504 70.1723L244.373 70.192ZM269.714 68.7094H269.616C268.337 68.5061 267.031 68.3421 265.746 68.224C265.678 68.2233 265.611 68.2085 265.549 68.1807C265.487 68.1529 265.432 68.1127 265.387 68.0625C265.341 68.0123 265.306 67.9532 265.285 67.889C265.263 67.8248 265.255 67.7568 265.261 67.6893C265.267 67.6218 265.287 67.5562 265.319 67.4967C265.351 67.4372 265.396 67.385 265.449 67.3434C265.503 67.3019 265.564 67.2718 265.63 67.2551C265.696 67.2385 265.764 67.2356 265.831 67.2466C267.143 67.3646 268.455 67.5286 269.767 67.7386C269.895 67.7611 270.009 67.8326 270.085 67.938C270.161 68.0434 270.193 68.1742 270.174 68.3027C270.151 68.4089 270.093 68.5044 270.01 68.5744C269.927 68.6444 269.823 68.685 269.714 68.6898V68.7094ZM251.419 68.6635C251.302 68.6635 251.189 68.6219 251.1 68.5461C251.011 68.4704 250.952 68.3655 250.933 68.2502C250.914 68.1208 250.947 67.9891 251.024 67.8835C251.102 67.778 251.217 67.7071 251.346 67.6861C252.658 67.4893 253.97 67.3253 255.282 67.2138C255.347 67.2082 255.412 67.2153 255.474 67.2349C255.536 67.2544 255.593 67.286 255.643 67.3277C255.692 67.3694 255.733 67.4205 255.763 67.4781C255.793 67.5356 255.812 67.5985 255.817 67.6631C255.823 67.7277 255.816 67.7928 255.796 67.8546C255.776 67.9165 255.745 67.9739 255.703 68.0235C255.661 68.0731 255.61 68.1141 255.553 68.144C255.495 68.1739 255.432 68.1922 255.368 68.1978C254.056 68.3093 252.777 68.4602 251.497 68.6635H251.419ZM262.538 68.0075C261.226 67.9616 259.914 67.955 258.635 68.0075C258.57 68.0111 258.506 68.0015 258.445 67.9795C258.384 67.9574 258.328 67.9233 258.281 67.8791C258.234 67.835 258.196 67.7818 258.17 67.7227C258.144 67.6636 258.13 67.5998 258.129 67.5352C258.127 67.4704 258.137 67.4056 258.16 67.3449C258.183 67.2841 258.218 67.2286 258.262 67.1815C258.307 67.1344 258.361 67.0967 258.42 67.0707C258.479 67.0447 258.543 67.0309 258.608 67.0301C259.92 66.9842 261.232 66.9907 262.544 67.0301C262.609 67.0318 262.673 67.0462 262.732 67.0725C262.791 67.0988 262.844 67.1365 262.888 67.1834C262.933 67.2303 262.968 67.2855 262.991 67.3459C263.014 67.4062 263.025 67.4706 263.023 67.5352C263.014 67.6582 262.959 67.7733 262.869 67.8582C262.779 67.943 262.661 67.9915 262.538 67.9944V68.0075Z" fill="#E0E0E0"/>
<path d="M260.065 144.281V143.231H259.809C259.419 142.521 258.828 141.941 258.11 141.565C256.644 140.821 255.024 140.434 253.38 140.434C251.736 140.434 250.116 140.821 248.65 141.565C247.932 141.941 247.341 142.521 246.951 143.231H246.695V144.248C246.695 145.252 247.351 146.262 248.663 147.03C250.13 147.77 251.75 148.156 253.393 148.156C255.036 148.156 256.656 147.77 258.123 147.03C259.422 146.288 260.071 145.278 260.065 144.281Z" fill="#37474F"/>
<path d="M253.38 147.095C257.072 147.095 260.065 145.365 260.065 143.232C260.065 141.098 257.072 139.368 253.38 139.368C249.688 139.368 246.695 141.098 246.695 143.232C246.695 145.365 249.688 147.095 253.38 147.095Z" fill="#455A64"/>
<path d="M251.661 111.061V142.779C251.675 142.929 251.729 143.073 251.816 143.197C251.904 143.32 252.022 143.418 252.16 143.481C252.537 143.671 252.954 143.771 253.377 143.771C253.799 143.771 254.216 143.671 254.593 143.481C254.733 143.419 254.853 143.322 254.942 143.198C255.03 143.075 255.085 142.93 255.099 142.779V111.061H251.661Z" fill="#37474F"/>
<path d="M261.088 87.3204C259.415 86.3561 257.893 86.2774 256.752 86.9137L235.504 99.194L246.164 120.573L267.484 108.24V98.8857C267.484 94.5364 264.617 89.3606 261.088 87.3204Z" fill="#455A64"/>
<path d="M246.164 111.212V120.573L233.378 113.186V103.832C233.378 99.4824 236.239 97.6128 239.768 99.653C242.031 100.965 244.019 103.55 245.154 106.384C245.789 107.916 246.131 109.553 246.164 111.212Z" fill="#37474F"/>
<path d="M246.164 111.212V120.573L233.378 113.187L245.154 106.384C245.789 107.916 246.131 109.554 246.164 111.212Z" fill="#263238"/>
<path d="M244.032 114.42C242.858 111.022 239.04 106.613 235.504 104.58C231.968 102.546 230.066 103.642 231.24 107.04L233.372 113.193L246.164 120.58C246.164 120.58 245.213 117.818 244.032 114.42Z" fill="#455A64"/>
<path d="M252.829 111.566L252.114 111.153C251.96 111.082 251.791 111.054 251.623 111.07C251.454 111.086 251.293 111.146 251.156 111.245C250.761 111.503 250.432 111.851 250.196 112.26C249.96 112.669 249.824 113.128 249.798 113.6C249.78 113.769 249.808 113.939 249.878 114.094C249.949 114.248 250.059 114.381 250.198 114.479L250.854 114.859L250.979 114.656C251.115 114.627 251.246 114.576 251.366 114.505C251.761 114.248 252.09 113.901 252.326 113.493C252.562 113.085 252.698 112.627 252.724 112.157C252.723 112.039 252.708 111.922 252.678 111.809L252.829 111.566Z" fill="#263238"/>
<path d="M251.838 111.645C251.443 111.902 251.115 112.249 250.879 112.657C250.643 113.065 250.506 113.523 250.48 113.994C250.48 114.86 251.091 115.207 251.838 114.774C252.234 114.517 252.563 114.171 252.799 113.763C253.035 113.355 253.171 112.897 253.196 112.426C253.216 111.56 252.56 111.212 251.838 111.645Z" fill="#37474F"/>
<path d="M251.838 113.58C251.787 113.58 251.736 113.57 251.688 113.55C251.64 113.531 251.597 113.502 251.56 113.465C251.524 113.428 251.495 113.385 251.475 113.337C251.455 113.29 251.445 113.238 251.445 113.187V99.6534C251.445 99.549 251.486 99.4489 251.56 99.375C251.634 99.3012 251.734 99.2598 251.838 99.2598C251.943 99.2598 252.043 99.3012 252.117 99.375C252.191 99.4489 252.232 99.549 252.232 99.6534V113.187C252.232 113.291 252.191 113.391 252.117 113.465C252.043 113.539 251.943 113.58 251.838 113.58Z" fill="#263238"/>
<path d="M252.193 100.008V103.537L255.978 99.6533L252.193 100.008Z" fill="#37474F"/>
<path d="M53.1884 217.077C52.8604 217.254 46.8383 218.96 44.6079 216.014C42.3775 213.069 46.0839 208.477 43.9913 206.784C41.8987 205.092 36.034 206.784 34.6236 203.229C33.2132 199.673 37.3919 198.138 35.0435 194.55C33.5609 192.287 29.415 191.04 29.6052 188.935C29.8807 185.858 35.5486 184.999 40.4948 188.324C45.4411 191.65 47.7502 188.921 49.318 188.698C50.8859 188.475 54.2708 188.967 54.1659 194.478C54.0609 199.988 53.1884 217.077 53.1884 217.077Z" fill="#395D7F"/>
<path d="M53.5885 209.264C53.5102 209.264 53.4345 209.236 53.3746 209.186C53.3147 209.135 53.2743 209.066 53.2605 208.989C51.5352 198.493 39.3795 190.01 33.0557 188.187C33.0139 188.176 32.9747 188.156 32.9407 188.129C32.9066 188.102 32.8783 188.069 32.8575 188.031C32.8366 187.993 32.8237 187.951 32.8194 187.908C32.8152 187.865 32.8197 187.821 32.8327 187.78C32.857 187.697 32.9135 187.626 32.9898 187.584C33.0661 187.543 33.1559 187.533 33.2394 187.557C39.701 189.427 52.1387 198.145 53.9099 208.884C53.9232 208.969 53.9025 209.056 53.8521 209.126C53.8018 209.196 53.7259 209.243 53.641 209.258L53.5885 209.264Z" fill="white"/>
<path d="M39.2484 200.48C39.1763 200.481 39.1059 200.458 39.0483 200.414C38.9906 200.371 38.9488 200.31 38.9293 200.24C38.9099 200.171 38.9139 200.097 38.9408 200.03C38.9677 199.963 39.0158 199.907 39.0779 199.87C39.2747 199.752 43.9585 197.016 48.5636 198.295C48.6506 198.318 48.7251 198.374 48.7706 198.452C48.8161 198.529 48.829 198.622 48.8064 198.709C48.7837 198.796 48.7275 198.87 48.65 198.916C48.5725 198.961 48.4801 198.974 48.3931 198.951C44.0504 197.744 39.4584 200.427 39.4124 200.454C39.3614 200.478 39.3045 200.487 39.2484 200.48Z" fill="white"/>
<path d="M224.68 161.651C227.265 162.006 231.666 160.51 231.981 156.207C232.296 151.903 234.074 150.736 237.334 150.034C240.595 149.332 241.552 148.197 241.926 146.15C242.3 144.103 239.821 141.657 240.516 138.573C241.211 135.49 243.533 135.497 245.816 132.013C247.279 129.77 244.281 126.346 239.289 127.815C234.297 129.284 234.697 132.505 229.705 132.919C224.713 133.332 221.584 136.363 221.485 140.135C221.387 143.907 224.68 161.651 224.68 161.651Z" fill="#395D7F"/>
<path opacity="0.2" d="M224.68 161.651C227.265 162.006 231.666 160.51 231.981 156.207C232.296 151.903 234.074 150.736 237.334 150.034C240.595 149.332 241.552 148.197 241.926 146.15C242.3 144.103 239.821 141.657 240.516 138.573C241.211 135.49 243.533 135.497 245.816 132.013C247.279 129.77 244.281 126.346 239.289 127.815C234.297 129.284 234.697 132.505 229.705 132.919C224.713 133.332 221.584 136.363 221.485 140.135C221.387 143.907 224.68 161.651 224.68 161.651Z" fill="black"/>
<path d="M223.735 153.399H223.696C223.654 153.39 223.614 153.374 223.578 153.35C223.542 153.325 223.512 153.295 223.488 153.259C223.464 153.223 223.448 153.182 223.44 153.14C223.431 153.098 223.432 153.054 223.44 153.012C225.854 141.079 239.02 130.157 242.228 129.042C242.315 129.013 242.41 129.02 242.492 129.061C242.574 129.103 242.636 129.175 242.664 129.262C242.693 129.349 242.686 129.443 242.645 129.525C242.604 129.607 242.532 129.669 242.445 129.698C239.309 130.787 226.445 141.506 224.077 153.176C224.052 153.246 224.006 153.305 223.944 153.346C223.882 153.386 223.809 153.405 223.735 153.399Z" fill="white"/>
<path d="M50.4333 149.168C50.4654 148.577 50.6366 148.001 50.9329 147.488C51.2293 146.975 51.6425 146.539 52.139 146.216L139.328 95.8748C139.856 95.6094 140.439 95.4712 141.03 95.4712C141.621 95.4712 142.204 95.6094 142.733 95.8748L144.655 96.99C145.152 97.312 145.566 97.7475 145.863 98.2607C146.159 98.7739 146.33 99.3501 146.36 99.942V166.775C146.327 167.366 146.155 167.941 145.859 168.454C145.562 168.967 145.15 169.403 144.655 169.727L57.4657 220.062C56.9372 220.331 56.3528 220.471 55.7601 220.471C55.1673 220.471 54.5829 220.331 54.0545 220.062L52.139 218.954C51.6432 218.63 51.2306 218.194 50.9343 217.681C50.638 217.168 50.4664 216.593 50.4333 216.002V149.168Z" fill="#395D7F"/>
<path opacity="0.3" d="M50.4333 149.168C50.4654 148.577 50.6366 148.001 50.9329 147.488C51.2293 146.975 51.6425 146.539 52.139 146.216L139.328 95.8748C139.856 95.6094 140.439 95.4712 141.03 95.4712C141.621 95.4712 142.204 95.6094 142.733 95.8748L144.655 96.99C145.152 97.312 145.566 97.7475 145.863 98.2607C146.159 98.7739 146.33 99.3501 146.36 99.942V166.775C146.327 167.366 146.155 167.941 145.859 168.454C145.562 168.967 145.15 169.403 144.655 169.727L57.4657 220.062C56.9372 220.331 56.3528 220.471 55.7601 220.471C55.1673 220.471 54.5829 220.331 54.0545 220.062L52.139 218.954C51.6432 218.63 51.2306 218.194 50.9343 217.681C50.638 217.168 50.4664 216.593 50.4333 216.002V149.168Z" fill="black"/>
<path d="M58.4234 151.818L50.9319 147.489C50.6256 147.997 50.4541 148.575 50.4333 149.168V216.001C50.4664 216.593 50.638 217.168 50.9343 217.681C51.2306 218.193 51.6432 218.629 52.139 218.953L54.0545 220.062C54.5829 220.331 55.1673 220.47 55.7601 220.47C56.3528 220.47 56.9372 220.331 57.4657 220.062L58.4234 219.511V151.818Z" fill="#395D7F"/>
<path opacity="0.5" d="M58.4234 151.818L50.9319 147.489C50.6256 147.997 50.4541 148.575 50.4333 149.168V216.001C50.4664 216.593 50.638 217.168 50.9343 217.681C51.2306 218.193 51.6432 218.629 52.139 218.953L54.0545 220.062C54.5829 220.331 55.1673 220.47 55.7601 220.47C56.3528 220.47 56.9372 220.331 57.4657 220.062L58.4234 219.511V151.818Z" fill="black"/>
<path d="M146.36 99.9416V166.775C146.338 167.387 146.155 167.982 145.829 168.5C145.577 168.937 145.237 169.316 144.832 169.615L144.766 169.655L144.655 169.727L57.4656 220.062C57.2987 220.18 57.1048 220.253 56.9019 220.276C56.6989 220.299 56.4934 220.271 56.3045 220.193C56.1229 220.079 55.9761 219.917 55.8801 219.725C55.7841 219.533 55.7425 219.318 55.76 219.104V152.245C55.7452 152.005 55.7886 151.766 55.8865 151.547C55.9845 151.328 56.134 151.136 56.3223 150.988C56.5107 150.84 56.7322 150.739 56.9679 150.695C57.2035 150.651 57.4464 150.665 57.6755 150.736L94.3393 159.454L99.1413 160.595C99.708 160.702 100.293 160.651 100.833 160.448C101.373 160.246 101.847 159.9 102.205 159.447L107.768 151.7L145.212 99.5677C145.842 98.6887 146.36 98.8527 146.36 99.9416Z" fill="#395D7F"/>
<path opacity="0.2" d="M146.36 99.9416V166.775C146.338 167.387 146.155 167.982 145.829 168.5C145.577 168.937 145.237 169.316 144.832 169.615L144.766 169.655L144.655 169.727L57.4656 220.062C57.2987 220.18 57.1048 220.253 56.9019 220.276C56.6989 220.299 56.4934 220.271 56.3045 220.193C56.1229 220.079 55.9761 219.917 55.8801 219.725C55.7841 219.533 55.7425 219.318 55.76 219.104V152.245C55.7452 152.005 55.7886 151.766 55.8865 151.547C55.9845 151.328 56.134 151.136 56.3223 150.988C56.5107 150.84 56.7322 150.739 56.9679 150.695C57.2035 150.651 57.4464 150.665 57.6755 150.736L94.3393 159.454L99.1413 160.595C99.708 160.702 100.293 160.651 100.833 160.448C101.373 160.246 101.847 159.9 102.205 159.447L107.768 151.7L145.212 99.5677C145.842 98.6887 146.36 98.8527 146.36 99.9416Z" fill="black"/>
<path d="M144.655 169.727L144.766 169.655L144.832 169.616C145.238 169.317 145.577 168.937 145.829 168.5C146.151 167.99 146.335 167.404 146.36 166.801L107.768 151.713L133.614 176.117L144.655 169.727Z" fill="#395D7F"/>
<path opacity="0.6" d="M144.655 169.727L144.766 169.655L144.832 169.616C145.238 169.317 145.577 168.937 145.829 168.5C146.151 167.99 146.335 167.404 146.36 166.801L107.768 151.713L133.614 176.117L144.655 169.727Z" fill="black"/>
<path d="M55.7601 219.104C55.7351 219.322 55.7716 219.543 55.8655 219.741C55.9594 219.939 56.107 220.107 56.2915 220.226C56.4804 220.304 56.6859 220.332 56.8889 220.309C57.0919 220.286 57.2858 220.213 57.4526 220.095L87.4843 202.704L94.3395 159.408L55.7601 217.969V219.104Z" fill="#395D7F"/>
<path opacity="0.6" d="M55.7601 219.104C55.7351 219.322 55.7716 219.543 55.8655 219.741C55.9594 219.939 56.107 220.107 56.2915 220.226C56.4804 220.304 56.6859 220.332 56.8889 220.309C57.0919 220.286 57.2858 220.213 57.4526 220.095L87.4843 202.704L94.3395 159.408L55.7601 217.969V219.104Z" fill="black"/>
<path d="M145.829 168.5C145.577 168.937 145.237 169.316 144.832 169.615L144.766 169.655L57.4656 220.062C57.2987 220.18 57.1048 220.253 56.9018 220.276C56.6989 220.299 56.4934 220.271 56.3044 220.193L98.0588 153.537C98.898 152.202 100.19 151.214 101.698 150.753C103.207 150.293 104.83 150.392 106.272 151.031L145.829 168.5Z" fill="#395D7F"/>
<path opacity="0.2" d="M145.829 168.5C145.577 168.937 145.237 169.316 144.832 169.615L144.766 169.655L57.4656 220.062C57.2987 220.18 57.1048 220.253 56.9018 220.276C56.6989 220.299 56.4934 220.271 56.3044 220.193L98.0588 153.537C98.898 152.202 100.19 151.214 101.698 150.753C103.207 150.293 104.83 150.392 106.272 151.031L145.829 168.5Z" fill="black"/>
<path d="M55.76 150.277L95.8613 167.989C97.3051 168.626 98.9304 168.722 100.439 168.258C101.947 167.794 103.238 166.802 104.074 165.463L146.183 98.0723L55.76 150.277Z" fill="#395D7F"/>
<path opacity="0.6" d="M55.76 150.277L95.8613 167.989C97.3051 168.626 98.9304 168.722 100.439 168.258C101.947 167.794 103.238 166.802 104.074 165.463L146.183 98.0723L55.76 150.277Z" fill="black"/>
<path d="M55.76 150.277L96.1434 165.365C97.5389 165.886 99.0702 165.916 100.485 165.451C101.901 164.986 103.115 164.054 103.93 162.806L146.183 98.0723L55.76 150.277Z" fill="#395D7F"/>
<path opacity="0.2" d="M55.76 150.277L96.1434 165.365C97.5389 165.886 99.0702 165.916 100.485 165.451C101.901 164.986 103.115 164.054 103.93 162.806L146.183 98.0723L55.76 150.277Z" fill="black"/>
<path d="M65.3245 157.401C65.3549 156.809 65.5254 156.232 65.8219 155.719C66.1184 155.206 66.5325 154.771 67.0301 154.449L154.219 104.107C154.747 103.839 155.332 103.699 155.925 103.699C156.517 103.699 157.102 103.839 157.63 104.107L159.552 105.216C160.048 105.54 160.459 105.976 160.755 106.489C161.05 107.002 161.22 107.577 161.251 108.168V175.001C161.219 175.592 161.048 176.167 160.753 176.679C160.458 177.192 160.047 177.628 159.552 177.953L72.3568 228.288C71.8286 228.553 71.2456 228.692 70.6545 228.692C70.0633 228.692 69.4804 228.553 68.9521 228.288L67.0301 227.179C66.5347 226.855 66.1223 226.419 65.8261 225.906C65.5299 225.394 65.3581 224.818 65.3245 224.227V157.401Z" fill="#455A64"/>
<path d="M65.3245 157.401C65.3549 156.809 65.5254 156.232 65.8219 155.719C66.1184 155.206 66.5325 154.771 67.0301 154.449L154.219 104.107C154.747 103.839 155.332 103.699 155.925 103.699C156.517 103.699 157.102 103.839 157.63 104.107L159.552 105.216C160.048 105.54 160.459 105.976 160.755 106.489C161.05 107.002 161.22 107.577 161.251 108.168V175.001C161.219 175.592 161.048 176.167 160.753 176.679C160.458 177.192 160.047 177.628 159.552 177.953L72.3568 228.288C71.8286 228.553 71.2456 228.692 70.6545 228.692C70.0633 228.692 69.4804 228.553 68.9521 228.288L67.0301 227.179C66.5347 226.855 66.1223 226.419 65.8261 225.906C65.5299 225.394 65.3581 224.818 65.3245 224.227V157.401Z" fill="#455A64"/>
<path d="M73.3211 160.064L65.823 155.741C65.516 156.249 65.3443 156.827 65.3245 157.421V224.234C65.3581 224.825 65.5299 225.4 65.8261 225.913C66.1223 226.426 66.5347 226.862 67.0301 227.186L68.9521 228.295C69.4804 228.56 70.0633 228.698 70.6545 228.698C71.2456 228.698 71.8286 228.56 72.3568 228.295L73.3211 227.737V160.064Z" fill="#263238"/>
<path d="M161.258 108.168V175.001C161.236 175.613 161.053 176.208 160.727 176.727C160.475 177.163 160.135 177.543 159.73 177.842L159.664 177.881L159.552 177.953L72.3635 228.288C72.1966 228.406 72.0027 228.48 71.7998 228.503C71.5968 228.526 71.3913 228.497 71.2024 228.419C71.0179 228.301 70.8703 228.133 70.7764 227.935C70.6824 227.736 70.646 227.516 70.671 227.298V160.471C70.6562 160.232 70.6996 159.992 70.7975 159.774C70.8955 159.555 71.045 159.363 71.2334 159.215C71.4217 159.066 71.6432 158.966 71.8789 158.922C72.1146 158.878 72.3574 158.892 72.5865 158.962L109.25 167.68L114.052 168.822C114.619 168.928 115.204 168.877 115.744 168.675C116.284 168.472 116.758 168.126 117.116 167.674L122.672 159.926L160.117 107.794C160.72 106.928 161.258 107.079 161.258 108.168Z" fill="#37474F"/>
<path d="M159.552 177.953L159.664 177.881L159.73 177.842C160.135 177.543 160.475 177.163 160.727 176.727C161.045 176.218 161.226 175.634 161.251 175.034L122.666 159.946L148.505 184.336L159.552 177.953Z" fill="#263238"/>
<path d="M70.6579 227.304C70.6328 227.522 70.6693 227.743 70.7632 227.941C70.8572 228.139 71.0047 228.307 71.1893 228.426C71.3782 228.503 71.5837 228.532 71.7866 228.509C71.9896 228.486 72.1835 228.412 72.3504 228.295L102.369 210.963L109.224 167.667L70.6448 226.182L70.6579 227.304Z" fill="#263238"/>
<path d="M160.72 176.727C160.468 177.163 160.129 177.543 159.723 177.842L159.657 177.881L72.3635 228.288C72.1966 228.406 72.0028 228.48 71.7998 228.503C71.5968 228.526 71.3913 228.497 71.2024 228.419L112.95 161.77C113.787 160.432 115.079 159.441 116.587 158.979C118.096 158.516 119.72 158.613 121.163 159.251L160.72 176.727Z" fill="#37474F"/>
<path d="M70.6577 158.509L110.759 176.221C112.202 176.857 113.826 176.951 115.333 176.488C116.84 176.024 118.13 175.033 118.966 173.696L161.074 106.272L70.6577 158.509Z" fill="#263238"/>
<path d="M70.6577 158.509L111.035 173.597C112.431 174.12 113.964 174.151 115.38 173.686C116.797 173.221 118.013 172.287 118.828 171.039L161.074 106.272L70.6577 158.509Z" fill="#37474F"/>
<path d="M129.278 210.452V143.618C129.339 142.35 129.735 141.121 130.426 140.056L172.01 82.151C172.769 81.0931 173.825 80.2849 175.045 79.8293C176.264 79.3737 177.592 79.2913 178.859 79.5926L217.963 88.8882C219.223 89.2235 220.438 89.708 221.584 90.3314L223.506 91.44C224 91.7651 224.411 92.2014 224.706 92.7141C225.001 93.2267 225.172 93.8014 225.205 94.392V161.225C225.171 161.816 225 162.39 224.705 162.902C224.41 163.415 223.999 163.851 223.506 164.177L136.31 214.512C135.783 214.779 135.199 214.918 134.608 214.918C134.017 214.918 133.434 214.779 132.906 214.512L130.984 213.404C130.488 213.08 130.075 212.644 129.779 212.131C129.483 211.618 129.311 211.043 129.278 210.452Z" fill="#395D7F"/>
<path opacity="0.3" d="M129.278 210.452V143.618C129.339 142.35 129.735 141.121 130.426 140.056L172.01 82.151C172.769 81.0931 173.825 80.2849 175.045 79.8293C176.264 79.3737 177.592 79.2913 178.859 79.5926L217.963 88.8882C219.223 89.2235 220.438 89.708 221.584 90.3314L223.506 91.44C224 91.7651 224.411 92.2014 224.706 92.7141C225.001 93.2267 225.172 93.8014 225.205 94.392V161.225C225.171 161.816 225 162.39 224.705 162.902C224.41 163.415 223.999 163.851 223.506 164.177L136.31 214.512C135.783 214.779 135.199 214.918 134.608 214.918C134.017 214.918 133.434 214.779 132.906 214.512L130.984 213.404C130.488 213.08 130.075 212.644 129.779 212.131C129.483 211.618 129.311 211.043 129.278 210.452Z" fill="white"/>
<path d="M137.268 111.317V196.597C137.268 197.679 138.036 198.125 138.974 197.581L220.836 150.349C221.333 150.026 221.746 149.591 222.043 149.078C222.339 148.564 222.51 147.989 222.541 147.397V62.117C222.541 61.0281 221.781 60.5885 220.836 61.133L138.974 108.365C138.477 108.688 138.064 109.124 137.768 109.637C137.471 110.15 137.3 110.725 137.268 111.317Z" fill="#FAFAFA"/>
<path d="M138.213 198.152C138.001 198.153 137.793 198.099 137.609 197.994C137.385 197.844 137.205 197.637 137.09 197.393C136.974 197.149 136.927 196.878 136.953 196.61V111.33C136.984 110.68 137.17 110.047 137.495 109.483C137.821 108.919 138.276 108.442 138.823 108.089L220.685 60.8573C220.899 60.6833 221.16 60.5784 221.435 60.5565C221.71 60.5347 221.985 60.597 222.223 60.7351C222.462 60.8732 222.652 61.0806 222.77 61.3297C222.888 61.5789 222.927 61.858 222.883 62.13V147.41C222.852 148.059 222.666 148.692 222.341 149.254C222.016 149.817 221.56 150.294 221.013 150.644L139.151 197.876C138.868 198.049 138.544 198.145 138.213 198.152ZM221.597 61.1919C221.385 61.204 221.18 61.2694 221 61.3821L139.138 108.647C138.692 108.943 138.321 109.338 138.053 109.801C137.786 110.264 137.629 110.783 137.596 111.317V196.597C137.557 196.751 137.569 196.913 137.63 197.059C137.692 197.206 137.799 197.328 137.937 197.408C138.074 197.487 138.234 197.519 138.392 197.5C138.549 197.48 138.696 197.41 138.81 197.299L220.672 150.067C221.118 149.771 221.489 149.376 221.757 148.913C222.024 148.45 222.181 147.931 222.213 147.397V62.1168C222.232 61.963 222.211 61.807 222.152 61.6635C222.094 61.52 222 61.3938 221.879 61.2968C221.796 61.237 221.699 61.2007 221.597 61.1919Z" fill="#E0E0E0"/>
<path d="M135.504 145.245L129.6 141.834C129.408 142.41 129.302 143.011 129.285 143.618V210.452C129.318 211.043 129.489 211.618 129.786 212.131C130.082 212.644 130.495 213.08 130.99 213.404L132.906 214.512C133.433 214.781 134.016 214.921 134.608 214.921C135.2 214.921 135.783 214.781 136.31 214.512L137.13 214.046L135.504 145.245Z" fill="#395D7F"/>
<g opacity="0.1">
<path d="M135.504 145.245L129.6 141.834C129.408 142.41 129.302 143.011 129.285 143.618V210.452C129.318 211.043 129.489 211.618 129.786 212.131C130.082 212.644 130.495 213.08 130.99 213.404L132.906 214.512C133.433 214.781 134.016 214.921 134.608 214.921C135.2 214.921 135.783 214.781 136.31 214.512L137.13 214.046L135.504 145.245Z" fill="black"/>
</g>
<path d="M225.211 94.3922V161.225C225.189 161.837 225.006 162.432 224.68 162.951C224.428 163.387 224.089 163.767 223.683 164.066L223.617 164.105L223.506 164.177L136.317 214.512C136.15 214.63 135.956 214.704 135.753 214.727C135.55 214.75 135.345 214.721 135.156 214.644C134.971 214.525 134.824 214.357 134.73 214.159C134.636 213.96 134.599 213.74 134.624 213.522V146.695C134.61 146.456 134.653 146.216 134.751 145.998C134.849 145.779 134.998 145.587 135.187 145.439C135.375 145.29 135.597 145.19 135.832 145.146C136.068 145.102 136.311 145.116 136.54 145.186L173.184 153.905L177.986 155.046C178.554 155.153 179.14 155.103 179.681 154.901C180.223 154.698 180.698 154.352 181.056 153.898L186.619 146.151L224.063 94.0183C224.693 93.1524 225.211 93.3032 225.211 94.3922Z" fill="#395D7F"/>
<path opacity="0.3" d="M225.211 94.3922V161.225C225.189 161.837 225.006 162.432 224.68 162.951C224.428 163.387 224.089 163.767 223.683 164.066L223.617 164.105L223.506 164.177L136.317 214.512C136.15 214.63 135.956 214.704 135.753 214.727C135.55 214.75 135.345 214.721 135.156 214.644C134.971 214.525 134.824 214.357 134.73 214.159C134.636 213.96 134.599 213.74 134.624 213.522V146.695C134.61 146.456 134.653 146.216 134.751 145.998C134.849 145.779 134.998 145.587 135.187 145.439C135.375 145.29 135.597 145.19 135.832 145.146C136.068 145.102 136.311 145.116 136.54 145.186L173.184 153.905L177.986 155.046C178.554 155.153 179.14 155.103 179.681 154.901C180.223 154.698 180.698 154.352 181.056 153.898L186.619 146.151L224.063 94.0183C224.693 93.1524 225.211 93.3032 225.211 94.3922Z" fill="white"/>
<path d="M223.506 164.177L223.617 164.105L223.683 164.066C224.089 163.767 224.428 163.387 224.68 162.951C224.999 162.439 225.18 161.854 225.205 161.252L186.619 146.164L212.459 170.56L223.506 164.177Z" fill="#395D7F"/>
<path d="M134.611 213.528C134.586 213.746 134.623 213.967 134.717 214.165C134.811 214.363 134.958 214.531 135.143 214.65C135.332 214.727 135.537 214.756 135.74 214.733C135.943 214.71 136.137 214.636 136.304 214.519L166.322 197.187L173.178 153.891L134.598 212.406L134.611 213.528Z" fill="#395D7F"/>
<path d="M224.68 162.951C224.428 163.387 224.089 163.767 223.683 164.066L223.617 164.105L136.317 214.512C136.15 214.63 135.956 214.704 135.753 214.727C135.55 214.75 135.345 214.721 135.156 214.644L176.904 147.994C177.741 146.658 179.031 145.668 180.538 145.206C182.045 144.743 183.668 144.839 185.11 145.475L224.68 162.951Z" fill="#395D7F"/>
<path opacity="0.3" d="M224.68 162.951C224.428 163.387 224.089 163.767 223.683 164.066L223.617 164.105L136.317 214.512C136.15 214.63 135.956 214.704 135.753 214.727C135.55 214.75 135.345 214.721 135.156 214.644L176.904 147.994C177.741 146.658 179.031 145.668 180.538 145.206C182.045 144.743 183.668 144.839 185.11 145.475L224.68 162.951Z" fill="white"/>
<path d="M173.315 130.958C172.55 131.076 171.767 131.006 171.035 130.755C170.302 130.504 169.642 130.078 169.11 129.514C168.113 128.406 167.615 126.694 167.615 124.391C167.616 121.793 168.173 119.225 169.248 116.86C170.352 114.426 171.875 112.206 173.748 110.3C175.763 108.211 178.059 106.414 180.571 104.96C183.033 103.543 185.134 102.758 186.875 102.605C188.626 102.448 189.945 102.9 190.85 103.95C191.756 105 192.202 106.607 192.202 108.758C192.24 110.892 191.734 113.001 190.732 114.886C189.849 116.592 188.503 118.016 186.849 118.992C186.277 119.398 185.577 119.58 184.881 119.504C184.633 119.455 184.404 119.335 184.223 119.159C184.041 118.984 183.914 118.759 183.857 118.513C183.311 119.546 182.617 120.494 181.797 121.327C180.968 122.183 180.023 122.918 178.99 123.512C177.205 124.522 175.782 124.824 174.732 124.476C173.683 124.129 173.184 123.066 173.184 121.295C173.199 119.069 173.885 116.899 175.152 115.069C176.532 113.04 178.364 111.36 180.505 110.162C181.399 109.63 182.371 109.24 183.385 109.008C184.139 108.803 184.934 108.803 185.688 109.008V115.915C185.688 116.473 185.786 116.814 185.976 116.945C186.166 117.077 186.481 117.011 186.927 116.755C187.758 116.215 188.373 115.4 188.666 114.453C189.109 113.173 189.32 111.824 189.289 110.471C189.289 108.748 188.913 107.495 188.161 106.712C187.759 106.319 187.268 106.028 186.731 105.864C186.193 105.699 185.624 105.666 185.071 105.767C183.469 106.012 181.935 106.583 180.564 107.446C177.664 109.055 175.164 111.298 173.25 114.006C171.481 116.549 170.542 119.575 170.56 122.672C170.56 124.557 170.947 125.933 171.721 126.798C172.123 127.232 172.625 127.559 173.184 127.752C173.742 127.944 174.339 127.995 174.923 127.901C176.555 127.669 178.12 127.095 179.515 126.215C180.477 125.658 181.388 125.017 182.237 124.299C183.027 123.647 183.746 122.912 184.382 122.108C184.448 122.023 184.525 121.948 184.612 121.885C184.671 121.852 184.73 121.885 184.782 121.964L185.504 123.276C185.53 123.328 185.55 123.383 185.563 123.44C185.54 123.586 185.468 123.72 185.36 123.82C184.567 124.773 183.689 125.652 182.736 126.444C181.732 127.286 180.659 128.041 179.528 128.701C177.643 129.891 175.524 130.661 173.315 130.958ZM181.843 118.625C182.468 117.888 182.832 116.966 182.88 116.001V111.999C181.944 112.078 181.042 112.389 180.256 112.904C179.004 113.608 177.939 114.6 177.146 115.797C176.403 116.896 176.004 118.191 175.998 119.517C175.998 120.626 176.274 121.288 176.832 121.485C177.389 121.682 178.249 121.485 179.423 120.783C180.373 120.233 181.205 119.499 181.87 118.625H181.843Z" fill="#E0E0E0"/>
<path d="M89.7671 137.53L83.3711 133.824H83.3252C81.1407 132.591 78.1297 132.774 74.7972 134.696C68.0994 138.56 62.6743 147.961 62.6743 155.688C62.6743 159.552 64.0257 162.248 66.2102 163.56L72.1601 166.965L73.2359 165.174C74.4561 164.901 75.6281 164.445 76.7127 163.823C83.4039 159.952 88.8356 150.552 88.8356 142.831C88.832 141.787 88.7043 140.748 88.4551 139.734L89.7671 137.53Z" fill="#F28F8F"/>
<path d="M89.7671 137.53L83.3711 133.824H83.3252C81.1407 132.591 78.1297 132.774 74.7972 134.696C68.0994 138.56 62.6743 147.961 62.6743 155.688C62.6743 159.552 64.0257 162.248 66.2102 163.56L72.1601 166.965L73.2359 165.174C74.4561 164.901 75.6281 164.445 76.7127 163.823C83.4039 159.952 88.8356 150.552 88.8356 142.831C88.832 141.787 88.7043 140.748 88.4551 139.734L89.7671 137.53Z" fill="#395D7F"/>
<path opacity="0.4" d="M89.7671 137.53L83.3711 133.824H83.3252C81.1407 132.591 78.1297 132.774 74.7972 134.696C68.0994 138.56 62.6743 147.961 62.6743 155.688C62.6743 159.552 64.0257 162.248 66.2102 163.56L72.1601 166.965L73.2359 165.174C74.4561 164.901 75.6281 164.445 76.7127 163.823C83.4039 159.952 88.8356 150.552 88.8356 142.831C88.832 141.787 88.7043 140.748 88.4551 139.734L89.7671 137.53Z" fill="black"/>
<path d="M80.9439 138.219C74.2462 142.09 68.821 151.49 68.821 159.211C68.821 166.932 74.2462 170.075 80.9439 166.211C87.6417 162.347 93.0668 152.946 93.0668 145.219C93.0668 137.491 87.6417 134.355 80.9439 138.219Z" fill="#395D7F"/>
<path d="M76.2076 161.061C76.0829 161.061 76.0173 160.989 76.0173 160.877C76.0302 160.754 76.0658 160.634 76.1223 160.523L76.7324 159.152C76.7728 159.018 76.8528 158.899 76.962 158.811C77.0528 158.77 77.151 158.748 77.2506 158.745C77.7965 158.713 78.3352 158.605 78.8513 158.424C79.5375 158.193 80.1972 157.889 80.8193 157.519C81.7871 156.994 82.6359 156.275 83.3121 155.406C83.8192 154.749 84.102 153.947 84.1189 153.117C84.1189 151.667 83.2333 151.457 81.4621 152.461L79.7369 153.504C79.4548 153.661 79.258 153.72 79.1399 153.668C79.0218 153.615 78.9628 153.458 78.9628 153.196V152.651C78.9534 152.419 79.0152 152.19 79.1399 151.995C79.2979 151.782 79.5019 151.607 79.7369 151.483L81.449 150.493C82.1351 150.119 82.7169 149.581 83.1415 148.925C83.4973 148.375 83.6927 147.737 83.7057 147.082C83.7057 145.678 82.7173 145.547 80.7405 146.688C79.5249 147.381 78.4303 148.267 77.4999 149.312C77.4125 149.411 77.3158 149.501 77.2113 149.581C77.1726 149.599 77.129 149.604 77.0874 149.595C77.0457 149.585 77.0085 149.562 76.9817 149.528L76.3978 148.872C76.3652 148.842 76.3391 148.806 76.3211 148.765C76.3031 148.725 76.2934 148.681 76.2929 148.636C76.3062 148.486 76.371 148.344 76.4765 148.236C77.0577 147.509 77.7177 146.849 78.4445 146.268C79.2909 145.578 80.1927 144.96 81.1407 144.418C81.9966 143.886 82.9407 143.51 83.9287 143.31C84.2396 143.234 84.5633 143.227 84.8771 143.289C85.191 143.351 85.4875 143.482 85.7458 143.67C85.9788 143.895 86.1586 144.169 86.2721 144.472C86.3856 144.775 86.4299 145.1 86.4018 145.422C86.387 146.144 86.2264 146.856 85.9295 147.515C85.6124 148.275 85.1688 148.976 84.6175 149.588C84.9006 149.493 85.2032 149.471 85.4969 149.525C85.7907 149.579 86.0659 149.707 86.2969 149.896C86.499 150.131 86.6524 150.404 86.7481 150.699C86.8438 150.994 86.88 151.305 86.8545 151.615C86.8043 153.069 86.2945 154.47 85.3981 155.616C84.2979 157.092 82.8928 158.313 81.2785 159.198C78.9693 160.549 77.279 161.17 76.2076 161.061Z" fill="white"/>
<path d="M213.771 232.283L213.895 232.171C213.987 232.093 214.086 232.014 214.171 231.929L214.466 231.64L214.761 231.358C214.934 231.196 215.098 231.025 215.253 230.846L217.589 232.591L219.143 233.752C218.577 234.366 218.116 235.068 217.779 235.832C217.779 235.832 217.313 236.586 215.732 236.206C213.777 235.753 213.469 232.88 213.771 232.283Z" fill="#FFA8A7"/>
<path d="M190.896 231.483C189.112 229.41 190.699 225.966 192.431 221.498C194.333 216.585 197.272 208.234 197.272 208.234L218.14 203.924C218.14 203.924 240.372 203.498 242.412 207.749C244.065 211.153 229.423 216.277 227.324 216.46L214.473 217.136L213.121 217.792L204.095 229.213L190.896 231.483Z" fill="#395D7F"/>
<path d="M229.344 211.232C227.724 212.88 226.214 214.633 224.824 216.48C221.065 221.728 215.115 231.26 215.115 231.26C215.115 231.26 216.04 234.277 218.881 234.146C218.881 234.146 238.43 215.889 240.03 214.204C242.451 211.645 244.393 207.427 240.207 207.079C236.022 206.732 230.971 209.474 229.344 211.232Z" fill="#395D7F"/>
<path d="M224.719 216.585C224.719 216.585 228.209 211.481 231.824 209.369C231.824 209.369 228.229 210.077 222.784 216.703L224.719 216.585Z" fill="#395D7F"/>
<path opacity="0.1" d="M224.719 216.585C224.719 216.585 228.209 211.481 231.824 209.369C231.824 209.369 228.229 210.077 222.784 216.703L224.719 216.585Z" fill="black"/>
<path d="M227.094 223.04L225.723 223.302L226.996 228.006C226.996 228.006 228.229 227.888 228.655 227.914C229.277 227.766 229.875 227.535 230.433 227.225L230.105 224.352L228.596 222.777L227.094 223.04Z" fill="#FFA8A7"/>
<path d="M237.918 224.149C238.572 224.413 239.165 224.809 239.66 225.312C240.154 225.815 240.539 226.415 240.791 227.074C241.083 227.764 241.322 228.474 241.506 229.2C241.723 229.961 241.618 231.253 240.654 231.463C240.34 231.5 240.023 231.443 239.742 231.299C237.806 230.551 235.917 229.685 233.936 229.056C232.238 228.427 230.461 228.04 228.655 227.908C229.066 227.276 229.271 226.533 229.243 225.78C229.214 225.027 228.954 224.302 228.498 223.703C228.109 223.343 227.619 223.114 227.094 223.047C227.593 222.824 228.058 222.535 228.537 222.266C229.429 221.642 230.521 221.373 231.601 221.512C232.427 221.689 233.057 222.345 233.759 222.824C235.097 223.696 236.39 223.637 237.918 224.149Z" fill="#263238"/>
<path d="M193.71 226.976C195.436 226.445 198.191 225.972 206.365 225.553C214.538 225.133 225.723 223.296 225.723 223.296C227.626 225.126 226.996 227.999 226.996 227.999C226.996 227.999 212.479 232.591 207.749 233.201C200.218 234.172 197.62 234.1 194.222 233.372C190.404 232.552 187.997 228.728 193.71 226.976Z" fill="#395D7F"/>
<path d="M223.584 188.042L229.725 202.717L225.329 205.419L216.88 191.112L223.584 188.042Z" fill="#F28F8F"/>
<path d="M210.884 174.214C214.243 174.253 217.936 175.473 219.209 178.104L224.457 188.928C224.457 188.928 221.492 193.271 216.782 192.962L210.884 174.214Z" fill="#E0E0E0"/>
<path d="M188.554 197.023C188.593 196.452 189.413 193.664 190.292 190.66L196.669 192.864L194.957 198.263L189.584 203.36C188.42 201.465 188.05 199.188 188.554 197.023Z" fill="#FFA8A7"/>
<path d="M204.016 174.417C200.014 175.382 194.563 176.635 192.982 180.977C191.401 185.32 189.138 192.989 189.138 192.989C190.017 194.511 194.839 195.77 196.511 194.891L197.299 192.267V208.221C200.428 211.626 215.863 210.753 218.166 203.911V182.178C218.166 178.701 216.237 174.522 210.904 174.214L204.016 174.417Z" fill="#FAFAFA"/>
<path d="M197.279 192.28L199.286 185.963L197.279 195.108V192.28Z" fill="#E0E0E0"/>
<path d="M202.494 156.633C202.138 156.587 201.776 156.622 201.435 156.735C201.094 156.849 200.783 157.038 200.526 157.289C199.68 158.155 199.87 159.756 200.526 163.429L203.15 163.724L202.494 156.633Z" fill="#263238"/>
<path d="M217.72 155.57C218.282 155.573 218.838 155.459 219.353 155.236C220.154 154.777 220.364 155.689 219.924 156.476C219.634 157.043 219.202 157.527 218.672 157.881C218.141 158.234 217.529 158.446 216.893 158.496C216.893 158.385 216.146 156.456 216.146 156.456L217.72 155.57Z" fill="#263238"/>
<path d="M203.721 163.764C203.334 163.993 202.776 163.252 202.297 162.747C202.109 162.532 201.87 162.369 201.601 162.272C201.333 162.176 201.044 162.149 200.763 162.195C200.481 162.241 200.216 162.358 199.992 162.535C199.768 162.712 199.593 162.943 199.483 163.206C198.689 164.879 200.493 167.103 201.549 167.838C201.846 168.093 202.215 168.249 202.605 168.282C202.995 168.315 203.386 168.223 203.721 168.021L203.996 174.417C204.464 175.442 205.179 176.335 206.076 177.017C206.974 177.698 208.026 178.146 209.139 178.321C212.892 178.826 212.117 175.729 210.884 174.214V171.872C211.824 172.073 212.789 172.121 213.744 172.016C214.23 171.885 215.397 170.475 216.152 168.894C216.998 167.123 218.409 163.974 217.156 158.641C215.804 152.92 209.657 152.737 206.004 155.052C202.35 157.368 203.721 163.764 203.721 163.764Z" fill="#FFA8A7"/>
<path d="M203.721 164.413C203.524 164.413 202.783 163.186 202.297 162.747C201.641 162.137 202.494 156.633 202.494 156.633C202.494 156.633 201.838 154.54 203.15 153.156C204.462 151.772 207.034 152.002 208.91 151.936C211.209 151.949 213.486 151.491 215.601 150.591C218.264 149.437 218.461 149.279 218.789 150.467C219.117 151.654 219.248 154.311 217.661 156.102L216.795 157.512C216.795 157.512 215.988 158.168 213.515 158.496C211.042 158.824 206.804 157.466 206.299 157.394C205.577 157.295 205.426 157.991 205.039 159.893C204.672 161.566 204.377 164.4 203.721 164.413Z" fill="#263238"/>
<path d="M202.501 157.059L200.152 155.8C200.229 155.644 200.337 155.505 200.469 155.391C200.6 155.276 200.753 155.19 200.919 155.135C201.084 155.081 201.259 155.06 201.432 155.074C201.606 155.088 201.775 155.136 201.93 155.216C202.243 155.392 202.476 155.681 202.582 156.024C202.688 156.367 202.659 156.737 202.501 157.059Z" fill="#263238"/>
<path d="M210.878 171.872C210.878 171.872 207.401 171.17 206.187 170.56C205.473 170.185 204.888 169.605 204.508 168.894C204.693 169.607 205.018 170.276 205.466 170.862C206.351 171.996 210.878 172.83 210.878 172.83V171.872Z" fill="#F28F8F"/>
<path d="M210.989 163.632C210.984 163.769 210.939 163.9 210.86 164.011C210.78 164.122 210.67 164.207 210.542 164.256C210.415 164.304 210.276 164.314 210.143 164.285C210.01 164.255 209.888 164.187 209.794 164.089C209.699 163.99 209.635 163.866 209.611 163.732C209.586 163.598 209.601 163.46 209.654 163.334C209.708 163.209 209.797 163.102 209.911 163.026C210.024 162.951 210.158 162.911 210.294 162.911C210.387 162.912 210.479 162.932 210.564 162.97C210.649 163.007 210.727 163.06 210.791 163.127C210.856 163.194 210.906 163.273 210.94 163.36C210.974 163.447 210.991 163.539 210.989 163.632Z" fill="#263238"/>
<path d="M210.254 161.009L208.759 161.829C208.655 161.623 208.634 161.387 208.698 161.166C208.763 160.946 208.909 160.758 209.106 160.641C209.205 160.587 209.314 160.554 209.426 160.543C209.539 160.533 209.652 160.545 209.759 160.579C209.866 160.614 209.966 160.669 210.051 160.743C210.136 160.817 210.205 160.907 210.254 161.009Z" fill="#263238"/>
<path d="M210.576 168.29L212.17 168.894C212.135 169 212.078 169.098 212.004 169.182C211.931 169.267 211.84 169.335 211.74 169.384C211.639 169.433 211.529 169.461 211.417 169.467C211.305 169.473 211.193 169.456 211.088 169.418C210.873 169.333 210.699 169.168 210.604 168.957C210.509 168.747 210.499 168.508 210.576 168.29Z" fill="#F28F8F"/>
<path d="M217.202 161.586L215.844 160.536C215.908 160.445 215.99 160.368 216.085 160.309C216.18 160.251 216.286 160.212 216.396 160.196C216.507 160.179 216.619 160.185 216.727 160.213C216.835 160.241 216.936 160.291 217.025 160.359C217.206 160.502 217.325 160.709 217.358 160.937C217.391 161.166 217.335 161.398 217.202 161.586Z" fill="#263238"/>
<path d="M216.782 163.435C216.777 163.572 216.732 163.704 216.652 163.814C216.573 163.925 216.462 164.01 216.335 164.059C216.207 164.108 216.069 164.118 215.935 164.088C215.802 164.058 215.681 163.99 215.586 163.892C215.492 163.794 215.428 163.67 215.403 163.536C215.378 163.401 215.394 163.263 215.447 163.137C215.5 163.012 215.589 162.905 215.703 162.829C215.817 162.754 215.95 162.714 216.086 162.714C216.18 162.716 216.271 162.736 216.357 162.773C216.442 162.81 216.519 162.864 216.584 162.931C216.648 162.998 216.699 163.077 216.733 163.163C216.767 163.25 216.784 163.342 216.782 163.435Z" fill="#263238"/>
<path d="M213.502 163.351L212.846 167.497L215.142 167.228L213.502 163.351Z" fill="#F28F8F"/>
<path d="M237.433 210.432L223.296 202.271C223.172 202.2 223.032 202.163 222.889 202.163C222.746 202.163 222.606 202.2 222.482 202.271L197.692 216.585L212.229 225.008L237.433 210.432Z" fill="#37474F"/>
<path d="M212.098 223.781L204.475 219.386L226.766 206.515L234.428 210.891L212.098 223.781Z" fill="#263238"/>
<path d="M208.352 211.553L208.496 211.632L212.229 213.79L218.874 209.952L219.012 209.874L215.135 207.637L208.352 211.553Z" fill="#263238"/>
<path d="M208.496 211.632L212.229 213.79L218.874 209.953L215.135 207.794L208.496 211.632Z" fill="#263238"/>
<path d="M197.692 216.585V216.919C197.69 217.156 197.75 217.389 197.865 217.596C197.98 217.803 198.146 217.976 198.348 218.1L211.521 225.703C211.728 225.823 211.963 225.887 212.203 225.887C212.443 225.887 212.678 225.823 212.885 225.703L236.724 211.927C236.926 211.803 237.092 211.629 237.207 211.423C237.322 211.216 237.381 210.983 237.38 210.746V210.412L212.229 225.008L197.692 216.585Z" fill="#263238"/>
<path d="M212.229 225.008V225.913C212.46 225.911 212.686 225.847 212.885 225.729L236.724 211.953C236.926 211.829 237.092 211.656 237.207 211.449C237.322 211.242 237.381 211.009 237.38 210.773V210.438L212.229 225.008Z" fill="#263238"/>
<path d="M212.616 225.185C212.842 225.271 213.084 225.306 213.324 225.286C213.565 225.267 213.798 225.194 214.007 225.073L237.741 211.369C237.947 211.251 238.124 211.089 238.259 210.894C238.394 210.698 238.484 210.475 238.522 210.241L241.146 194.753C241.152 194.663 241.152 194.573 241.146 194.484C241.144 194.053 240.972 193.64 240.667 193.336L216.001 207.578C215.849 207.665 215.719 207.786 215.619 207.93C215.519 208.074 215.453 208.238 215.424 208.411L212.616 225.185Z" fill="#263238"/>
<path d="M212.229 225.008L212.393 225.1C212.465 225.141 212.54 225.178 212.616 225.211L215.424 208.437C215.453 208.265 215.519 208.1 215.619 207.956C215.719 207.812 215.849 207.692 216.001 207.604L240.667 193.363C240.566 193.269 240.456 193.185 240.339 193.113L215.627 207.355C215.475 207.443 215.343 207.563 215.243 207.707C215.142 207.851 215.074 208.015 215.043 208.188L212.229 225.008Z" fill="#455A64"/>
<path d="M225.979 210.878C226.352 209.583 227.21 208.481 228.373 207.801C229.521 207.145 230.308 207.44 230.138 208.457C229.764 209.752 228.907 210.854 227.743 211.534C226.595 212.222 225.808 211.888 225.979 210.878Z" fill="#37474F"/>
<path d="M194.957 198.25C194.957 198.25 199.214 214.65 201.012 215.824C202.809 216.998 206.155 217.857 207.755 218.448C209.356 219.038 210.084 219.845 209.808 220.068C209.533 220.291 207.224 220.534 206.424 220.816C205.623 221.098 206.66 222.39 208.431 223.761C210.202 225.132 211.711 225.008 211.514 225.92C211.317 226.832 207.368 227.743 204.036 225.788C200.703 223.834 199.693 221.196 197.705 218.96C195.718 216.723 191.178 207.427 189.584 203.36C189.584 203.36 189.735 195.803 192.208 196.282C194.681 196.76 194.957 198.25 194.957 198.25Z" fill="#FFA8A7"/>
<path d="M215.214 231.482C215.516 232.211 216.559 234.218 218.881 234.106L224.588 228.767L215.214 231.482Z" fill="#395D7F"/>
<path opacity="0.1" d="M215.214 231.482C215.516 232.211 216.559 234.218 218.881 234.106L224.588 228.767L215.214 231.482Z" fill="black"/>
<path d="M216.939 240.877C216.884 239.159 217.167 237.447 217.772 235.838C217.497 236.03 217.181 236.153 216.848 236.196C216.516 236.24 216.178 236.203 215.863 236.088C213.954 235.517 213.475 232.854 213.777 232.276C213.502 232.519 213.213 232.749 212.931 232.985C212.026 233.592 211.382 234.517 211.127 235.576C210.996 236.409 211.383 237.229 211.573 238.056C211.94 239.63 211.573 241.27 211.514 242.884C211.527 243.588 211.685 244.282 211.977 244.923C212.269 245.564 212.69 246.138 213.213 246.61C213.751 247.135 214.33 247.615 214.945 248.047C215.169 248.298 215.465 248.474 215.793 248.55C216.121 248.626 216.464 248.599 216.776 248.471C217.088 248.344 217.352 248.123 217.533 247.839C217.714 247.555 217.802 247.222 217.785 246.885C217.536 244.839 217.057 243.009 216.939 240.877Z" fill="#263238"/>
<path d="M219.104 233.766C218.927 234.1 218.769 234.422 218.632 234.743C218.796 234.428 218.953 234.1 219.104 233.766Z" fill="#37474F"/>
</svg>
