<svg width="290" height="290" viewBox="0 0 290 290" fill="none" xmlns="http://www.w3.org/2000/svg">
<path d="M145 247.985C207.108 247.985 257.456 245.045 257.456 241.419C257.456 237.793 207.108 234.854 145 234.854C82.8921 234.854 32.5437 237.793 32.5437 241.419C32.5437 245.045 82.8921 247.985 145 247.985Z" fill="#F5F5F5"/>
<path d="M233.108 181.198H219.188V180.618H233.108C234.745 180.584 236.344 180.118 237.743 179.266C239.141 178.415 240.29 177.208 241.071 175.769L241.582 176.047C240.75 177.578 239.528 178.861 238.039 179.765C236.551 180.67 234.849 181.164 233.108 181.198Z" fill="#395D7F"/>
<path d="M216.433 180.618H210.731V181.198H216.433V180.618Z" fill="#395D7F"/>
<path d="M233.108 179.168H70.2437C69.3508 179.185 68.4644 179.012 67.6434 178.661C66.8224 178.309 66.0857 177.787 65.4822 177.128C64.8787 176.47 64.4223 175.691 64.1432 174.842C63.8642 173.994 63.7689 173.096 63.8637 172.208L72.6623 71.2877C72.859 69.4096 73.7328 67.6674 75.1204 66.3865C76.508 65.1057 78.3145 64.3738 80.2023 64.3277H243.066C243.959 64.3113 244.845 64.4848 245.665 64.8367C246.486 65.1887 247.222 65.7111 247.826 66.3692C248.429 67.0274 248.885 67.8062 249.165 68.6542C249.444 69.5022 249.54 70.3999 249.446 71.2877L240.7 172.208C240.502 174.095 239.621 175.844 238.222 177.126C236.824 178.408 235.005 179.134 233.108 179.168Z" fill="#395D7F"/>
<path d="M229.715 177.051H70.9106C70.1502 177.062 69.3962 176.911 68.6986 176.608C68.001 176.306 67.3758 175.858 66.8645 175.295C66.3532 174.733 65.9675 174.067 65.7331 173.344C65.4987 172.62 65.421 171.855 65.505 171.1L73.5206 79.1639C73.5685 78.7032 73.7829 78.2757 74.1235 77.9618C74.4642 77.6478 74.9076 77.469 75.3708 77.4587H242.625C242.844 77.4549 243.06 77.4977 243.261 77.5841C243.461 77.6706 243.641 77.7987 243.788 77.9601C243.935 78.1214 244.046 78.3122 244.114 78.5198C244.181 78.7274 244.204 78.9469 244.18 79.1639L236.158 171.1C235.996 172.707 235.251 174.2 234.064 175.296C232.877 176.392 231.33 177.016 229.715 177.051Z" fill="white"/>
<path d="M91.1528 72.8826C90.0572 72.9013 88.9702 72.6867 87.964 72.2532C86.9577 71.8196 86.0551 71.1769 85.3163 70.3678C84.5774 69.5587 84.0191 68.6017 83.6784 67.5603C83.3377 66.5189 83.2224 65.417 83.3402 64.3276C83.5786 62.0156 84.6532 59.8703 86.3621 58.2949C88.071 56.7195 90.2965 55.8226 92.6202 55.7726C93.7155 55.7538 94.8023 55.9684 95.8083 56.402C96.8144 56.8356 97.7166 57.4784 98.455 58.2876C99.1934 59.0968 99.7512 60.0539 100.091 61.0953C100.431 62.1367 100.546 63.2386 100.427 64.3276H96.947C97.0171 63.6809 96.9487 63.0267 96.7463 62.4084C96.5439 61.7902 96.2123 61.2221 95.7733 60.742C95.3344 60.2619 94.7982 59.8808 94.2006 59.624C93.6029 59.3672 92.9574 59.2406 92.307 59.2526C90.9255 59.278 89.6012 59.8082 88.5839 60.7431C87.5666 61.6781 86.9269 62.9532 86.7854 64.3276C86.7153 64.9743 86.7837 65.6286 86.9861 66.2468C87.1884 66.865 87.5201 67.4331 87.959 67.9132C88.398 68.3933 88.9341 68.7744 89.5318 69.0312C90.1295 69.288 90.775 69.4146 91.4254 69.4026L91.1528 72.8826Z" fill="#395D7F"/>
<path d="M125.576 72.8826C124.478 72.9046 123.389 72.6925 122.38 72.2604C121.37 71.8283 120.465 71.1862 119.724 70.3767C118.982 69.5672 118.422 68.609 118.08 67.566C117.738 66.5229 117.622 65.419 117.74 64.3276C117.978 62.0156 119.053 59.8703 120.762 58.2949C122.471 56.7195 124.696 55.8226 127.02 55.7726C128.115 55.7538 129.202 55.9684 130.208 56.402C131.214 56.8356 132.116 57.4784 132.855 58.2876C133.593 59.0968 134.151 60.0539 134.491 61.0953C134.831 62.1367 134.945 63.2386 134.827 64.3276H131.347C131.417 63.6809 131.348 63.0267 131.146 62.4084C130.944 61.7902 130.612 61.2221 130.173 60.742C129.734 60.2619 129.198 59.8808 128.6 59.624C128.003 59.3672 127.357 59.2406 126.707 59.2526C125.325 59.278 124.001 59.8082 122.984 60.7431C121.966 61.6781 121.327 62.9532 121.185 64.3276C121.116 64.9742 121.185 65.628 121.388 66.2458C121.59 66.8636 121.922 67.4313 122.361 67.9112C122.8 68.3911 123.335 68.7722 123.933 69.0293C124.53 69.2865 125.175 69.4137 125.825 69.4026L125.576 72.8826Z" fill="#395D7F"/>
<path d="M159.999 72.8826C158.904 72.9005 157.817 72.6853 156.812 72.2514C155.806 71.8174 154.904 71.1746 154.166 70.3656C153.428 69.5566 152.87 68.5999 152.53 67.5589C152.189 66.5179 152.074 65.4165 152.192 64.3276C152.428 62.0147 153.502 59.8679 155.211 58.2921C156.921 56.7162 159.148 55.8201 161.472 55.7726C162.567 55.7538 163.654 55.9684 164.66 56.402C165.666 56.8356 166.568 57.4784 167.307 58.2876C168.045 59.0968 168.603 60.0539 168.943 61.0953C169.283 62.1367 169.397 63.2386 169.279 64.3276H165.799C165.87 63.6807 165.802 63.0261 165.6 62.4074C165.398 61.7888 165.066 61.2203 164.627 60.74C164.188 60.2597 163.652 59.8786 163.054 59.6221C162.455 59.3656 161.809 59.2397 161.159 59.2526C159.778 59.2781 158.454 59.8085 157.438 60.7436C156.422 61.6787 155.783 62.9537 155.643 64.3276C155.573 64.9743 155.641 65.6286 155.844 66.2468C156.046 66.865 156.378 67.4331 156.817 67.9132C157.256 68.3933 157.792 68.7744 158.389 69.0312C158.987 69.288 159.633 69.4146 160.283 69.4026L159.999 72.8826Z" fill="#395D7F"/>
<path d="M194.422 72.8826C193.327 72.9005 192.24 72.6853 191.235 72.2513C190.229 71.8174 189.327 71.1746 188.589 70.3656C187.851 69.5566 187.293 68.5999 186.953 67.5589C186.612 66.5179 186.497 65.4165 186.615 64.3276C186.852 62.0151 187.926 59.8691 189.635 58.2935C191.345 56.7179 193.571 55.8213 195.895 55.7726C196.99 55.7539 198.077 55.9685 199.084 56.4021C200.09 56.8356 200.992 57.4783 201.731 58.2874C202.47 59.0965 203.029 60.0535 203.369 61.0949C203.71 62.1363 203.825 63.2382 203.707 64.3276H200.227C200.298 63.6809 200.229 63.0266 200.027 62.4084C199.824 61.7902 199.493 61.2221 199.054 60.742C198.615 60.2619 198.079 59.8808 197.481 59.624C196.883 59.3672 196.238 59.2406 195.587 59.2526C194.207 59.2781 192.883 59.8085 191.867 60.7436C190.85 61.6787 190.212 62.9537 190.072 64.3276C190.002 64.9743 190.07 65.6286 190.272 66.2468C190.475 66.865 190.806 67.4331 191.245 67.9132C191.684 68.3933 192.22 68.7744 192.818 69.0312C193.416 69.288 194.061 69.4146 194.712 69.4026L194.422 72.8826Z" fill="#395D7F"/>
<path d="M228.845 72.8826C227.75 72.9005 226.663 72.6853 225.658 72.2513C224.652 71.8174 223.75 71.1746 223.012 70.3656C222.274 69.5566 221.716 68.5999 221.376 67.5589C221.035 66.5179 220.92 65.4165 221.038 64.3276C221.275 62.0151 222.349 59.8691 224.059 58.2935C225.768 56.7179 227.994 55.8213 230.318 55.7726C231.413 55.7539 232.5 55.9685 233.507 56.4021C234.513 56.8356 235.416 57.4783 236.154 58.2874C236.893 59.0965 237.452 60.0535 237.792 61.0949C238.133 62.1363 238.248 63.2382 238.131 64.3276H234.651C234.721 63.6809 234.652 63.0266 234.45 62.4084C234.247 61.7902 233.916 61.2221 233.477 60.742C233.038 60.2619 232.502 59.8808 231.904 59.624C231.306 59.3672 230.661 59.2406 230.011 59.2526C228.63 59.2793 227.307 59.8102 226.291 60.745C225.275 61.6799 224.636 62.9542 224.495 64.3276C224.425 64.9743 224.493 65.6286 224.695 66.2468C224.898 66.865 225.229 67.4331 225.668 67.9132C226.107 68.3933 226.643 68.7744 227.241 69.0312C227.839 69.288 228.484 69.4146 229.135 69.4026L228.845 72.8826Z" fill="#395D7F"/>
<path d="M229.297 172.881H72.3086C72.2714 172.882 72.2345 172.875 72.2003 172.86C72.1661 172.846 72.1355 172.824 72.1107 172.796C72.0858 172.769 72.0673 172.736 72.0564 172.7C72.0455 172.665 72.0425 172.627 72.0476 172.591L79.8718 82.8878C79.8789 82.8093 79.9149 82.7362 79.9727 82.6827C80.0305 82.6291 80.1062 82.5989 80.185 82.5978H237.168C237.205 82.5967 237.242 82.6037 237.277 82.6182C237.311 82.6327 237.342 82.6545 237.367 82.6819C237.393 82.7094 237.412 82.742 237.423 82.7775C237.435 82.8131 237.439 82.8506 237.435 82.8878L229.61 172.591C229.603 172.669 229.567 172.742 229.509 172.796C229.452 172.849 229.376 172.879 229.297 172.881ZM72.6508 172.301H229.054L236.831 83.1778H80.4286L72.6508 172.301Z" fill="#E0E0E0"/>
<path d="M230.84 154.941H73.8744C73.8376 154.941 73.8011 154.934 73.7674 154.919C73.7337 154.904 73.7035 154.882 73.6788 154.855C73.6542 154.827 73.6356 154.795 73.6243 154.76C73.613 154.725 73.6093 154.688 73.6134 154.651C73.6193 154.572 73.6549 154.498 73.713 154.444C73.7711 154.391 73.8474 154.361 73.9266 154.361H230.909C230.947 154.36 230.984 154.367 231.018 154.381C231.053 154.396 231.084 154.418 231.109 154.445C231.134 154.473 231.153 154.505 231.165 154.541C231.177 154.576 231.18 154.614 231.176 154.651C231.166 154.732 231.126 154.807 231.064 154.861C231.002 154.914 230.922 154.943 230.84 154.941Z" fill="#E0E0E0"/>
<path d="M232.423 137.001H75.4404C75.4033 137.002 75.3666 136.994 75.3327 136.979C75.2987 136.964 75.2682 136.943 75.2431 136.915C75.218 136.888 75.1988 136.856 75.1869 136.821C75.1749 136.786 75.1704 136.748 75.1736 136.711C75.1821 136.633 75.2193 136.559 75.2781 136.506C75.3369 136.452 75.4132 136.422 75.4926 136.421H232.475C232.513 136.42 232.55 136.427 232.584 136.442C232.619 136.456 232.65 136.478 232.675 136.506C232.7 136.533 232.719 136.566 232.731 136.601C232.743 136.637 232.746 136.674 232.742 136.711C232.733 136.79 232.695 136.862 232.636 136.916C232.578 136.969 232.502 136.999 232.423 137.001Z" fill="#E0E0E0"/>
<path d="M233.989 119.057H77.0065C76.9691 119.058 76.932 119.051 76.8976 119.036C76.8632 119.022 76.8323 119 76.807 118.972C76.7817 118.945 76.7626 118.912 76.751 118.877C76.7393 118.841 76.7355 118.804 76.7397 118.767C76.7493 118.688 76.7869 118.616 76.8454 118.562C76.9039 118.509 76.9796 118.479 77.0587 118.477H234.041C234.078 118.476 234.115 118.484 234.149 118.499C234.182 118.514 234.212 118.536 234.237 118.563C234.262 118.59 234.28 118.623 234.292 118.658C234.303 118.693 234.307 118.73 234.302 118.767C234.297 118.846 234.261 118.919 234.203 118.973C234.145 119.027 234.068 119.057 233.989 119.057Z" fill="#E0E0E0"/>
<path d="M235.555 101.117H78.5724C78.535 101.118 78.4979 101.111 78.4635 101.097C78.4291 101.082 78.3982 101.061 78.3729 101.033C78.3476 101.006 78.3285 100.973 78.3169 100.937C78.3053 100.902 78.3014 100.864 78.3056 100.827C78.3127 100.749 78.3487 100.676 78.4065 100.622C78.4644 100.569 78.54 100.538 78.6188 100.537H235.607C235.645 100.536 235.681 100.543 235.716 100.558C235.75 100.572 235.78 100.594 235.805 100.622C235.83 100.649 235.849 100.682 235.86 100.717C235.87 100.753 235.873 100.79 235.868 100.827C235.863 100.906 235.827 100.98 235.769 101.034C235.711 101.088 235.634 101.117 235.555 101.117Z" fill="#E0E0E0"/>
<path d="M209.67 172.881C209.633 172.882 209.596 172.875 209.562 172.86C209.527 172.846 209.497 172.824 209.472 172.796C209.447 172.769 209.429 172.736 209.418 172.7C209.407 172.665 209.404 172.627 209.409 172.591L217.233 82.8878C217.24 82.8093 217.276 82.7362 217.334 82.6827C217.392 82.6291 217.467 82.5989 217.546 82.5978C217.584 82.5967 217.621 82.6037 217.655 82.6182C217.69 82.6327 217.721 82.6545 217.746 82.6819C217.771 82.7094 217.79 82.742 217.802 82.7775C217.813 82.8131 217.817 82.8506 217.813 82.8878L209.989 172.591C209.98 172.67 209.943 172.743 209.884 172.796C209.826 172.85 209.749 172.88 209.67 172.881Z" fill="#E0E0E0"/>
<path d="M190.048 172.881C190.011 172.882 189.974 172.875 189.94 172.86C189.905 172.846 189.874 172.824 189.849 172.796C189.824 172.769 189.805 172.736 189.793 172.701C189.781 172.665 189.777 172.628 189.782 172.591L197.606 82.8878C197.614 82.8088 197.652 82.7357 197.71 82.6822C197.769 82.6288 197.845 82.5988 197.925 82.5978C197.962 82.5966 197.999 82.6035 198.033 82.6181C198.067 82.6327 198.098 82.6545 198.123 82.6821C198.148 82.7098 198.166 82.7425 198.177 82.778C198.188 82.8135 198.191 82.851 198.186 82.8878L190.362 172.591C190.356 172.67 190.32 172.743 190.262 172.797C190.204 172.851 190.128 172.881 190.048 172.881Z" fill="#E0E0E0"/>
<path d="M170.427 172.881C170.39 172.882 170.353 172.875 170.318 172.86C170.284 172.846 170.253 172.824 170.228 172.796C170.202 172.769 170.183 172.736 170.172 172.701C170.16 172.665 170.156 172.628 170.16 172.591L177.985 82.8878C177.993 82.8088 178.03 82.7357 178.089 82.6822C178.148 82.6288 178.224 82.5988 178.304 82.5978C178.341 82.5966 178.378 82.6035 178.412 82.6181C178.446 82.6327 178.477 82.6545 178.501 82.6821C178.526 82.7098 178.545 82.7425 178.556 82.778C178.567 82.8135 178.57 82.851 178.565 82.8878L170.74 172.591C170.733 172.669 170.697 172.742 170.639 172.796C170.582 172.849 170.506 172.879 170.427 172.881Z" fill="#E0E0E0"/>
<path d="M150.8 172.881C150.763 172.882 150.725 172.875 150.691 172.86C150.657 172.846 150.626 172.824 150.6 172.796C150.575 172.769 150.556 172.736 150.544 172.701C150.533 172.665 150.529 172.628 150.533 172.591L158.34 82.8878C158.347 82.8093 158.383 82.7362 158.441 82.6827C158.499 82.6291 158.574 82.5989 158.653 82.5978C158.69 82.5967 158.728 82.6037 158.762 82.6182C158.796 82.6327 158.827 82.6545 158.853 82.6819C158.878 82.7094 158.897 82.742 158.909 82.7775C158.92 82.8131 158.924 82.8506 158.92 82.8878L151.119 172.591C151.112 172.67 151.075 172.744 151.016 172.798C150.957 172.851 150.88 172.881 150.8 172.881Z" fill="#E0E0E0"/>
<path d="M131.178 172.881C131.141 172.882 131.104 172.875 131.07 172.86C131.036 172.846 131.005 172.824 130.981 172.796C130.956 172.769 130.937 172.736 130.926 172.7C130.915 172.665 130.912 172.627 130.917 172.591L138.742 82.8878C138.748 82.8088 138.783 82.735 138.841 82.6811C138.899 82.6273 138.976 82.5975 139.055 82.5978C139.092 82.5967 139.129 82.6037 139.164 82.6182C139.198 82.6327 139.229 82.6545 139.254 82.6819C139.28 82.7094 139.299 82.742 139.31 82.7775C139.322 82.8131 139.326 82.8506 139.322 82.8878L131.497 172.591C131.489 172.67 131.452 172.743 131.393 172.796C131.334 172.85 131.258 172.88 131.178 172.881Z" fill="#E0E0E0"/>
<path d="M111.557 172.881C111.52 172.882 111.483 172.875 111.448 172.86C111.414 172.846 111.383 172.824 111.357 172.796C111.332 172.769 111.313 172.736 111.301 172.701C111.29 172.665 111.286 172.628 111.29 172.591L119.114 82.8878C119.123 82.8088 119.16 82.7357 119.219 82.6822C119.278 82.6288 119.354 82.5988 119.433 82.5978C119.471 82.5966 119.507 82.6035 119.542 82.6181C119.576 82.6327 119.606 82.6545 119.631 82.6821C119.656 82.7098 119.675 82.7425 119.686 82.778C119.696 82.8135 119.699 82.851 119.694 82.8878L111.87 172.591C111.864 172.67 111.829 172.743 111.771 172.797C111.713 172.851 111.636 172.881 111.557 172.881Z" fill="#E0E0E0"/>
<path d="M91.9357 172.881C91.8983 172.882 91.8612 172.875 91.8268 172.86C91.7923 172.846 91.7615 172.824 91.7362 172.796C91.7109 172.769 91.6918 172.736 91.6802 172.701C91.6685 172.665 91.6647 172.628 91.6689 172.591L99.4931 82.8878C99.5016 82.8088 99.5387 82.7357 99.5975 82.6822C99.6563 82.6288 99.7326 82.5988 99.8121 82.5978C99.8492 82.5966 99.8862 82.6035 99.9203 82.6181C99.9545 82.6327 99.9851 82.6545 100.01 82.6821C100.035 82.7098 100.053 82.7425 100.064 82.778C100.075 82.8135 100.078 82.851 100.073 82.8878L92.2489 172.591C92.2417 172.669 92.2057 172.742 92.1479 172.796C92.0901 172.849 92.0145 172.879 91.9357 172.881Z" fill="#E0E0E0"/>
<path d="M171.489 116.974H159.5C159.263 116.978 159.027 116.931 158.809 116.837C158.591 116.743 158.396 116.603 158.236 116.428C158.077 116.252 157.956 116.044 157.883 115.819C157.81 115.593 157.786 115.354 157.812 115.118L158.74 104.475C158.79 103.973 159.022 103.506 159.393 103.164C159.764 102.822 160.248 102.628 160.753 102.619H172.741C172.979 102.614 173.215 102.66 173.434 102.754C173.652 102.848 173.848 102.987 174.009 103.163C174.169 103.339 174.29 103.547 174.364 103.773C174.437 103.999 174.461 104.239 174.435 104.475L173.507 115.118C173.457 115.621 173.224 116.089 172.852 116.431C172.479 116.773 171.994 116.966 171.489 116.974Z" fill="#395D7F"/>
<path opacity="0.6" d="M171.489 116.974H159.5C159.263 116.978 159.027 116.931 158.809 116.837C158.591 116.743 158.396 116.603 158.236 116.428C158.077 116.252 157.956 116.044 157.883 115.819C157.81 115.593 157.786 115.354 157.812 115.118L158.74 104.475C158.79 103.973 159.022 103.506 159.393 103.164C159.764 102.822 160.248 102.628 160.753 102.619H172.741C172.979 102.614 173.215 102.66 173.434 102.754C173.652 102.848 173.848 102.987 174.009 103.163C174.169 103.339 174.29 103.547 174.364 103.773C174.437 103.999 174.461 104.239 174.435 104.475L173.507 115.118C173.457 115.621 173.224 116.089 172.852 116.431C172.479 116.773 171.994 116.966 171.489 116.974Z" fill="white"/>
<path d="M255.136 116.974H242.533L243.78 102.619H256.389L251.65 109.8L255.136 116.974Z" fill="white"/>
<path d="M255.606 117.264H242.214L243.519 102.329H256.94L252.016 109.8L255.606 117.264ZM242.846 116.684H254.66L251.314 109.8L255.861 102.909H244.046L242.846 116.684Z" fill="#395D7F"/>
<path d="M209.055 134.914H197.067C196.829 134.919 196.594 134.873 196.376 134.779C196.157 134.686 195.962 134.547 195.802 134.372C195.641 134.197 195.52 133.989 195.446 133.764C195.372 133.538 195.347 133.3 195.373 133.064L196.301 122.415C196.353 121.913 196.588 121.448 196.959 121.107C197.331 120.766 197.815 120.573 198.319 120.565H210.308C210.545 120.561 210.78 120.607 210.998 120.701C211.216 120.795 211.411 120.934 211.571 121.109C211.731 121.284 211.852 121.491 211.926 121.716C212.001 121.941 212.026 122.179 212.002 122.415L211.074 133.064C211.021 133.565 210.787 134.031 210.415 134.371C210.043 134.712 209.56 134.905 209.055 134.914Z" fill="#395D7F"/>
<path d="M209.055 134.914H197.067C196.829 134.919 196.594 134.873 196.376 134.779C196.157 134.686 195.962 134.547 195.802 134.372C195.641 134.197 195.52 133.989 195.446 133.764C195.372 133.538 195.347 133.3 195.373 133.064L196.301 122.415C196.353 121.913 196.588 121.448 196.959 121.107C197.331 120.766 197.815 120.573 198.319 120.565H210.308C210.545 120.561 210.78 120.607 210.998 120.701C211.216 120.795 211.411 120.934 211.571 121.109C211.731 121.284 211.852 121.491 211.926 121.716C212.001 121.941 212.026 122.179 212.002 122.415L211.074 133.064C211.021 133.565 210.787 134.031 210.415 134.371C210.043 134.712 209.56 134.905 209.055 134.914Z" fill="#FCC71B"/>
<path d="M232.029 99.0349H200.199C199.961 99.0397 199.725 98.9936 199.506 98.8998C199.287 98.8059 199.091 98.6665 198.931 98.4908C198.771 98.3151 198.65 98.1071 198.576 97.8809C198.503 97.6546 198.479 97.4153 198.505 97.1789L199.433 86.5359C199.483 86.0336 199.715 85.5671 200.086 85.225C200.457 84.8828 200.941 84.6888 201.446 84.6799H233.282C233.519 84.6761 233.755 84.7228 233.973 84.8169C234.191 84.9111 234.387 85.0505 234.547 85.226C234.707 85.4016 234.828 85.6091 234.902 85.8349C234.976 86.0607 235.001 86.2997 234.975 86.5359L234.047 97.1789C233.998 97.6822 233.764 98.1495 233.392 98.4918C233.02 98.8341 232.535 99.0274 232.029 99.0349Z" fill="#395D7F"/>
<path d="M105.05 114.55C100.212 114.55 96.1814 112.839 93.322 109.562C89.6506 105.345 89.0996 100.114 91.8778 95.9029C96.0016 89.6679 106.749 86.3445 113.819 87.2667C113.856 87.2715 113.892 87.2839 113.924 87.3032C113.956 87.3225 113.983 87.3483 114.004 87.3789C114.026 87.4095 114.04 87.4443 114.047 87.4809C114.055 87.5175 114.054 87.5552 114.045 87.5915C114.027 87.6682 113.982 87.7358 113.918 87.7817C113.854 87.8276 113.776 87.8486 113.697 87.8409C106.801 86.9419 96.3496 90.1609 92.3592 96.1929C89.2156 100.949 91.031 106.007 93.7802 109.162C97.614 113.558 102.84 114.179 106.54 113.918C113.61 113.425 121.353 109.382 125.814 103.861C127.061 102.318 128.975 99.3539 127.803 96.9005C126.063 93.2291 120.263 93.4843 115.426 94.1107C115.389 94.1156 115.352 94.1129 115.317 94.1027C115.282 94.0926 115.249 94.0753 115.221 94.0519C115.192 94.0285 115.169 93.9995 115.152 93.9667C115.136 93.9339 115.126 93.898 115.124 93.8613C115.122 93.7823 115.149 93.7054 115.201 93.6453C115.252 93.5853 115.324 93.5466 115.403 93.5365C118.639 93.1131 126.214 92.1329 128.331 96.6221C129.642 99.3829 127.588 102.573 126.254 104.232C121.69 109.881 113.761 114.022 106.534 114.521C106.036 114.533 105.56 114.55 105.05 114.55Z" fill="#395D7F"/>
<path d="M201.84 131.718H201.793C201.703 131.712 201.615 131.681 201.54 131.63C201.464 131.58 201.404 131.51 201.364 131.428C200.767 130.06 199.945 128.802 198.934 127.704C198.82 127.591 198.756 127.437 198.755 127.277C198.755 127.117 198.818 126.962 198.931 126.849C199.044 126.735 199.198 126.671 199.358 126.67C199.519 126.669 199.673 126.733 199.787 126.846C200.717 127.818 201.486 128.932 202.066 130.146C204.059 128.099 206.218 126.221 208.521 124.532C208.641 124.439 208.793 124.396 208.943 124.413C209.094 124.431 209.232 124.507 209.328 124.624C209.372 124.688 209.403 124.76 209.419 124.837C209.435 124.913 209.435 124.991 209.42 125.068C209.405 125.144 209.374 125.216 209.331 125.281C209.287 125.345 209.231 125.4 209.165 125.442C206.694 127.249 204.397 129.282 202.304 131.515C202.245 131.579 202.173 131.63 202.093 131.665C202.013 131.7 201.927 131.718 201.84 131.718Z" fill="white"/>
<path d="M180.478 170.131C179.645 170.145 178.817 169.982 178.051 169.651C177.286 169.321 176.599 168.832 176.037 168.216C175.474 167.6 175.05 166.871 174.79 166.078C174.531 165.286 174.444 164.447 174.533 163.618C174.715 161.855 175.535 160.22 176.84 159.021C178.145 157.822 179.843 157.142 181.615 157.11C182.449 157.096 183.276 157.258 184.042 157.588C184.808 157.918 185.495 158.406 186.057 159.022C186.619 159.638 187.044 160.366 187.303 161.158C187.562 161.951 187.65 162.789 187.56 163.618C187.379 165.381 186.559 167.017 185.254 168.217C183.95 169.417 182.251 170.098 180.478 170.131ZM181.54 158.27C180.088 158.302 178.697 158.863 177.629 159.848C176.561 160.832 175.889 162.173 175.74 163.618C175.666 164.299 175.737 164.989 175.95 165.64C176.163 166.292 176.512 166.89 176.974 167.397C177.435 167.903 178 168.305 178.629 168.577C179.258 168.848 179.938 168.983 180.623 168.971C182.076 168.938 183.467 168.376 184.535 167.39C185.603 166.405 186.274 165.063 186.423 163.618C186.496 162.937 186.423 162.249 186.209 161.599C185.996 160.948 185.647 160.35 185.185 159.845C184.724 159.34 184.16 158.938 183.532 158.666C182.903 158.395 182.224 158.26 181.54 158.27Z" fill="#395D7F"/>
<path d="M124.7 134.183C123.866 134.197 123.039 134.033 122.273 133.703C121.507 133.373 120.82 132.883 120.258 132.267C119.696 131.651 119.271 130.923 119.012 130.13C118.753 129.337 118.665 128.499 118.755 127.669C118.936 125.902 119.76 124.263 121.07 123.063C122.379 121.862 124.084 121.184 125.86 121.156C126.694 121.142 127.521 121.306 128.287 121.636C129.053 121.966 129.739 122.456 130.302 123.072C130.864 123.688 131.289 124.416 131.548 125.209C131.807 126.002 131.895 126.84 131.805 127.669C131.622 129.436 130.798 131.075 129.489 132.275C128.18 133.475 126.476 134.154 124.7 134.183ZM125.732 122.316C124.279 122.348 122.888 122.91 121.82 123.896C120.752 124.882 120.08 126.224 119.932 127.669C119.858 128.351 119.93 129.04 120.142 129.692C120.355 130.343 120.704 130.942 121.166 131.448C121.628 131.955 122.192 132.357 122.821 132.628C123.451 132.9 124.131 133.034 124.816 133.023C126.269 132.99 127.659 132.427 128.727 131.442C129.795 130.456 130.467 129.115 130.616 127.669C130.689 126.989 130.617 126.301 130.405 125.651C130.192 125.001 129.844 124.403 129.384 123.897C128.923 123.391 128.361 122.989 127.733 122.716C127.106 122.444 126.428 122.307 125.744 122.316H125.732Z" fill="#395D7F"/>
<path opacity="0.1" d="M136.033 149.779H75.7712C75.2148 149.787 74.663 149.677 74.1523 149.456C73.6416 149.235 73.1836 148.908 72.8086 148.497C72.4336 148.086 72.1502 147.6 71.977 147.071C71.8038 146.542 71.7449 145.982 71.804 145.429C71.9267 144.253 72.4747 143.161 73.3451 142.36C74.2155 141.559 75.3484 141.104 76.531 141.079H136.793C137.349 141.071 137.901 141.181 138.412 141.402C138.923 141.623 139.381 141.95 139.756 142.361C140.131 142.772 140.414 143.258 140.587 143.787C140.76 144.316 140.819 144.876 140.76 145.429C140.638 146.606 140.09 147.697 139.219 148.498C138.349 149.299 137.216 149.754 136.033 149.779Z" fill="black"/>
<path d="M55.9063 135.958L58.1683 136.926L55.1349 140.644C54.6049 139.72 54.1919 138.735 53.9053 137.709C53.8626 137.559 53.8507 137.402 53.8702 137.247C53.8896 137.092 53.9401 136.943 54.0187 136.808C54.0972 136.673 54.2021 136.556 54.3271 136.462C54.4521 136.369 54.5947 136.302 54.7463 136.265L55.9063 135.958Z" fill="#FF8B7B"/>
<path d="M59.2064 140.94L57.8492 142.448C57.7466 142.562 57.6193 142.652 57.477 142.709C57.3346 142.767 57.1809 142.792 57.0276 142.781C56.8743 142.77 56.7255 142.725 56.5925 142.648C56.4594 142.571 56.3457 142.465 56.26 142.337L55.1348 140.667L58.1682 136.949L59.392 139.849C59.4713 140.029 59.496 140.228 59.463 140.422C59.43 140.616 59.3408 140.796 59.2064 140.94Z" fill="#FF8B7B"/>
<path d="M138.991 148.318L60.5462 142.1C59.992 142.063 59.4518 141.91 58.9612 141.65C58.4705 141.389 58.0404 141.028 57.6992 140.59C57.358 140.152 57.1133 139.646 56.9812 139.107C56.8491 138.568 56.8326 138.006 56.9328 137.46C57.1484 136.297 57.7813 135.252 58.7126 134.523C59.6439 133.794 60.8094 133.429 61.9904 133.499L140.435 139.71C140.99 139.746 141.531 139.899 142.022 140.159C142.513 140.419 142.943 140.78 143.285 141.218C143.626 141.657 143.871 142.163 144.002 142.703C144.134 143.242 144.15 143.804 144.049 144.35C143.833 145.514 143.201 146.559 142.269 147.289C141.338 148.02 140.173 148.385 138.991 148.318Z" fill="#395D7F"/>
<path d="M83.6419 111.714C84.6221 113.924 85.6255 116.191 86.6405 118.395C87.6555 120.599 88.7053 122.838 89.8305 124.775C90.0691 125.179 90.3346 125.567 90.6251 125.935C90.9731 126.347 91.3617 126.771 91.7561 127.206C92.5623 128.07 93.4265 128.946 94.2907 129.804C96.0307 131.544 97.7707 133.284 99.5107 135.099L97.7707 137.367C95.5725 136.1 93.4428 134.718 91.3907 133.226C90.3583 132.478 89.3491 131.701 88.3399 130.854C87.8353 130.43 87.3365 129.978 86.8261 129.485C86.2931 128.928 85.8063 128.329 85.3703 127.693C83.9179 125.517 82.6138 123.246 81.4669 120.895C80.3359 118.604 79.2977 116.325 78.3291 113.935L83.6419 111.714Z" fill="#FF8B7B"/>
<path d="M64.4613 111.36C63.1447 113.511 61.7933 115.675 60.4419 117.815L56.4109 124.241L55.9179 125.042L55.8599 125.146V125.193V125.227C55.8309 125.272 55.8057 125.318 55.7845 125.367C55.6496 125.756 55.5677 126.162 55.5409 126.573C55.4747 127.695 55.5077 128.821 55.6395 129.937C55.8889 132.303 56.3587 134.803 56.8575 137.222L54.1663 138.219C52.938 135.839 51.9659 133.335 51.2663 130.749C50.8849 129.361 50.6574 127.935 50.5877 126.498C50.5472 125.628 50.6292 124.757 50.8313 123.911C50.9125 123.656 50.9763 123.424 51.0865 123.151L51.2663 122.757L51.3417 122.6L51.3939 122.496L51.8405 121.62C53.0005 119.3 54.2823 117.049 55.5757 114.822C56.8691 112.595 58.2147 110.408 59.6357 108.239L64.4613 111.36Z" fill="#FF8B7B"/>
<path d="M79.8081 95.2998C79.7037 95.584 79.7675 95.8798 79.9531 95.961C80.1387 96.0422 80.3765 95.8681 80.4867 95.5781C80.5969 95.2881 80.5273 94.9982 80.3417 94.917C80.1561 94.8358 79.9183 95.0098 79.8081 95.2998Z" fill="#263238"/>
<path d="M79.7384 95.874C79.7509 96.9002 79.8991 97.9202 80.1792 98.9074C79.9289 98.967 79.6685 98.9703 79.4168 98.9172C79.165 98.864 78.9282 98.7557 78.7234 98.6L79.7384 95.874Z" fill="#FF5652"/>
<path d="M80.8693 93.6059C80.8319 93.599 80.7975 93.5808 80.7707 93.5537C80.5968 93.411 80.3914 93.3119 80.1715 93.2645C79.9516 93.2171 79.7236 93.2227 79.5063 93.2811C79.4831 93.2871 79.4589 93.2884 79.4351 93.285C79.4114 93.2815 79.3885 93.2733 79.368 93.2609C79.3475 93.2484 79.3296 93.232 79.3155 93.2126C79.3014 93.1931 79.2914 93.1711 79.2859 93.1477C79.2755 93.1015 79.2836 93.0531 79.3086 93.013C79.3336 92.9728 79.3734 92.9441 79.4193 92.9331C79.6954 92.8593 79.9852 92.8534 80.264 92.9161C80.5427 92.9787 80.8022 93.1079 81.0201 93.2927C81.037 93.3094 81.0503 93.3293 81.0595 93.3512C81.0686 93.3731 81.0733 93.3965 81.0733 93.4203C81.0733 93.444 81.0686 93.4675 81.0595 93.4894C81.0503 93.5113 81.037 93.5311 81.0201 93.5479C81.0013 93.5686 80.9778 93.5847 80.9516 93.5948C80.9254 93.6048 80.8973 93.6086 80.8693 93.6059Z" fill="#263238"/>
<path d="M69.2347 95.8682C68.8693 98.9886 69.4667 102.921 67.3323 104.487C67.3323 104.487 67.7789 107.387 72.9119 108.182C78.5553 109.017 75.9163 105.763 75.9163 105.763C72.9177 104.562 73.2483 102.283 74.0197 100.201L69.2347 95.8682Z" fill="#FF8B7B"/>
<path d="M65.54 106.447C65.4646 105.009 65.54 102.84 66.4332 102.526C67.4076 102.184 73.167 102.642 76.0554 105.258C75.3942 106.563 75.0561 108.007 75.0694 109.469L65.54 106.447Z" fill="#263238"/>
<path d="M47.8907 235.811C47.3685 235.767 46.86 235.622 46.3943 235.381C46.3781 235.373 46.3645 235.361 46.3553 235.346C46.346 235.33 46.3414 235.312 46.3421 235.294C46.3434 235.277 46.3496 235.261 46.3599 235.248C46.3702 235.235 46.3842 235.224 46.4001 235.219C46.4523 235.219 47.6123 234.755 48.1401 235.004C48.197 235.032 48.2475 235.07 48.2884 235.118C48.3294 235.166 48.3599 235.222 48.3779 235.283C48.4103 235.353 48.4194 235.433 48.4037 235.509C48.3881 235.585 48.3486 235.654 48.2909 235.706C48.1749 235.789 48.0324 235.826 47.8907 235.811ZM46.6669 235.312C47.2005 235.55 47.9603 235.735 48.1633 235.567C48.1633 235.567 48.2445 235.503 48.1633 235.335C48.152 235.298 48.1332 235.265 48.1083 235.236C48.0834 235.207 48.0527 235.183 48.0183 235.167C47.5632 235.086 47.0946 235.136 46.6669 235.312Z" fill="#395D7F"/>
<path d="M46.4348 235.393C46.4106 235.392 46.3877 235.381 46.371 235.364C46.3628 235.351 46.3584 235.336 46.3584 235.32C46.3584 235.305 46.3628 235.29 46.371 235.277C46.371 235.23 46.6958 234.175 47.2062 233.925C47.269 233.897 47.3373 233.882 47.4063 233.882C47.4754 233.882 47.5436 233.897 47.6064 233.925C47.6744 233.942 47.7343 233.981 47.7757 234.038C47.8171 234.094 47.8373 234.163 47.8326 234.233C47.8326 234.668 46.8988 235.294 46.4812 235.393H46.4348ZM47.4092 234.053C47.357 234.054 47.3056 234.065 47.2584 234.088C46.9288 234.366 46.692 234.738 46.5798 235.155C47.0148 234.958 47.6122 234.465 47.6296 234.204C47.6296 234.204 47.6296 234.117 47.5194 234.076C47.4848 234.061 47.4472 234.053 47.4092 234.053Z" fill="#395D7F"/>
<path d="M77.0473 237.498C76.6581 237.497 76.2698 237.46 75.8873 237.388C75.8709 237.382 75.8568 237.371 75.8468 237.356C75.8369 237.342 75.8315 237.325 75.8315 237.307C75.8315 237.289 75.8369 237.272 75.8468 237.258C75.8568 237.243 75.8709 237.232 75.8873 237.226C76.0787 237.11 77.7723 236.141 78.1783 236.814C78.2195 236.873 78.2416 236.942 78.2416 237.014C78.2416 237.086 78.2195 237.156 78.1783 237.214C78.0043 237.429 77.5345 237.498 77.0473 237.498ZM76.1599 237.255C76.8791 237.359 77.8477 237.342 78.0101 237.11C78.0101 237.11 78.0623 237.034 78.0101 236.907C77.7549 236.524 76.7225 236.959 76.1599 237.255Z" fill="#395D7F"/>
<path d="M75.8874 237.394C75.8724 237.4 75.8559 237.4 75.841 237.394C75.8274 237.386 75.8164 237.373 75.8092 237.359C75.8021 237.345 75.799 237.329 75.8004 237.313C75.8154 236.777 76.0025 236.261 76.334 235.84C76.4026 235.782 76.4821 235.738 76.5677 235.711C76.6533 235.684 76.7434 235.675 76.8328 235.683C77.088 235.712 77.1634 235.84 77.1808 235.944C77.2504 236.385 76.3862 237.191 75.928 237.4L75.8874 237.394ZM76.7632 235.845C76.6484 235.846 76.5374 235.887 76.45 235.961C76.1824 236.292 76.0243 236.697 75.9976 237.121C76.4558 236.837 77.0474 236.199 77.001 235.932C77.001 235.932 77.001 235.84 76.8154 235.822L76.7632 235.845Z" fill="#395D7F"/>
<path d="M71.6938 237.301H75.5102L75.5508 228.456H71.7286L71.6938 237.301Z" fill="#FF8B7B"/>
<path d="M42.1138 234.563L45.6924 235.393L48.6968 226.646L45.1182 225.817L42.1138 234.563Z" fill="#FF8B7B"/>
<path d="M46.2493 234.801L42.0907 233.74C42.0182 233.719 41.9408 233.726 41.8726 233.758C41.8045 233.79 41.7501 233.845 41.7195 233.914L40.2869 237.052C40.2522 237.13 40.2352 237.215 40.2372 237.3C40.2392 237.386 40.26 237.47 40.2983 237.546C40.3365 237.623 40.3912 237.69 40.4584 237.743C40.5256 237.795 40.6037 237.833 40.6871 237.852C42.1487 238.194 42.8737 238.287 44.7007 238.745C45.8259 239.029 48.1227 239.731 49.6771 240.12C51.2315 240.508 51.7593 239.006 51.1503 238.71C48.4301 237.359 47.5427 236.222 46.8003 235.161C46.6645 234.98 46.4695 234.853 46.2493 234.801Z" fill="#263238"/>
<path d="M75.4696 236.86H71.2994C71.2242 236.86 71.1513 236.886 71.0932 236.934C71.035 236.981 70.9951 237.048 70.9804 237.121L70.3598 240.514C70.3453 240.598 70.3495 240.684 70.372 240.767C70.3946 240.849 70.435 240.925 70.4904 240.99C70.5458 241.055 70.6148 241.106 70.6924 241.142C70.7701 241.177 70.8545 241.194 70.9398 241.193C72.442 241.193 74.6112 241.083 76.502 241.083C78.7176 241.083 78.7582 241.199 81.3508 241.199C82.9168 241.199 83.2938 239.615 82.6326 239.459C79.6166 238.809 79.0482 238.74 76.4034 237.139C76.1234 236.962 75.8004 236.866 75.4696 236.86Z" fill="#263238"/>
<path d="M62.8604 104.226C59.2296 104.516 54.1082 113.622 54.1082 113.622L60.6854 119.578C62.7337 117.285 64.5974 114.834 66.2592 112.247C68.8402 108.112 66.5724 103.93 62.8604 104.226Z" fill="#395D7F"/>
<path opacity="0.6" d="M62.8604 104.226C59.2296 104.516 54.1082 113.622 54.1082 113.622L60.6854 119.578C62.7337 117.285 64.5974 114.834 66.2592 112.247C68.8402 108.112 66.5724 103.93 62.8604 104.226Z" fill="white"/>
<path opacity="0.2" d="M64.7165 110.78L60.3723 119.283L60.6797 119.567C60.6797 119.567 62.3617 117.728 64.2351 115.194L64.7165 110.78Z" fill="black"/>
<path d="M81.0552 124.642C80.3998 128.853 79.3616 134.061 77.7666 140.476L57.5652 137.46C57.7508 134.56 60.8422 121.632 60.2332 107.752C60.2116 107.29 60.2853 106.828 60.4497 106.396C60.614 105.963 60.8656 105.569 61.1886 105.238C61.5117 104.907 61.8994 104.645 62.3278 104.47C62.7561 104.295 63.2158 104.21 63.6784 104.22C64.676 104.22 65.7722 104.295 66.851 104.4C69.736 104.663 72.6039 105.089 75.4408 105.676C77.3859 106.168 79.2901 106.81 81.1364 107.596C81.1364 107.596 82.5864 109.724 81.8034 118.581C81.6468 120.338 81.409 122.339 81.0552 124.642Z" fill="#395D7F"/>
<path opacity="0.6" d="M81.0552 124.642C80.3998 128.853 79.3616 134.061 77.7666 140.476L57.5652 137.46C57.7508 134.56 60.8422 121.632 60.2332 107.752C60.2116 107.29 60.2853 106.828 60.4497 106.396C60.614 105.963 60.8656 105.569 61.1886 105.238C61.5117 104.907 61.8994 104.645 62.3278 104.47C62.7561 104.295 63.2158 104.21 63.6784 104.22C64.676 104.22 65.7722 104.295 66.851 104.4C69.736 104.663 72.6039 105.089 75.4408 105.676C77.3859 106.168 79.2901 106.81 81.1364 107.596C81.1364 107.596 82.5864 109.724 81.8034 118.581C81.6468 120.338 81.409 122.339 81.0552 124.642Z" fill="white"/>
<path opacity="0.2" d="M81.055 124.642C79.4136 123.604 77.8766 118.842 78.5668 116.331L81.8032 118.593C81.6466 120.338 81.4088 122.339 81.055 124.642Z" fill="black"/>
<path d="M76.5136 110.2C75.4696 113.68 81.7916 123.928 81.7916 123.928L89.3316 119.984C88.2226 116.772 86.735 113.704 84.9004 110.844C81.8786 106.395 77.72 106.267 76.5136 110.2Z" fill="#395D7F"/>
<path opacity="0.6" d="M76.5136 110.2C75.4696 113.68 81.7916 123.928 81.7916 123.928L89.3316 119.984C88.2226 116.772 86.735 113.704 84.9004 110.844C81.8786 106.395 77.72 106.267 76.5136 110.2Z" fill="white"/>
<path opacity="0.2" d="M75.545 228.462L75.5276 233.021H71.7112L71.7286 228.462H75.545Z" fill="black"/>
<path opacity="0.2" d="M45.1182 225.823L48.6968 226.646L47.1424 231.159L43.5696 230.329L45.1182 225.823Z" fill="black"/>
<path d="M70.5571 90.735C69.4493 94.3716 68.6199 96.4364 69.7103 98.9884C70.0487 99.8239 70.61 100.55 71.3329 101.089C72.0559 101.627 72.9127 101.957 73.8102 102.042C74.7076 102.127 75.6111 101.964 76.4223 101.571C77.2334 101.177 77.9211 100.569 78.4103 99.812C80.3475 96.912 81.8323 91.4716 78.9381 88.6354C78.3307 88.0026 77.567 87.5416 76.7241 87.2991C75.8813 87.0565 74.9893 87.041 74.1385 87.2542C73.2878 87.4673 72.5085 87.9015 71.8795 88.5127C71.2506 89.124 70.7944 89.8906 70.5571 90.735Z" fill="#FF8B7B"/>
<path d="M76.3977 94.7313C75.9627 96.5931 74.8317 99.9513 72.0477 100.34C70.4933 100.554 67.9065 100.096 67.6687 98.8435C67.4309 97.5907 68.3937 97.7589 68.1501 96.7323C67.9065 95.7057 66.6363 92.0923 68.0805 89.5635C66.0737 89.7317 67.4483 86.7563 71.0501 86.0835C69.9365 85.6485 70.4701 82.6035 76.0265 84.0535C78.6249 84.7205 80.5563 85.7413 80.7883 87.1391C83.1547 88.1367 83.7811 90.6481 82.3137 91.5645C80.8463 92.4809 78.7235 91.4485 78.7235 91.4485C78.7235 91.4485 79.7269 96.7613 76.3977 94.7313Z" fill="#263238"/>
<path d="M74.8838 94.4468C74.8329 95.282 75.0886 96.107 75.603 96.7668C76.2932 97.6484 76.5252 97.6542 76.8094 96.674C77.0704 95.7924 77.7026 93.8204 76.7804 93.2984C75.8582 92.7764 74.965 93.4318 74.8838 94.4468Z" fill="#FF8B7B"/>
<path d="M70.6035 139.409C70.6035 139.409 67.4657 169.36 65.5401 180.287C63.3941 192.258 49.1377 230.747 49.1377 230.747L42.3401 229.065C45.8201 215.725 50.9763 190.884 54.1141 181.372C56.4805 166.912 54.1141 148.735 57.5941 137.472L70.6035 139.409Z" fill="#263238"/>
<path d="M50.721 228.52L49.4683 230.973L41.8354 229.053L42.4677 226.733L50.721 228.52Z" fill="#395D7F"/>
<path opacity="0.2" d="M68.6664 151.09C68.8827 151.047 69.1054 151.047 69.3218 151.09C68.3184 160.034 66.8916 171.97 65.7664 178.82C64.8268 168.867 63.9568 152.018 68.6664 151.09Z" fill="black"/>
<path d="M77.7664 140.476C77.7664 140.476 79.3498 172.48 79.5818 184.121C79.8196 196.231 76.9196 232.139 76.9196 232.139H70.4468C70.4468 232.139 68.005 198.841 69.3216 182.601C67.7614 170.23 64.4902 138.521 64.4902 138.521L77.7664 140.476Z" fill="#263238"/>
<path d="M101.123 134.734C100.071 134.647 99.0121 134.797 98.0259 135.175L97.5561 135.952C97.4647 136.106 97.4093 136.278 97.3938 136.457C97.3784 136.635 97.4034 136.814 97.4669 136.982C97.5305 137.149 97.631 137.3 97.7609 137.423C97.8908 137.546 98.0468 137.638 98.2173 137.692L100.485 138.417L101.593 138.753C101.826 138.826 102.076 138.822 102.307 138.744C102.538 138.666 102.739 138.517 102.881 138.318L103.356 137.657C103.527 137.424 103.604 137.135 103.573 136.847C103.542 136.56 103.405 136.294 103.188 136.103L102.167 135.181C101.876 134.923 101.51 134.767 101.123 134.734Z" fill="#FF8B7B"/>
<path d="M78.0623 229.558L77.8013 232.244H69.9307L69.6292 229.848L78.0623 229.558Z" fill="#395D7F"/>
</svg>
