<svg width="427" height="284" viewBox="0 0 427 284" fill="none" xmlns="http://www.w3.org/2000/svg">
<path d="M319.675 76.8052H107.371C102.789 76.8052 99.0754 80.5104 99.0754 85.0809V219.538C99.0754 224.108 102.789 227.814 107.371 227.814H319.675C324.256 227.814 327.97 224.108 327.97 219.538V85.0809C327.97 80.5104 324.256 76.8052 319.675 76.8052Z" fill="#395D7F"/>
<path d="M89.505 216.647H337.495V219.754C337.495 222.435 336.427 225.007 334.527 226.903C332.626 228.799 330.049 229.864 327.361 229.864H99.6334C96.9457 229.864 94.368 228.799 92.4675 226.903C90.567 225.007 89.4993 222.435 89.4993 219.754V216.647H89.505Z" fill="#395D7F"/>
<path d="M321.19 82.8091H105.224V210.336H321.19V82.8091Z" fill="#E0E0E0"/>
<path d="M190.96 216.647L194.035 221.532H237.338L240.196 216.647H190.96Z" fill="#455A64"/>
<path d="M315.32 87.126H111.532C110.504 87.126 109.671 87.9575 109.671 88.9833V208.07C109.671 209.096 110.504 209.928 111.532 209.928H315.32C316.348 209.928 317.181 209.096 317.181 208.07V88.9833C317.181 87.9575 316.348 87.126 315.32 87.126Z" fill="#395D7F"/>
<path d="M317.181 96.123H109.671V209.928H317.181V96.123Z" fill="#FAFAFA"/>
<path d="M126.688 91.8685C126.687 92.1952 126.589 92.5142 126.406 92.7853C126.223 93.0563 125.964 93.2673 125.661 93.3915C125.359 93.5158 125.026 93.5477 124.705 93.4833C124.384 93.4188 124.089 93.261 123.858 93.0296C123.627 92.7982 123.469 92.5037 123.406 92.1832C123.342 91.8627 123.376 91.5307 123.501 91.229C123.627 90.9273 123.839 90.6695 124.111 90.4881C124.384 90.3068 124.704 90.21 125.031 90.21C125.249 90.21 125.465 90.2529 125.667 90.3363C125.868 90.4197 126.051 90.542 126.205 90.6961C126.359 90.8502 126.481 91.0331 126.564 91.2342C126.646 91.4354 126.689 91.651 126.688 91.8685Z" fill="#FFC2C8"/>
<path d="M116.645 91.8685C116.644 92.1952 116.546 92.5142 116.363 92.7853C116.18 93.0563 115.921 93.2673 115.618 93.3915C115.316 93.5158 114.983 93.5477 114.662 93.4833C114.341 93.4188 114.046 93.261 113.815 93.0296C113.584 92.7982 113.426 92.5037 113.363 92.1832C113.299 91.8627 113.333 91.5307 113.458 91.229C113.584 90.9273 113.796 90.6695 114.068 90.4881C114.341 90.3068 114.661 90.21 114.988 90.21C115.206 90.21 115.422 90.2529 115.624 90.3363C115.825 90.4197 116.008 90.542 116.162 90.6961C116.316 90.8502 116.438 91.0331 116.521 91.2342C116.603 91.4354 116.646 91.651 116.645 91.8685Z" fill="#FFC2C8"/>
<path d="M121.467 91.8685C121.466 92.1952 121.368 92.5142 121.185 92.7853C121.003 93.0563 120.743 93.2673 120.441 93.3915C120.138 93.5158 119.805 93.5477 119.484 93.4833C119.163 93.4188 118.868 93.261 118.637 93.0296C118.406 92.7982 118.249 92.5037 118.185 92.1832C118.122 91.8627 118.155 91.5307 118.28 91.229C118.406 90.9273 118.618 90.6695 118.891 90.4881C119.163 90.3068 119.483 90.21 119.811 90.21C120.029 90.21 120.245 90.2529 120.446 90.3363C120.647 90.4197 120.83 90.542 120.984 90.6961C121.138 90.8502 121.26 91.0331 121.343 91.2342C121.426 91.4354 121.468 91.651 121.467 91.8685Z" fill="#FFC2C8"/>
<path d="M264.882 143.523L265.526 143.471C265.736 143.471 265.998 143.403 266.311 143.352C266.665 143.269 267.013 143.163 267.353 143.034C268.309 142.667 269.172 142.095 269.881 141.359C270.329 140.889 270.712 140.362 271.02 139.791C271.361 139.135 271.598 138.43 271.72 137.701C271.88 136.763 271.845 135.803 271.616 134.879C271.387 133.956 270.969 133.09 270.39 132.335C269.81 131.58 269.08 130.953 268.246 130.492C267.412 130.031 266.492 129.747 265.543 129.658C264.974 129.618 264.404 129.624 263.835 129.624H258.364H250.302L161.975 129.663C160.388 129.671 158.853 130.225 157.627 131.23C156.401 132.236 155.56 133.632 155.246 135.184C155.046 136.199 155.075 137.244 155.331 138.246C155.722 139.726 156.598 141.033 157.82 141.96C159.041 142.886 160.538 143.378 162.072 143.358H165.135H188.586L228.297 143.386L255.056 143.437H262.332H264.228H264.871C264.871 143.437 264.655 143.437 264.228 143.437H262.332L255.056 143.466L228.297 143.511L188.586 143.545H162.072C161.018 143.563 159.973 143.344 159.015 142.903C158.039 142.465 157.175 141.814 156.485 140.999C155.795 140.183 155.298 139.222 155.03 138.189C154.755 137.142 154.724 136.046 154.94 134.986C155.157 133.925 155.614 132.928 156.276 132.072C156.947 131.201 157.809 130.495 158.796 130.01C159.783 129.524 160.869 129.272 161.97 129.271L250.296 129.317H258.358H263.841C264.41 129.317 264.979 129.317 265.549 129.357C266.704 129.473 267.813 129.872 268.778 130.516C269.744 131.161 270.535 132.033 271.083 133.054C271.632 134.076 271.92 135.216 271.923 136.375C271.925 137.534 271.643 138.676 271.1 139.7C270.78 140.276 270.388 140.809 269.932 141.285C269.206 142.02 268.328 142.59 267.359 142.955C267.013 143.08 266.659 143.183 266.3 143.261C265.987 143.307 265.731 143.352 265.514 143.369C265.104 143.523 264.882 143.523 264.882 143.523Z" fill="#395D7F"/>
<path d="M264.882 143.522H251.418V129.538H264.882C266.741 129.538 268.524 130.275 269.838 131.586C271.153 132.897 271.891 134.676 271.891 136.53C271.891 138.385 271.153 140.163 269.838 141.474C268.524 142.786 266.741 143.522 264.882 143.522Z" fill="#FCC71B"/>
<path d="M262.531 135.212C262.503 135.212 262.503 134.98 262.389 134.576C262.225 134.017 261.881 133.528 261.41 133.185C261.118 132.967 260.783 132.815 260.428 132.737C260.072 132.66 259.704 132.66 259.348 132.738C258.992 132.815 258.658 132.968 258.366 133.185C258.075 133.403 257.834 133.681 257.659 133.999C257.485 134.318 257.381 134.67 257.355 135.033C257.33 135.395 257.382 135.758 257.509 136.099C257.637 136.439 257.836 136.748 258.093 137.005C258.35 137.261 258.66 137.46 259.001 137.587C259.401 137.732 259.83 137.777 260.251 137.718C260.672 137.659 261.072 137.496 261.415 137.246C261.884 136.899 262.227 136.408 262.389 135.849C262.503 135.451 262.503 135.212 262.531 135.212C262.542 135.271 262.542 135.33 262.531 135.388C262.54 135.553 262.525 135.717 262.486 135.877C262.354 136.485 262.014 137.027 261.523 137.411C261.156 137.698 260.722 137.888 260.261 137.963C259.8 138.039 259.328 137.997 258.887 137.842C258.344 137.649 257.874 137.293 257.541 136.823C257.209 136.352 257.031 135.791 257.031 135.215C257.031 134.64 257.209 134.078 257.541 133.608C257.874 133.138 258.344 132.781 258.887 132.588C259.327 132.431 259.799 132.388 260.26 132.462C260.721 132.537 261.156 132.727 261.523 133.014C262.013 133.399 262.353 133.941 262.486 134.548C262.525 134.709 262.54 134.876 262.531 135.042C262.542 135.098 262.542 135.156 262.531 135.212Z" fill="#263238"/>
<path d="M266.112 139.66C265.346 139.317 264.62 138.891 263.949 138.388C263.227 137.967 262.556 137.463 261.95 136.888C263.446 137.646 264.843 138.583 266.112 139.677V139.66Z" fill="#263238"/>
<path d="M163.666 140.461C163.519 139.141 163.469 137.812 163.518 136.485C163.469 135.158 163.519 133.829 163.666 132.509C163.814 133.829 163.864 135.158 163.814 136.485C163.863 137.812 163.814 139.141 163.666 140.461Z" fill="#455A64"/>
<path d="M180.262 167.64H146.62V200.112H180.262V167.64Z" fill="#395D7F" fill-opacity="0.05"/>
<path d="M169.394 177.375C169.395 177.854 169.254 178.323 168.988 178.722C168.721 179.121 168.343 179.432 167.899 179.616C167.456 179.799 166.968 179.848 166.497 179.755C166.026 179.661 165.593 179.431 165.254 179.092C164.914 178.753 164.683 178.322 164.59 177.852C164.496 177.382 164.545 176.895 164.729 176.453C164.913 176.01 165.225 175.632 165.625 175.367C166.024 175.101 166.494 174.96 166.974 174.961C167.616 174.961 168.231 175.216 168.685 175.668C169.139 176.121 169.394 176.735 169.394 177.375Z" fill="#FFC727"/>
<path d="M177.632 197.426C177.632 197.426 177.632 197.374 177.632 197.289C177.632 197.204 177.632 197.068 177.632 196.914C177.632 196.566 177.632 196.077 177.632 195.449C177.632 194.165 177.632 192.302 177.592 189.939C177.592 185.196 177.552 178.437 177.524 170.332L177.661 170.468H149.239C149.2 170.502 149.541 170.167 149.399 170.315V173.978C149.399 175.198 149.399 176.404 149.399 177.597V184.6C149.399 189.144 149.399 193.444 149.399 197.403L149.262 197.261L169.809 197.335L175.611 197.369H177.148H177.547H177.683H177.564H177.177H175.668L169.901 197.408L149.262 197.477H149.12V197.34C149.12 193.364 149.12 189.082 149.12 184.538V177.625C149.12 176.432 149.12 175.226 149.12 174.007V170.343C148.978 170.48 149.319 170.139 149.285 170.179H177.706H177.848V170.315C177.814 178.46 177.791 185.242 177.774 190.007C177.774 192.359 177.746 194.211 177.74 195.489C177.74 196.108 177.74 196.585 177.74 196.926C177.74 197.079 177.74 197.198 177.74 197.289C177.713 197.341 177.676 197.387 177.632 197.426Z" fill="#455A64"/>
<path d="M233.814 167.64H200.172V200.112H233.814V167.64Z" fill="#FCC71B"/>
<path d="M222.94 177.375C222.94 177.853 222.798 178.32 222.532 178.717C222.266 179.114 221.888 179.423 221.446 179.606C221.004 179.788 220.517 179.836 220.048 179.743C219.579 179.65 219.147 179.42 218.809 179.082C218.471 178.745 218.24 178.315 218.147 177.846C218.053 177.378 218.101 176.893 218.285 176.452C218.468 176.011 218.778 175.634 219.176 175.368C219.574 175.103 220.041 174.961 220.52 174.961C221.162 174.961 221.777 175.216 222.231 175.668C222.685 176.121 222.94 176.735 222.94 177.375Z" fill="#395D7F"/>
<path d="M231.206 197.426C231.206 197.426 231.206 197.374 231.206 197.289C231.206 197.204 231.206 197.068 231.206 196.914C231.206 196.566 231.206 196.077 231.206 195.449C231.206 194.165 231.206 192.302 231.172 189.939C231.172 185.196 231.132 178.437 231.104 170.332L231.24 170.468H202.819L202.973 170.315V177.597C202.973 179.982 202.973 182.315 202.973 184.594C202.973 189.138 202.973 193.438 202.973 197.397L202.831 197.255L223.384 197.329L229.179 197.363H230.717H231.115H231.257H231.132H230.751H229.236L223.475 197.403L202.831 197.471H202.694V197.335C202.694 193.359 202.694 189.076 202.694 184.532C202.694 182.26 202.694 179.927 202.694 177.534V170.343C202.552 170.48 202.888 170.139 202.859 170.179H231.28H231.417V170.315C231.417 178.46 231.366 185.242 231.349 190.007C231.349 192.359 231.32 194.211 231.309 195.489C231.309 196.108 231.309 196.585 231.309 196.926C231.309 197.079 231.309 197.198 231.309 197.289C231.279 197.338 231.244 197.383 231.206 197.426Z" fill="#455A64"/>
<path d="M287.365 167.64H253.723V200.112H287.365V167.64Z" fill="#395D7F" fill-opacity="0.05"/>
<path d="M276.491 177.375C276.492 177.854 276.351 178.323 276.085 178.722C275.819 179.121 275.44 179.432 274.997 179.616C274.553 179.799 274.065 179.848 273.594 179.755C273.123 179.661 272.69 179.431 272.351 179.092C272.011 178.753 271.78 178.322 271.687 177.852C271.593 177.382 271.642 176.895 271.826 176.453C272.01 176.01 272.322 175.632 272.722 175.367C273.122 175.101 273.591 174.96 274.071 174.961C274.713 174.961 275.329 175.216 275.782 175.668C276.236 176.121 276.491 176.735 276.491 177.375Z" fill="#FCC71B"/>
<path d="M284.758 197.426C284.754 197.38 284.754 197.335 284.758 197.289C284.758 197.193 284.758 197.068 284.758 196.914C284.758 196.566 284.758 196.077 284.758 195.449C284.758 194.165 284.758 192.302 284.724 189.939C284.724 185.196 284.678 178.437 284.65 170.332L284.792 170.468H256.365C256.331 170.502 256.667 170.167 256.525 170.315V177.597C256.525 179.982 256.525 182.315 256.525 184.594C256.525 189.138 256.525 193.438 256.525 197.397L256.388 197.255L276.941 197.329L282.737 197.363H284.274H284.672H284.815H284.69H284.302H282.794L277.026 197.403L256.388 197.471H256.2V197.335C256.2 193.359 256.2 189.076 256.2 184.532C256.2 182.26 256.2 179.927 256.2 177.534V170.343C256.058 170.48 256.394 170.139 256.36 170.179H284.786H284.923V170.315C284.923 178.46 284.866 185.242 284.849 190.007C284.849 192.359 284.849 194.211 284.815 195.489C284.815 196.108 284.815 196.585 284.815 196.926C284.815 197.079 284.815 197.198 284.815 197.289C284.815 197.38 284.758 197.426 284.758 197.426Z" fill="#455A64"/>
<path d="M234.73 113.101H192.122V116.662H234.73V113.101Z" fill="#455A64"/>
<path d="M326.006 216.647C326.006 216.732 275.199 216.794 212.544 216.794C149.888 216.794 99.0754 216.732 99.0754 216.647C99.0754 216.562 149.871 216.499 212.544 216.499C275.216 216.499 326.006 216.567 326.006 216.647Z" fill="#455A64"/>
<path d="M66.6747 154.462C63.4523 154.984 62.0119 158.938 62.2909 162.181C62.5698 165.424 63.9135 168.605 63.5548 171.837C63.0993 175.949 59.9851 179.425 59.6207 183.549C59.1937 188.411 62.6381 192.722 63.6686 197.493C64.1697 199.817 64.0956 202.27 64.961 204.48C65.6968 206.366 67.0659 207.938 68.8347 208.929C70.6034 209.919 72.662 210.267 74.6588 209.911C76.6556 209.556 78.4669 208.52 79.7832 206.98C81.0995 205.441 81.8391 203.493 81.8759 201.469C81.9442 197.738 79.6384 194.222 79.9174 190.496C80.1224 187.747 81.7393 185.134 81.3977 182.396C80.9821 179.141 77.9817 176.83 76.8886 173.723C75.7954 170.616 76.8487 167.191 76.4786 163.925C75.8182 158.069 72.5616 153.99 66.6747 154.456" fill="#FFC2C8"/>
<path d="M50.2096 182.816C49.6402 188.241 52.0656 194.625 54.861 199.288C57.6921 204.004 61.9558 207.696 67.0334 209.83C67.6027 210.069 68.3144 210.268 68.7926 209.881C68.9621 209.695 69.0895 209.474 69.1661 209.234C69.2427 208.994 69.2668 208.74 69.2367 208.49C69.2759 202.73 67.443 197.113 64.0126 192.48C60.5822 187.848 55.7393 184.449 50.2096 182.793" fill="#FFC2C8"/>
<path opacity="0.2" d="M50.2096 182.816C49.6402 188.241 52.0656 194.625 54.861 199.288C57.6921 204.004 61.9558 207.696 67.0334 209.83C67.6027 210.069 68.3144 210.268 68.7926 209.881C68.9621 209.695 69.0895 209.474 69.1661 209.234C69.2427 208.994 69.2668 208.74 69.2367 208.49C69.2759 202.73 67.443 197.113 64.0126 192.48C60.5822 187.848 55.7393 184.449 50.2096 182.793" fill="black"/>
<path d="M73.8995 221.196C73.8357 221.103 73.7841 221.001 73.7458 220.895L73.353 220.003C73.0285 219.231 72.5388 218.118 71.9183 216.749C70.2986 213.183 68.4971 209.702 66.521 206.32C64.5332 202.95 62.3765 199.682 60.059 196.528C59.1709 195.312 58.4364 194.341 57.9183 193.688L57.349 192.915C57.2743 192.829 57.2111 192.734 57.1611 192.631C57.2505 192.703 57.3309 192.785 57.4003 192.876L58.0322 193.614C58.5731 194.256 59.336 195.21 60.2526 196.409C62.6197 199.536 64.8002 202.8 66.7829 206.184C68.7677 209.574 70.5491 213.079 72.1175 216.68C72.6869 218.066 73.1765 219.191 73.4668 219.986C73.6035 220.355 73.7117 220.656 73.8027 220.895C73.8476 220.991 73.8801 221.092 73.8995 221.196Z" fill="#395D7F"/>
<path d="M70.398 169.474C70.4299 169.647 70.449 169.821 70.455 169.997C70.455 170.366 70.5176 170.86 70.5631 171.491C70.6485 172.814 70.7681 174.688 70.9218 176.989C71.2122 181.629 71.6278 188.042 72.1231 195.119C72.6184 202.197 73.1137 208.609 73.4781 213.25C73.6546 215.522 73.7969 217.413 73.8994 218.742C73.9393 219.367 73.9734 219.878 74.0019 220.236C74.0157 220.41 74.0157 220.585 74.0019 220.759C73.9641 220.589 73.9394 220.416 73.9279 220.242C73.888 219.873 73.8368 219.379 73.7685 218.754L73.2504 213.267C72.8291 208.632 72.3053 202.225 71.8043 195.142C71.3033 188.059 70.9275 181.646 70.6656 177C70.5574 174.7 70.472 172.825 70.4094 171.496C70.3866 170.864 70.3696 170.364 70.3582 169.997C70.3577 169.822 70.3711 169.647 70.398 169.474Z" fill="#395D7F"/>
<path d="M65.3938 213.46H79.0123V223.434C79.0123 224.29 78.8432 225.138 78.5147 225.929C78.1863 226.721 77.7048 227.439 77.0979 228.045C76.491 228.65 75.7705 229.131 74.9775 229.458C74.1845 229.786 73.3346 229.955 72.4763 229.955C70.8046 229.954 69.1965 229.316 67.9821 228.17C66.7677 227.023 66.0392 225.457 65.9461 223.792L65.3938 213.46Z" fill="#455A64"/>
<path d="M367.436 213.301C369.499 212.337 371.818 212.056 374.052 212.5C375.253 212.699 376.506 213.068 377.32 213.954C378.134 214.84 378.294 216.437 377.354 217.209C376.749 217.616 376.02 217.801 375.293 217.732C373.545 217.732 371.604 217.402 370.209 218.453C369.412 219.021 368.882 220.049 367.932 220.344C367.455 220.45 366.957 220.4 366.511 220.201C366.065 220.003 365.695 219.667 365.455 219.242C364.998 218.367 364.898 217.35 365.176 216.402C365.288 215.747 365.551 215.126 365.943 214.588C366.335 214.05 366.846 213.61 367.436 213.301Z" fill="#FFC2C8"/>
<path d="M362.83 204.423C364.06 206.178 366.451 205.599 367.556 204.525C368.66 203.452 369.133 201.907 369.56 200.424C370.539 197.05 371.519 193.506 370.795 190.064C370.625 189.013 370.166 188.03 369.469 187.224C369.12 186.83 368.673 186.535 368.173 186.368C367.673 186.202 367.138 186.17 366.622 186.275C365.415 186.593 364.669 187.769 364.123 188.888C362.53 192.198 361.696 195.821 361.68 199.493C361.68 201.197 361.874 202.992 362.819 204.4" fill="#FFC2C8"/>
<path d="M359.449 206.939C360.08 206.116 360.501 205.151 360.675 204.129C360.848 203.106 360.769 202.057 360.445 201.072C359.772 199.102 358.566 197.356 356.961 196.028C355.133 194.408 353.005 193.16 350.698 192.353C349.808 191.994 348.85 191.831 347.891 191.876C347.412 191.905 346.947 192.05 346.536 192.298C346.125 192.546 345.781 192.891 345.534 193.302C344.879 194.551 345.534 196.062 346.189 197.278C347.388 199.465 348.759 201.554 350.288 203.526C351.518 205.11 352.924 206.667 354.797 207.382C356.67 208.098 358.612 208.013 359.608 206.718" fill="#FFC2C8"/>
<path d="M362.745 230.869C362.811 230.607 362.85 230.339 362.859 230.068C362.916 229.5 362.984 228.762 363.07 227.899C363.178 226.827 363.341 225.761 363.559 224.706C363.838 223.425 364.219 222.167 364.698 220.946C365.176 219.726 365.824 218.579 366.622 217.538C367.274 216.694 368.106 216.005 369.059 215.522C369.704 215.201 370.396 214.985 371.109 214.88C371.377 214.871 371.645 214.832 371.906 214.766C371.637 214.739 371.366 214.739 371.097 214.766C370.355 214.825 369.63 215.018 368.956 215.334C367.954 215.807 367.075 216.505 366.389 217.374C365.554 218.425 364.881 219.595 364.39 220.844C363.9 222.083 363.519 223.362 363.252 224.667C363.044 225.734 362.901 226.814 362.825 227.899C362.756 228.819 362.728 229.568 362.717 230.085C362.699 230.347 362.708 230.61 362.745 230.869Z" fill="#395D7F"/>
<path d="M362.893 229.193C362.911 229.071 362.911 228.947 362.893 228.824V227.768C362.893 226.848 362.893 225.524 362.939 223.883C363.018 220.605 363.303 216.078 363.85 211.108C364.396 206.138 365.131 201.657 365.797 198.442C365.951 197.641 366.11 196.914 366.258 196.283C366.406 195.653 366.52 195.096 366.639 194.653C366.759 194.21 366.822 193.898 366.884 193.625C366.923 193.508 366.946 193.385 366.953 193.262C366.893 193.371 366.849 193.487 366.822 193.608L366.514 194.619C366.378 195.062 366.241 195.608 366.081 196.238C365.922 196.869 365.74 197.59 365.569 198.396C364.657 202.581 363.973 206.811 363.519 211.069C362.95 216.056 362.728 220.594 362.705 223.877C362.705 225.524 362.705 226.853 362.762 227.773C362.762 228.199 362.813 228.552 362.831 228.824C362.838 228.949 362.859 229.073 362.893 229.193Z" fill="#395D7F"/>
<path d="M362.916 220.441C362.947 220.074 362.947 219.705 362.916 219.339C362.854 218.336 362.74 217.337 362.574 216.345C362.027 213.073 361.087 209.879 359.773 206.831C358.508 203.752 356.691 200.928 354.41 198.499C354.014 198.082 353.592 197.691 353.146 197.329C352.953 197.164 352.782 196.999 352.611 196.869C352.44 196.738 352.269 196.641 352.121 196.533C351.825 196.312 351.513 196.113 351.188 195.937C352.26 196.78 353.279 197.689 354.239 198.658C356.446 201.108 358.215 203.916 359.472 206.962C360.198 208.623 360.812 210.331 361.31 212.074C361.789 213.676 362.108 215.152 362.347 216.391C362.586 217.629 362.705 218.663 362.785 219.35C362.802 219.716 362.846 220.081 362.916 220.441Z" fill="#395D7F"/>
<path d="M378.362 108.215L346.2 108.88L347.066 150.719L379.244 150.861L378.362 108.215Z" fill="#FCC71B"/>
<path d="M376.278 109.749L348.136 110.328L348.922 148.276L377.081 148.64L376.278 109.749Z" fill="#FAFAFA"/>
<path d="M371.49 116.747L352.804 116.423L353.351 142.943L372.025 142.557L371.49 116.747Z" fill="#395D7F"/>
<path d="M353.351 142.943L371.746 128.93L352.804 116.423L353.351 142.943Z" fill="#395D7F"/>
<path d="M367.414 73.5391L345.329 73.9935L345.927 102.723L368.017 102.819L367.414 73.5391Z" fill="#395D7F"/>
<path d="M365.985 74.5898L346.656 74.9874L347.197 101.042L366.531 101.297L365.985 74.5898Z" fill="#FAFAFA"/>
<path d="M362.694 79.3952L349.861 79.168L350.237 97.3837L363.064 97.1168L362.694 79.3952Z" fill="#FCC71B"/>
<path d="M358.469 88.0402C358.469 88.0402 358.549 87.8357 358.617 87.4722C358.719 86.9493 358.642 86.4077 358.401 85.9329C358.211 85.5492 357.918 85.2257 357.555 84.9983C357.191 84.7709 356.772 84.6485 356.343 84.6448C355.914 84.6411 355.493 84.7562 355.126 84.9774C354.759 85.1985 354.46 85.517 354.264 85.8973C354.067 86.2776 353.98 86.7049 354.013 87.1315C354.045 87.5582 354.196 87.9675 354.448 88.3138C354.699 88.6602 355.043 88.93 355.439 89.0933C355.835 89.2566 356.27 89.3069 356.693 89.2386C357.236 89.1571 357.736 88.8949 358.111 88.4946C358.372 88.2162 358.469 88.0231 358.492 88.0345C358.441 88.2348 358.339 88.4186 358.196 88.5684C357.837 89.0146 357.33 89.3186 356.767 89.4261C356.346 89.5102 355.91 89.486 355.501 89.3558C355.091 89.2256 354.722 88.9938 354.427 88.682C354.061 88.2966 353.823 87.8074 353.747 87.2817C353.671 86.756 353.761 86.2198 354.003 85.7469C354.245 85.274 354.629 84.8877 355.1 84.6413C355.572 84.3948 356.108 84.3004 356.636 84.3709C357.062 84.4268 357.466 84.5896 357.812 84.8439C358.157 85.0982 358.432 85.4357 358.612 85.825C358.853 86.344 358.903 86.9311 358.754 87.4835C358.705 87.6891 358.607 87.8799 358.469 88.0402Z" fill="#395D7F"/>
<path d="M359.545 93.1519C359.046 92.5649 358.625 91.9157 358.293 91.2207C357.877 90.5746 357.546 89.8778 357.308 89.1475C357.802 89.7372 358.221 90.3859 358.555 91.0787C358.968 91.7269 359.301 92.4231 359.545 93.1519Z" fill="#395D7F"/>
<path d="M378.96 229.858C378.96 229.943 306.928 230.006 218.089 230.006C129.25 230.006 57.2009 229.943 57.2009 229.858C57.2009 229.773 129.222 229.71 218.089 229.71C306.956 229.71 378.96 229.779 378.96 229.858Z" fill="#395D7F"/>
<path d="M285.435 159.165C285.435 159.165 285.942 153.775 286.454 153.82C286.967 153.866 287.052 154.82 286.99 155.286C286.927 155.751 286.99 157.558 286.99 157.558L285.435 159.165Z" fill="#FFBE9D"/>
<path d="M331.796 154.752L329.206 172.928L341.162 225.036L308.14 227.672L322.374 143.755C322.374 143.755 331.768 142.693 331.796 154.752Z" fill="#395D7F"/>
<path d="M291.197 246.478L289.29 267.983H297.437L301.029 246.478H291.197Z" fill="#FFBE9D"/>
<path d="M289.29 267.982C289.29 267.982 283.79 268.692 282.811 269.397L297.221 269.226L297.437 267.982H289.29Z" fill="#FFBE9D"/>
<path d="M282.811 269.403V269.976L297.648 269.817V269.198L282.811 269.403Z" fill="#FFC2C8"/>
<path d="M288.083 269.732C288.003 269.766 287.77 269.323 287.291 268.977C286.813 268.63 286.329 268.522 286.341 268.443C286.352 268.363 286.91 268.34 287.479 268.749C288.049 269.158 288.134 269.715 288.083 269.732Z" fill="#FFC2C8"/>
<path d="M297.625 267.557C297.625 267.636 296.634 267.835 295.507 268.369C294.38 268.903 293.583 269.505 293.526 269.465C294.023 268.865 294.663 268.398 295.387 268.108C296.074 267.736 296.844 267.546 297.625 267.557Z" fill="#FFC2C8"/>
<path d="M297.289 267.205C294.614 267.263 291.939 267.129 289.284 266.801C290.612 266.728 291.944 266.749 293.27 266.864C294.616 266.88 295.959 266.993 297.289 267.205Z" fill="#FFC2C8"/>
<path d="M298.245 264.375C296.797 264.788 295.323 265.105 293.833 265.324C292.361 265.64 290.87 265.864 289.369 265.994C290.819 265.587 292.293 265.27 293.782 265.046C295.254 264.731 296.745 264.507 298.245 264.375Z" fill="#FFC2C8"/>
<path d="M298.103 264.478C297.731 264.483 297.363 264.403 297.027 264.245C296.65 264.096 296.291 263.906 295.957 263.677C295.756 263.546 295.566 263.4 295.387 263.24C295.277 263.144 295.191 263.023 295.137 262.887C295.107 262.808 295.096 262.723 295.104 262.638C295.112 262.554 295.139 262.472 295.182 262.399C295.233 262.326 295.303 262.268 295.384 262.232C295.465 262.196 295.555 262.183 295.644 262.195C295.781 262.214 295.915 262.252 296.042 262.308C296.266 262.4 296.478 262.518 296.674 262.66C297.009 262.895 297.295 263.192 297.517 263.535C297.746 263.833 297.879 264.194 297.898 264.569C297.853 264.569 297.744 264.171 297.329 263.649C297.1 263.346 296.821 263.084 296.503 262.876C296.326 262.752 296.135 262.649 295.934 262.569C295.723 262.473 295.484 262.433 295.422 262.569C295.389 262.656 295.386 262.751 295.415 262.839C295.444 262.927 295.503 263.002 295.581 263.052C295.745 263.206 295.918 263.35 296.099 263.484C296.415 263.701 296.748 263.891 297.095 264.052C297.705 264.336 298.109 264.432 298.103 264.478Z" fill="#FFC2C8"/>
<path d="M298.029 264.688C297.851 264.364 297.78 263.992 297.824 263.626C297.842 263.235 297.926 262.851 298.075 262.49C298.164 262.271 298.278 262.063 298.416 261.871C298.489 261.765 298.569 261.665 298.655 261.57C298.707 261.506 298.772 261.454 298.846 261.418C298.919 261.381 299 261.362 299.082 261.359C299.169 261.365 299.254 261.393 299.326 261.442C299.398 261.491 299.455 261.559 299.492 261.638C299.555 261.769 299.582 261.913 299.572 262.058C299.561 262.296 299.523 262.533 299.458 262.762C299.341 263.149 299.147 263.508 298.889 263.819C298.681 264.124 298.382 264.356 298.035 264.483C298.035 264.444 298.359 264.222 298.724 263.7C298.934 263.394 299.088 263.054 299.179 262.694C299.236 262.485 299.266 262.269 299.27 262.052C299.27 261.836 299.185 261.643 299.054 261.643C298.923 261.643 298.752 261.859 298.621 262.03C298.493 262.208 298.382 262.398 298.291 262.598C298.139 262.938 298.041 263.3 298.001 263.671C297.961 264.262 298.075 264.688 298.029 264.688Z" fill="#FFC2C8"/>
<path d="M299.122 268.028C298.747 267.544 298.477 266.986 298.331 266.392C298.095 265.812 297.988 265.188 298.018 264.563C298.261 265.124 298.451 265.705 298.587 266.301C298.814 266.86 298.993 267.438 299.122 268.028Z" fill="#FFC2C8"/>
<path d="M300.096 267.267C298.979 266.596 298.15 265.539 297.767 264.296C297.847 264.256 298.24 265.006 298.906 265.818C299.572 266.63 300.147 267.198 300.096 267.267Z" fill="#FFC2C8"/>
<path d="M321.605 248.239L338.298 261.439L342.266 255.645L327.344 239.44L321.605 248.239Z" fill="#FFBE9D"/>
<path d="M337.12 261.763C337.12 261.763 334.552 266.665 334.575 267.874L342.682 255.992L341.788 255.1L337.12 261.763Z" fill="#FFBE9D"/>
<path d="M334.574 267.874L335.047 268.204L343.411 255.98L342.904 255.623L334.574 267.874Z" fill="#FFC2C8"/>
<path d="M337.848 263.774C337.848 263.853 337.336 263.774 336.778 263.99C336.22 264.205 335.856 264.512 335.793 264.461C335.73 264.41 336.044 263.933 336.687 263.717C337.33 263.501 337.882 263.706 337.848 263.774Z" fill="#FFC2C8"/>
<path d="M341.538 254.703C341.617 254.737 341.202 255.674 340.997 256.901C340.792 258.128 340.849 259.139 340.763 259.173C340.434 257.646 340.712 256.052 341.538 254.725V254.703Z" fill="#FFC2C8"/>
<path d="M341.082 254.39C340.456 255.426 339.75 256.412 338.97 257.338C338.26 258.324 337.476 259.254 336.624 260.121C337.251 259.082 337.959 258.095 338.742 257.168C339.446 256.181 340.229 255.252 341.082 254.39Z" fill="#FFC2C8"/>
<path d="M339.289 252.374C338.864 253.633 338.352 254.861 337.757 256.049C337.248 257.274 336.651 258.46 335.969 259.599C336.395 258.342 336.906 257.116 337.501 255.93C338.008 254.702 338.606 253.514 339.289 252.374Z" fill="#FFC2C8"/>
<path d="M339.283 252.55C339.311 252.55 339.044 252.908 338.474 253.3C338.143 253.53 337.786 253.721 337.41 253.868C337.188 253.958 336.96 254.03 336.727 254.084C336.584 254.115 336.436 254.115 336.294 254.084C336.211 254.062 336.135 254.022 336.07 253.967C336.005 253.912 335.953 253.843 335.918 253.766C335.888 253.682 335.881 253.592 335.898 253.505C335.915 253.418 335.955 253.337 336.015 253.271C336.108 253.17 336.215 253.082 336.334 253.01C336.888 252.66 337.534 252.484 338.19 252.505C338.566 252.486 338.938 252.585 339.254 252.789C339.254 252.834 338.844 252.686 338.19 252.709C337.582 252.725 336.99 252.91 336.482 253.243C336.282 253.362 336.112 253.538 336.174 253.658C336.226 253.735 336.303 253.792 336.393 253.819C336.482 253.846 336.578 253.841 336.664 253.805C336.884 253.758 337.1 253.697 337.313 253.624C337.677 253.495 338.029 253.335 338.366 253.147C338.941 252.794 339.254 252.516 339.283 252.55Z" fill="#FFC2C8"/>
<path d="M339.402 252.721C339.034 252.679 338.688 252.524 338.412 252.277C338.091 252.04 337.817 251.745 337.603 251.408C337.474 251.209 337.369 250.996 337.29 250.772C337.244 250.654 337.208 250.533 337.182 250.409C337.159 250.33 337.153 250.247 337.164 250.166C337.176 250.084 337.205 250.006 337.25 249.937C337.306 249.87 337.378 249.818 337.46 249.787C337.542 249.756 337.631 249.747 337.717 249.761C337.859 249.787 337.992 249.848 338.104 249.937C338.294 250.083 338.466 250.251 338.617 250.437C338.875 250.746 339.069 251.103 339.186 251.488C339.317 251.833 339.336 252.21 339.243 252.567C339.177 252.226 339.093 251.889 338.993 251.556C338.86 251.207 338.667 250.884 338.423 250.602C338.281 250.44 338.123 250.294 337.951 250.165C337.786 250.028 337.564 250 337.484 250.108C337.404 250.216 337.484 250.477 337.558 250.676C337.63 250.874 337.721 251.064 337.831 251.244C338.024 251.564 338.266 251.851 338.548 252.096C339.027 252.544 339.42 252.675 339.402 252.721Z" fill="#FFC2C8"/>
<path d="M342.79 253.748C342.164 253.786 341.537 253.69 340.951 253.464C340.332 253.326 339.749 253.057 339.243 252.675C340.426 253.005 341.601 253.363 342.767 253.748H342.79Z" fill="#FFC2C8"/>
<path d="M342.739 252.516C342.165 252.821 341.522 252.976 340.871 252.965C340.225 253.048 339.567 252.962 338.964 252.715C338.964 252.635 339.824 252.715 340.854 252.681C341.885 252.646 342.693 252.431 342.739 252.516Z" fill="#FFC2C8"/>
<path d="M305.516 183.362C305.516 183.362 299.139 225.615 300.067 227.666C300.995 229.716 321.639 250.8 321.639 250.8L329.388 237.56C329.388 237.56 315.724 222.457 315.923 221.656C316.122 220.855 325.773 179.959 325.773 179.959L305.516 183.362Z" fill="#FFC2C8"/>
<path d="M306.985 235.652L312.427 223.724L318.69 210.331C314.88 215.827 311.638 221.694 309.011 227.842C307.991 230.344 307.31 232.97 306.985 235.652Z" fill="#FFC2C8"/>
<path opacity="0.4" d="M306.985 235.652L312.427 223.724L318.69 210.331C314.88 215.827 311.638 221.694 309.011 227.842C307.991 230.344 307.31 232.97 306.985 235.652Z" fill="black"/>
<path d="M303.25 198.959C303.312 198.511 308.453 186.974 308.453 186.974L305.954 183.464L305.516 183.368L303.25 198.959Z" fill="#FFC2C8"/>
<path opacity="0.4" d="M303.25 198.959C303.312 198.511 308.453 186.974 308.453 186.974L305.954 183.464L305.516 183.368L303.25 198.959Z" fill="black"/>
<path d="M329.394 179.386L329.775 180.953C330.916 185.577 330.22 190.462 327.834 194.585L310.549 224.479C309.321 226.603 308.428 228.901 307.901 231.295L303.597 250.607C303.597 250.607 290.007 251.067 289.421 250.607C288.834 250.147 291.174 237.361 292.734 227.677C293.913 220.373 303.705 197.704 308.453 186.997L305.516 183.384L310.64 182.538L329.394 179.386Z" fill="#FFC2C8"/>
<path d="M303.597 250.585C303.412 250.638 303.221 250.669 303.028 250.676C302.663 250.715 302.145 250.761 301.496 250.8C300.204 250.886 298.41 250.948 296.435 250.942C294.459 250.937 292.666 250.88 291.374 250.812C290.725 250.783 290.201 250.749 289.842 250.721C289.65 250.726 289.458 250.701 289.273 250.647C289.461 250.614 289.652 250.602 289.842 250.613H291.374L296.429 250.658C298.405 250.658 300.187 250.63 301.479 250.602L303.016 250.562C303.21 250.54 303.406 250.548 303.597 250.585Z" fill="#395D7F"/>
<path d="M304.343 246.955C304.343 247.035 301.075 247.086 297.05 247.069C293.025 247.052 289.751 246.978 289.751 246.904C289.751 246.83 293.019 246.773 297.05 246.785C301.081 246.796 304.343 246.876 304.343 246.955Z" fill="#395D7F"/>
<path d="M327.014 234.823C326.941 235.012 326.843 235.192 326.724 235.357L325.841 236.754L322.915 241.349L320 245.95L319.106 247.341C319.006 247.519 318.884 247.683 318.741 247.83C318.807 247.631 318.897 247.44 319.009 247.262C319.197 246.921 319.476 246.427 319.823 245.825C320.529 244.621 321.531 242.985 322.67 241.173C323.809 239.361 324.885 237.765 325.676 236.629C326.074 236.061 326.399 235.595 326.632 235.277C326.74 235.11 326.868 234.958 327.014 234.823Z" fill="#395D7F"/>
<path d="M320.825 249.659C320.519 249.102 320.296 248.503 320.165 247.881C319.942 247.287 319.812 246.663 319.778 246.029C320.083 246.585 320.306 247.182 320.438 247.801C320.659 248.398 320.79 249.024 320.825 249.659Z" fill="#395D7F"/>
<path d="M322.032 249.619C321.725 248.649 321.51 247.653 321.389 246.643C321.176 245.649 321.058 244.637 321.036 243.621C321.553 245.585 321.887 247.593 322.032 249.619Z" fill="#395D7F"/>
<path d="M323.609 247.375C323.306 246.53 323.068 245.662 322.897 244.78C322.633 243.921 322.442 243.041 322.328 242.15C322.715 242.965 322.998 243.826 323.171 244.712C323.434 245.576 323.581 246.472 323.609 247.375Z" fill="#395D7F"/>
<path d="M324.953 244.269C324.644 243.46 324.429 242.62 324.309 241.764C324.093 240.924 323.971 240.063 323.945 239.196C324.247 240.008 324.462 240.85 324.588 241.707C324.802 242.545 324.924 243.404 324.953 244.269Z" fill="#395D7F"/>
<path d="M326.689 241.696C326.433 240.884 326.229 240.057 326.08 239.219C325.834 238.402 325.643 237.569 325.511 236.726C325.907 237.49 326.186 238.309 326.336 239.157C326.584 239.98 326.703 240.836 326.689 241.696Z" fill="#395D7F"/>
<path d="M328.238 239.514C327.929 238.875 327.711 238.197 327.589 237.498C327.372 236.821 327.246 236.118 327.213 235.408C327.735 236.726 328.079 238.106 328.238 239.514Z" fill="#395D7F"/>
<path d="M296.52 246.813C295.428 247.487 294.302 248.104 293.144 248.659C292.036 249.302 290.896 249.888 289.728 250.414C290.008 250.158 290.32 249.938 290.656 249.761C291.226 249.392 292.085 248.909 293.03 248.409C293.975 247.909 294.847 247.495 295.484 247.211C295.811 247.034 296.159 246.901 296.52 246.813Z" fill="#395D7F"/>
<path d="M300.711 246.875C300.381 247.147 300.022 247.382 299.64 247.574C298.957 247.966 298.006 248.483 296.93 249.017C295.854 249.551 294.858 249.988 294.129 250.289C293.747 250.478 293.344 250.621 292.928 250.715C293.283 250.47 293.665 250.267 294.066 250.107L296.816 248.761L299.56 247.398C299.924 247.183 300.309 247.008 300.711 246.875Z" fill="#395D7F"/>
<path d="M303.899 246.875C303.087 247.694 302.194 248.429 301.234 249.068C300.328 249.78 299.353 250.403 298.325 250.925C299.191 250.17 300.106 249.471 301.064 248.835C301.968 248.125 302.915 247.471 303.899 246.875Z" fill="#395D7F"/>
<path d="M304.246 248.875C304.297 248.937 303.768 249.443 303.062 249.966C302.663 250.332 302.203 250.624 301.701 250.829C302.032 250.399 302.434 250.03 302.891 249.738C303.289 249.374 303.747 249.082 304.246 248.875Z" fill="#395D7F"/>
<path d="M292.803 246.745C292.274 247.223 291.684 247.63 291.049 247.955C290.459 248.36 289.818 248.685 289.142 248.921C290.26 248.037 291.491 247.305 292.803 246.745Z" fill="#395D7F"/>
<path d="M308.078 186.872C307.88 187.518 307.639 188.15 307.355 188.764C306.888 189.9 306.216 191.518 305.544 193.308C304.872 195.097 304.252 196.716 303.836 197.852C303.627 198.492 303.376 199.118 303.085 199.726C303.104 199.546 303.144 199.368 303.204 199.198C303.301 198.863 303.449 198.38 303.643 197.783C304.03 196.596 304.605 194.943 305.294 193.188C305.983 191.433 306.672 189.82 307.19 188.684C307.452 188.116 307.668 187.662 307.827 187.349C307.89 187.18 307.974 187.02 308.078 186.872Z" fill="#395D7F"/>
<path d="M306.66 237.004C306.647 236.893 306.647 236.78 306.66 236.669C306.689 236.419 306.734 236.101 306.78 235.715C306.825 235.328 306.905 234.794 307.036 234.209C307.167 233.624 307.269 232.96 307.474 232.238C307.571 231.881 307.674 231.5 307.776 231.102C307.879 230.705 308.027 230.307 308.157 229.887C308.408 229.046 308.755 228.183 309.097 227.24C309.898 225.248 310.806 223.301 311.818 221.407C313.691 217.99 315.757 214.683 318.007 211.501C318.855 210.274 319.561 209.291 320.057 208.615L320.626 207.843C320.69 207.75 320.763 207.662 320.842 207.582C320.799 207.686 320.744 207.785 320.677 207.877C320.535 208.081 320.364 208.348 320.148 208.678L318.172 211.614C316.549 214.097 314.272 217.544 312.092 221.52C311.085 223.404 310.175 225.338 309.364 227.314C309.017 228.234 308.658 229.103 308.402 229.938C308.266 230.358 308.123 230.756 308.009 231.142C307.896 231.528 307.793 231.909 307.696 232.278C307.48 232.994 307.349 233.658 307.212 234.232C307.076 234.806 306.979 235.311 306.911 235.72C306.842 236.129 306.785 236.419 306.74 236.663C306.725 236.779 306.698 236.893 306.66 237.004Z" fill="#395D7F"/>
<path d="M323.609 143.801L310.236 144.937C310.236 144.937 306.25 145.028 301.878 155.161L298.735 165.214L304.389 166.419V166.987L305.527 183.362L329.644 179.488C329.695 177.409 328.506 174.376 327.634 171.536C328.54 169.293 332.349 159.5 332.343 154.786C332.343 144.704 323.604 143.835 323.604 143.835" fill="white"/>
<path d="M329.388 237.549C329.331 237.748 329.249 237.939 329.143 238.117C328.967 238.463 328.705 238.957 328.369 239.565C327.697 240.781 326.729 242.439 325.636 244.251L322.812 248.869L321.958 250.278C321.866 250.456 321.751 250.622 321.616 250.772C321.673 250.573 321.756 250.382 321.861 250.204C322.038 249.857 322.3 249.363 322.636 248.755C323.307 247.54 324.275 245.881 325.368 244.069L328.169 239.435L329.023 238.032C329.125 237.857 329.248 237.695 329.388 237.549Z" fill="#395D7F"/>
<path d="M326.228 167.878C325.638 168.163 324.998 168.331 324.344 168.372C323.703 168.5 323.043 168.5 322.402 168.372C323.027 168.211 323.666 168.11 324.31 168.071C324.942 167.946 325.584 167.881 326.228 167.878Z" fill="white"/>
<path d="M305.573 167.077L305.299 184.85L312.53 144.374C310.127 143.948 305.647 145.834 303.962 148.225C302.755 149.657 302.094 152.951 298.735 162.868L296.674 169.599L288.316 160.471L282.686 165.549C282.686 165.549 292.398 181.38 296.458 182.254C301.98 183.447 305.567 167.077 305.567 167.077" fill="#455A64"/>
<path d="M306.728 150.634C306.732 150.867 306.707 151.1 306.654 151.327C306.58 151.827 306.484 152.463 306.364 153.195C306.119 154.774 305.795 156.956 305.493 159.375C305.191 161.795 304.98 163.993 304.832 165.584C304.764 166.333 304.707 166.964 304.656 167.464C304.653 167.698 304.62 167.931 304.559 168.157C304.536 167.924 304.536 167.69 304.559 167.458C304.559 167.009 304.599 166.367 304.645 165.566C304.736 163.97 304.924 161.767 305.214 159.318C305.504 156.87 305.874 154.712 306.17 153.139C306.324 152.355 306.455 151.719 306.552 151.281C306.591 151.061 306.65 150.844 306.728 150.634Z" fill="#395D7F"/>
<path d="M304.855 149.855C304.827 149.776 305.948 149.287 307.224 148.515C308.499 147.743 309.427 146.947 309.501 147.01C308.257 148.373 306.653 149.357 304.872 149.85L304.855 149.855Z" fill="white"/>
<path d="M302.544 161.573C302.255 160.915 302.021 160.235 301.843 159.54C301.576 158.874 301.363 158.189 301.206 157.489C301.967 158.727 302.426 160.126 302.544 161.573Z" fill="white"/>
<path d="M308.408 155.178C308.487 155.969 308.429 156.769 308.237 157.541C308.139 158.333 307.902 159.102 307.537 159.813C307.63 159.034 307.771 158.262 307.958 157.501C308.059 156.718 308.209 155.942 308.408 155.178Z" fill="white"/>
<path d="M300.272 170.673C300.276 171.371 300.219 172.069 300.101 172.757C300.073 173.458 299.985 174.156 299.84 174.842C299.663 173.438 299.811 172.011 300.272 170.673Z" fill="white"/>
<path d="M289.586 170.531C288.965 169.857 288.454 169.091 288.072 168.259C287.605 167.469 287.264 166.613 287.058 165.72C287.524 166.499 287.946 167.303 288.322 168.128C288.786 168.906 289.208 169.708 289.586 170.531Z" fill="white"/>
<path d="M295.7 170.968C295.252 171.394 294.721 171.725 294.14 171.94C293.596 172.24 292.995 172.424 292.375 172.479C292.895 172.159 293.447 171.892 294.021 171.684C294.555 171.389 295.118 171.15 295.7 170.968Z" fill="white"/>
<path d="M324.657 176.58L328.841 226.206L341.446 225.019L329.479 172.911L330.942 158.921L324.657 176.58Z" fill="#455A64"/>
<path d="M328.841 226.206C328.767 226.206 327.839 215.204 326.775 201.617C325.71 188.031 324.919 177.017 324.993 177.012C325.067 177.006 326 188.008 327.059 201.595C328.118 215.181 328.921 226.201 328.841 226.206Z" fill="#395D7F"/>
<path d="M327.629 177.727C327.715 177.157 327.893 176.604 328.158 176.092C328.341 175.545 328.61 175.031 328.955 174.569C328.695 175.689 328.246 176.757 327.629 177.727Z" fill="white"/>
<path d="M331.107 185.111C331.039 185.162 330.413 184.435 329.53 183.657C328.966 183.219 328.425 182.752 327.908 182.26C328.591 182.521 329.21 182.926 329.724 183.447C330.297 183.899 330.768 184.466 331.107 185.111Z" fill="white"/>
<path d="M330.339 195.068C330.567 194.485 330.831 193.915 331.13 193.364C331.342 192.768 331.591 192.186 331.876 191.621C331.861 192.269 331.693 192.906 331.386 193.478C331.167 194.083 330.808 194.628 330.339 195.068Z" fill="white"/>
<path d="M333.06 203.06C331.841 202.264 330.735 201.309 329.769 200.22C330.393 200.583 330.967 201.023 331.477 201.532C332.069 201.971 332.601 202.484 333.06 203.06Z" fill="white"/>
<path d="M335.337 208.547C335.159 206.953 335.17 205.344 335.372 203.753C335.503 204.545 335.545 205.349 335.497 206.15C335.537 206.952 335.484 207.757 335.337 208.547Z" fill="white"/>
<path d="M331.295 212.273C331.134 211.65 331.033 211.013 330.993 210.37C330.865 209.74 330.794 209.099 330.783 208.456C331.077 209.041 331.253 209.678 331.301 210.33C331.429 210.972 331.427 211.632 331.295 212.273Z" fill="white"/>
<path d="M335.468 217.022C334.26 217.033 333.057 216.854 331.904 216.493C332.509 216.439 333.118 216.482 333.709 216.618C334.313 216.662 334.906 216.798 335.468 217.022Z" fill="white"/>
<path d="M334.768 223.338C335.368 222.104 336.134 220.957 337.045 219.93C336.793 220.57 336.452 221.173 336.032 221.719C335.684 222.312 335.259 222.856 334.768 223.338Z" fill="white"/>
<path d="M306.085 182.601L284.912 153.826C286.166 152.862 287.341 151.798 288.424 150.645C292.939 145.823 295.677 139.614 296.19 133.036C296.703 126.458 294.959 119.901 291.245 114.441C287.532 108.982 282.068 104.943 275.752 102.988C269.435 101.034 262.64 101.279 256.481 103.683C250.322 106.088 245.166 110.509 241.857 116.222C238.548 121.935 237.283 128.601 238.271 135.125C239.258 141.649 242.439 147.645 247.29 152.128C252.142 156.612 258.378 159.318 264.974 159.801C266.014 159.877 267.057 159.896 268.099 159.858C272.338 159.728 276.497 158.673 280.283 156.768L301.673 185.838C302.105 186.419 302.751 186.805 303.468 186.911C304.185 187.018 304.916 186.836 305.499 186.406C306.08 185.978 306.468 185.337 306.578 184.624C306.688 183.911 306.511 183.184 306.085 182.601ZM267.94 154.405C267.093 154.433 266.246 154.418 265.401 154.36C259.346 153.924 253.691 151.188 249.599 146.714C245.508 142.241 243.294 136.372 243.413 130.317C243.532 124.263 245.975 118.485 250.239 114.175C254.503 109.865 260.262 107.351 266.329 107.153C267.185 107.125 268.042 107.142 268.896 107.204C274.941 107.655 280.583 110.4 284.661 114.874C288.739 119.347 290.944 125.211 290.821 131.257C290.699 137.303 288.258 143.072 284.002 147.378C279.746 151.684 273.998 154.199 267.94 154.405Z" fill="#395D7F"/>
<path d="M297.676 166.952L295.165 175.512C295.165 175.512 308.306 180.278 315.422 180.187C322.089 180.107 323.996 179.352 326.342 173.984C328.688 168.617 331.352 162.448 331.921 158.875C331.921 158.875 335.685 142.523 321.326 143.982L320.928 156.768C320.928 156.768 319.339 162.011 319.22 162.317C318.149 165.157 316.76 169.287 315.416 169.787C314.073 170.286 297.676 166.952 297.676 166.952Z" fill="#455A64"/>
<path d="M318.297 173.808C317.24 172.568 316.411 171.151 315.849 169.622C316.335 170.269 316.764 170.957 317.13 171.678C317.577 172.355 317.968 173.067 318.297 173.808Z" fill="#395D7F"/>
<path d="M319.641 172.462C318.955 172.109 318.314 171.674 317.734 171.167C317.102 170.733 316.529 170.222 316.026 169.645C316.71 170 317.35 170.435 317.933 170.94C318.564 171.373 319.138 171.885 319.641 172.462Z" fill="#395D7F"/>
<path d="M324.104 149.14C323.687 150.506 323.181 151.843 322.59 153.144C322.087 154.481 321.495 155.782 320.819 157.041C321.232 155.674 321.736 154.336 322.328 153.036C322.832 151.699 323.425 150.397 324.104 149.14Z" fill="#395D7F"/>
<path d="M331.352 161.312C331.315 161.536 331.252 161.755 331.164 161.965C331.005 162.431 330.805 163.016 330.595 163.703C330.071 165.169 329.337 167.191 328.471 169.383C327.606 171.576 326.763 173.569 326.069 174.972C325.733 175.677 325.448 176.239 325.237 176.62C325.144 176.822 325.028 177.012 324.89 177.188C324.951 176.969 325.035 176.758 325.141 176.557C325.34 176.108 325.585 175.54 325.881 174.853C326.507 173.427 327.333 171.445 328.204 169.241C329.075 167.037 329.821 165.084 330.401 163.561C330.686 162.84 330.925 162.255 331.09 161.857C331.16 161.668 331.248 161.485 331.352 161.312Z" fill="#395D7F"/>
<path d="M310.236 169.412C310.236 169.491 307.389 169.037 303.848 168.401C300.306 167.765 297.494 167.185 297.511 167.111C297.528 167.038 300.358 167.486 303.899 168.123C307.44 168.759 310.253 169.338 310.236 169.412Z" fill="#395D7F"/>
<path d="M325.135 161.608C324.962 160.072 324.983 158.52 325.198 156.99C325.327 157.753 325.363 158.529 325.306 159.301C325.344 160.074 325.286 160.849 325.135 161.608Z" fill="white"/>
<path d="M320.017 177.33C320.227 176.735 320.48 176.156 320.774 175.597C320.983 175.001 321.234 174.42 321.525 173.859C321.503 174.505 321.336 175.138 321.036 175.711C320.82 176.319 320.472 176.872 320.017 177.33Z" fill="white"/>
<path d="M313.065 176.887C312.284 175.576 311.545 174.241 310.85 172.882C311.395 173.432 311.844 174.07 312.177 174.768C312.591 175.419 312.891 176.135 313.065 176.887Z" fill="white"/>
<path d="M303.455 172.462C302.878 172.843 302.252 173.143 301.593 173.354C300.969 173.649 300.309 173.859 299.629 173.978C300.206 173.597 300.832 173.297 301.491 173.087C302.114 172.791 302.775 172.581 303.455 172.462Z" fill="white"/>
<path d="M330.413 152.394C330.35 152.445 329.718 151.826 328.807 151.179C327.896 150.531 327.065 150.196 327.099 150.117C327.78 150.236 328.422 150.521 328.967 150.946C329.562 151.301 330.06 151.799 330.413 152.394Z" fill="white"/>
<path d="M326.313 166.515C324.856 167.038 323.3 167.232 321.759 167.083C322.509 166.921 323.27 166.817 324.036 166.771C324.788 166.63 325.549 166.545 326.313 166.515Z" fill="white"/>
<path d="M324.964 122.728C325.348 122.031 325.959 121.485 326.696 121.181C327.434 120.878 328.253 120.834 329.018 121.058C329.775 121.306 330.462 121.733 331.02 122.301C331.577 122.869 331.99 123.563 332.223 124.324C332.673 125.856 332.702 127.48 332.309 129.027C332.058 130.163 331.739 131.475 332.479 132.35C333.219 133.225 334.483 133.145 335.298 133.849C335.498 134.025 335.661 134.241 335.775 134.482C335.889 134.723 335.952 134.986 335.96 135.252C335.969 135.519 335.922 135.784 335.823 136.032C335.725 136.28 335.576 136.505 335.387 136.693C335.197 136.882 334.971 137.029 334.722 137.127C334.473 137.224 334.207 137.269 333.94 137.26C333.672 137.251 333.41 137.186 333.169 137.072C332.927 136.957 332.712 136.794 332.536 136.593C332.536 137.382 332.969 138.104 333.214 138.865C333.459 139.626 333.493 140.569 332.889 141.074C332.65 141.247 332.368 141.353 332.074 141.381C331.78 141.409 331.483 141.358 331.215 141.233C330.68 140.98 330.196 140.632 329.786 140.205C330.065 141.021 330.065 141.906 329.786 142.722C329.636 143.124 329.384 143.481 329.055 143.757C328.726 144.034 328.331 144.221 327.908 144.301C327.372 144.34 326.836 144.219 326.369 143.953C325.903 143.687 325.526 143.288 325.289 142.807C324.831 141.835 324.66 140.754 324.793 139.688C324.913 138.03 325.363 136.405 325.545 134.758C325.838 133.107 325.623 131.406 324.93 129.879" fill="#AD6359"/>
<path d="M334.614 132.412C334.614 132.412 334.546 132.452 334.398 132.412C334.292 132.395 334.191 132.353 334.104 132.29C334.017 132.226 333.946 132.144 333.897 132.048C333.817 131.89 333.796 131.709 333.839 131.537C333.882 131.364 333.985 131.213 334.131 131.111C334.318 130.969 334.55 130.898 334.785 130.912C335.02 130.925 335.242 131.022 335.412 131.185C335.611 131.378 335.752 131.623 335.82 131.892C335.887 132.161 335.878 132.443 335.793 132.707C335.719 133.008 335.559 133.28 335.332 133.491C335.082 133.715 334.762 133.845 334.427 133.86C334.083 133.882 333.739 133.807 333.436 133.645C333.123 133.469 332.862 133.214 332.679 132.906C332.319 132.264 332.19 131.518 332.314 130.793C332.525 129.333 333.231 128.112 333.214 126.885C333.23 125.802 332.934 124.738 332.36 123.818C331.974 123.195 331.471 122.651 330.88 122.216C330.458 121.91 330.191 121.796 330.208 121.768C330.225 121.739 330.276 121.768 330.407 121.842C330.593 121.921 330.772 122.016 330.942 122.126C331.576 122.538 332.117 123.078 332.531 123.71C333.152 124.655 333.481 125.761 333.476 126.891C333.476 128.192 332.787 129.453 332.593 130.833C332.48 131.493 332.594 132.172 332.918 132.758C333.064 133.023 333.281 133.241 333.544 133.389C333.808 133.538 334.107 133.61 334.409 133.599C334.677 133.583 334.932 133.482 335.137 133.31C335.342 133.138 335.486 132.905 335.548 132.645C335.626 132.421 335.64 132.18 335.589 131.948C335.538 131.716 335.423 131.503 335.258 131.333C335.123 131.196 334.944 131.111 334.752 131.093C334.56 131.075 334.368 131.126 334.21 131.236C334.089 131.316 333.999 131.436 333.956 131.575C333.914 131.714 333.921 131.863 333.977 131.997C334.017 132.083 334.075 132.159 334.146 132.221C334.218 132.282 334.302 132.328 334.392 132.355C334.535 132.412 334.609 132.395 334.614 132.412Z" fill="#AD6359"/>
<path d="M321.44 144.301L322.203 126.965L315.303 121.751L309.04 124.812C309.04 124.812 308.829 132.668 309.04 136.076C309.251 139.484 312.695 139.847 312.695 139.847C312.695 139.847 312.615 141.841 312.536 143.943C312.513 144.545 312.614 145.145 312.83 145.707C313.047 146.269 313.376 146.781 313.797 147.213C314.218 147.645 314.722 147.987 315.28 148.218C315.837 148.45 316.435 148.566 317.039 148.561C318.179 148.546 319.27 148.096 320.089 147.304C320.907 146.512 321.391 145.437 321.44 144.301Z" fill="#FFBE9D"/>
<path d="M309.718 130.538C309.718 130.624 309.743 130.709 309.791 130.781C309.84 130.853 309.908 130.909 309.988 130.942C310.068 130.975 310.156 130.984 310.241 130.967C310.326 130.95 310.405 130.908 310.466 130.847C310.527 130.786 310.569 130.708 310.586 130.623C310.603 130.538 310.594 130.45 310.561 130.371C310.528 130.291 310.472 130.222 310.399 130.174C310.327 130.126 310.243 130.101 310.156 130.101C310.04 130.102 309.929 130.149 309.848 130.23C309.766 130.312 309.719 130.422 309.718 130.538Z" fill="#395D7F"/>
<path d="M309.291 130.072C309.347 130.129 309.666 129.856 310.139 129.834C310.611 129.811 310.964 130.033 311.01 129.97C311.055 129.908 310.976 129.839 310.822 129.731C310.615 129.595 310.369 129.529 310.122 129.544C309.874 129.56 309.638 129.655 309.45 129.817C309.308 129.925 309.262 130.038 309.291 130.072Z" fill="#395D7F"/>
<path d="M314.779 130.538C314.779 130.624 314.805 130.709 314.853 130.781C314.901 130.853 314.969 130.909 315.049 130.942C315.13 130.975 315.218 130.984 315.303 130.967C315.388 130.95 315.466 130.908 315.527 130.847C315.588 130.786 315.63 130.708 315.647 130.623C315.664 130.538 315.655 130.45 315.622 130.371C315.589 130.291 315.533 130.222 315.461 130.174C315.389 130.126 315.304 130.101 315.217 130.101C315.101 130.101 314.989 130.147 314.907 130.229C314.825 130.311 314.779 130.422 314.779 130.538Z" fill="#395D7F"/>
<path d="M314.506 130.072C314.563 130.129 314.887 129.856 315.354 129.834C315.821 129.811 316.179 130.033 316.231 129.97C316.282 129.908 316.197 129.839 316.037 129.731C315.83 129.595 315.584 129.529 315.337 129.544C315.089 129.56 314.853 129.655 314.665 129.817C314.523 129.925 314.477 130.038 314.506 130.072Z" fill="#395D7F"/>
<path d="M314.363 134.474C313.645 134.839 312.878 135.101 312.086 135.252C312.26 135.489 312.507 135.661 312.79 135.741C313.072 135.821 313.374 135.805 313.646 135.695C313.776 135.667 313.899 135.611 314.006 135.533C314.114 135.455 314.204 135.355 314.272 135.241C314.339 135.126 314.382 134.999 314.398 134.867C314.413 134.735 314.402 134.601 314.363 134.474Z" fill="white"/>
<path d="M312.678 139.847C314.302 139.778 315.872 139.248 317.204 138.319C317.204 138.319 316.179 140.824 312.752 140.682L312.678 139.847Z" fill="#EB996E"/>
<path d="M332.138 136.763C331.706 136.779 331.278 136.681 330.897 136.479C330.334 136.18 329.867 135.729 329.547 135.178C329.155 134.487 328.818 133.765 328.54 133.02C327.902 131.435 327.401 129.964 327.094 128.891L326.951 128.419C326.951 128.237 326.894 128.073 326.866 127.953C324.998 120.848 318.741 119.524 317.5 119.524C316.259 119.524 313.851 118.797 310.463 122.307C309.955 122.835 309.524 123.432 309.182 124.08C308.43 125.012 307.913 126.11 307.674 127.283C307.518 127.838 307.49 128.421 307.594 128.987C307.657 128.987 307.668 128.345 307.93 127.357C308.088 126.776 308.31 126.214 308.59 125.681C308.294 126.994 308.416 128.366 308.938 129.606L310.15 129.271L314.5 127.794C314.101 126.454 314.688 124.784 315.012 124.006L315.046 123.977C315.29 125.394 315.978 126.696 317.011 127.697C318.045 128.697 319.371 129.344 320.797 129.544L321.599 140.705C327.384 139.472 327.247 131.753 327.213 130.186C327.475 131.066 327.817 132.083 328.244 133.145C328.525 133.91 328.88 134.646 329.303 135.343C329.659 135.93 330.179 136.4 330.8 136.695C331.221 136.891 331.69 136.96 332.149 136.894C332.318 136.878 332.479 136.818 332.616 136.718C332.456 136.723 332.296 136.738 332.138 136.763Z" fill="#AD6359"/>
<path d="M312.809 134.048C312.557 133.99 312.299 133.957 312.04 133.951C311.921 133.951 311.801 133.951 311.778 133.843C311.761 133.713 311.783 133.581 311.841 133.463L312.166 132.492C312.388 131.799 312.581 131.168 312.735 130.708C312.826 130.465 312.884 130.211 312.906 129.953C312.767 130.169 312.653 130.399 312.564 130.64C312.405 131.089 312.194 131.713 311.995 132.406L311.687 133.383C311.617 133.536 311.601 133.709 311.642 133.872C311.66 133.914 311.687 133.951 311.721 133.98C311.756 134.01 311.797 134.031 311.841 134.042C311.909 134.05 311.978 134.05 312.046 134.042C312.299 134.077 312.555 134.078 312.809 134.048Z" fill="#395D7F"/>
<path d="M322.567 133.883C322.51 133.309 322.572 132.729 322.75 132.179C322.839 131.91 323.001 131.669 323.216 131.483C323.431 131.297 323.693 131.173 323.974 131.123C324.305 131.108 324.63 131.216 324.886 131.425C325.143 131.635 325.313 131.932 325.363 132.259C325.401 132.584 325.341 132.913 325.191 133.205C325.041 133.496 324.807 133.736 324.52 133.895C324.228 134.047 323.905 134.131 323.576 134.14C323.247 134.15 322.919 134.086 322.619 133.952" fill="#FFBE9D"/>
<path d="M323.558 133.389C323.558 133.35 323.746 133.435 323.985 133.361C324.135 133.31 324.266 133.212 324.358 133.083C324.45 132.953 324.499 132.798 324.497 132.64C324.511 132.56 324.507 132.478 324.487 132.399C324.466 132.321 324.429 132.248 324.378 132.185C324.272 132.101 324.137 132.06 324.002 132.072C323.746 132.072 323.569 132.162 323.552 132.123C323.535 132.083 323.666 131.964 323.974 131.873C324.071 131.849 324.173 131.847 324.271 131.866C324.369 131.886 324.462 131.927 324.543 131.986C324.632 132.072 324.699 132.177 324.74 132.294C324.781 132.41 324.793 132.534 324.776 132.657C324.763 132.891 324.673 133.115 324.52 133.293C324.392 133.44 324.213 133.535 324.019 133.56C323.689 133.594 323.535 133.412 323.558 133.389Z" fill="#EB996E"/>
<path d="M324.583 133.855C324.583 133.855 324.839 134.031 324.839 134.485C324.827 134.751 324.713 135.001 324.52 135.184C324.397 135.295 324.251 135.378 324.093 135.427C323.935 135.476 323.768 135.49 323.603 135.468C323.439 135.437 323.283 135.37 323.147 135.272C323.011 135.174 322.899 135.047 322.818 134.9C322.754 134.782 322.714 134.652 322.702 134.518C322.689 134.385 322.703 134.25 322.744 134.122C322.886 133.685 323.176 133.554 323.188 133.599C323.199 133.645 323.006 133.798 322.937 134.167C322.903 134.342 322.925 134.524 322.999 134.686C323.073 134.848 323.196 134.984 323.35 135.073C323.505 135.162 323.684 135.201 323.862 135.185C324.04 135.168 324.208 135.096 324.344 134.98C324.507 134.846 324.613 134.655 324.64 134.446C324.647 134.247 324.627 134.049 324.583 133.855Z" fill="#395D7F"/>
<path d="M322.579 131.509C322.452 131.627 322.303 131.717 322.14 131.776C321.704 131.966 321.233 132.063 320.757 132.06C320.046 132.057 319.347 131.881 318.719 131.549C317.961 131.137 317.312 130.554 316.823 129.845C315.983 128.535 315.464 127.047 315.308 125.5C315.229 124.932 315.189 124.443 315.166 124.119C315.137 123.948 315.137 123.774 315.166 123.603C315.312 124.219 315.426 124.843 315.508 125.471C315.718 126.968 316.246 128.403 317.056 129.68C317.515 130.353 318.12 130.914 318.827 131.322C319.416 131.642 320.07 131.824 320.74 131.856C321.37 131.862 321.995 131.744 322.579 131.509Z" fill="#AD6359"/>
<path d="M326.41 126.624C326.325 126.624 326.069 125.641 325.403 124.574C324.737 123.506 323.951 122.83 324.008 122.762C324.698 123.153 325.264 123.73 325.642 124.426C326.101 125.071 326.368 125.834 326.41 126.624Z" fill="#395D7F"/>
<path d="M295.422 174.637H293.412C291.584 174.461 290.565 174.433 290.053 173.95C289.369 173.297 290.309 172.661 290.309 172.661C290.309 172.661 288.988 172.206 289.113 171.405C289.193 170.837 289.819 170.798 289.819 170.798C289.819 170.798 288.681 170.343 288.424 169.855C288.111 169.196 288.931 168.844 288.931 168.844C287.343 167.867 287.491 166.895 287.855 166.799C288.219 166.702 289.461 167.276 289.461 167.276C290.508 167.571 293.366 168.44 292.307 166.867C291.248 165.294 291.032 163.692 291.271 163.215C291.323 163.089 291.418 162.987 291.54 162.926C291.661 162.864 291.8 162.848 291.932 162.881C292.064 162.913 292.181 162.991 292.26 163.101C292.339 163.212 292.376 163.347 292.364 163.482C292.528 164.101 292.779 164.694 293.11 165.243C293.362 165.685 293.683 166.083 294.061 166.424C294.511 166.822 294.909 167.14 295.251 167.407L297.038 169.111L295.422 174.637Z" fill="#FFBE9D"/>
<path d="M282.913 154.627C283.061 154.195 283.42 153.888 283.807 154.093C283.884 154.183 283.936 154.292 283.958 154.408C283.98 154.525 283.971 154.645 283.932 154.757L282.691 158.784L283.864 155.944C284.012 155.513 284.405 155.251 284.672 155.484C284.739 155.578 284.783 155.686 284.799 155.799C284.816 155.913 284.806 156.029 284.769 156.137L283.699 159.483L284.57 157.393C284.752 156.916 284.963 156.785 285.208 156.893C285.452 157.001 285.458 157.347 285.401 157.54L284.667 160.006C284.826 160.483 285.373 161.977 284.843 162.817C284.843 162.857 284.9 162.999 284.895 163.044L285.145 163.328L283.528 164.811C283.528 164.811 282.008 160.977 281.718 159.824C281.539 159.16 281.571 158.458 281.809 157.813L282.913 154.627Z" fill="#FFBE9D"/>
</svg>
